ExpletusSans-BoldItalic.ufo
<glyph name="exclam" format="1">
  <advance width="351"/>
  <unicode hex="0021"/>
  <outline>
    <contour>
      <point x="276" y="727" type="line" name="hr00"/>
      <point x="194" y="230" type="line"/>
      <point x="94" y="230" type="line"/>
      <point x="136" y="727" type="line"/>
    </contour>
    <contour>
      <point x="40" y="68" type="curve" smooth="yes"/>
      <point x="45" y="114"/>
      <point x="86" y="152"/>
      <point x="133" y="152" type="curve" smooth="yes"/>
      <point x="179" y="152"/>
      <point x="210" y="114"/>
      <point x="205" y="68" type="curve" smooth="yes"/>
      <point x="199" y="22"/>
      <point x="159" y="-14"/>
      <point x="113" y="-14" type="curve" smooth="yes"/>
      <point x="66" y="-14"/>
      <point x="34" y="22"/>
    </contour>
  </outline>
</glyph>
<glyph name="quotedbl" format="1">
  <advance width="416"/>
  <unicode hex="0022"/>
  <outline>
    <contour>
      <point x="122" y="727" type="line" name="hr00"/>
      <point x="244" y="727" type="line"/>
      <point x="234" y="649" type="line" smooth="yes"/>
      <point x="223" y="557"/>
      <point x="179" y="482"/>
      <point x="94" y="501" type="curve"/>
    </contour>
    <contour>
      <point x="326" y="727" type="line"/>
      <point x="448" y="727" type="line"/>
      <point x="438" y="649" type="line" smooth="yes"/>
      <point x="427" y="557"/>
      <point x="383" y="482"/>
      <point x="298" y="501" type="curve"/>
    </contour>
  </outline>
</glyph>
<glyph name="numbersign" format="1">
  <advance width="894"/>
  <unicode hex="0023"/>
  <outline>
    <contour>
      <point x="497" y="141" type="line"/>
      <point x="506" y="156" type="line"/>
      <point x="490" y="154" type="line"/>
      <point x="336" y="154" type="line"/>
      <point x="354" y="192"/>
      <point x="387" y="241"/>
      <point x="459" y="241" type="curve" smooth="yes"/>
      <point x="525" y="241" type="line"/>
      <point x="591" y="448" type="line"/>
      <point x="600" y="464" type="line"/>
      <point x="582" y="462" type="line"/>
      <point x="401" y="462" type="line"/>
      <point x="257" y="0" type="line" name="hr01"/>
      <point x="145" y="0" type="line"/>
      <point x="191" y="145" type="line"/>
      <point x="200" y="156" type="line"/>
      <point x="185" y="154" type="line" name="hr02"/>
      <point x="83" y="154" type="line"/>
      <point x="94" y="240" type="line"/>
      <point x="219" y="240" type="line"/>
      <point x="286" y="453" type="line"/>
      <point x="294" y="464" type="line"/>
      <point x="278" y="462" type="line"/>
      <point x="180" y="462" type="line"/>
      <point x="191" y="550" type="line"/>
      <point x="317" y="550" type="line"/>
      <point x="364" y="702" type="line" name="hr03"/>
      <point x="476" y="702" type="line"/>
      <point x="428" y="550" type="line" name="hr04"/>
      <point x="623" y="550" type="line"/>
      <point x="671" y="702" type="line" name="hr05"/>
      <point x="783" y="702" type="line"/>
      <point x="734" y="550" type="line" name="hr06"/>
      <point x="848" y="550" type="line"/>
      <point x="837" y="463" type="line"/>
      <point x="707" y="463" type="line"/>
      <point x="637" y="241" type="line"/>
      <point x="750" y="241" type="line"/>
      <point x="739" y="154" type="line"/>
      <point x="612" y="154" type="line"/>
      <point x="564" y="0" type="line" name="hr07"/>
      <point x="452" y="0" type="line"/>
    </contour>
  </outline>
</glyph>
<glyph name="dollar" format="1">
  <advance width="514"/>
  <unicode hex="0024"/>
  <outline>
    <contour>
      <point x="339" y="612" type="curve" smooth="yes" name="hr00"/>
      <point x="279" y="612"/>
      <point x="236" y="580"/>
      <point x="230" y="537" type="curve" smooth="yes"/>
      <point x="214" y="406"/>
      <point x="555" y="404"/>
      <point x="528" y="181" type="curve" smooth="yes"/>
      <point x="515" y="74"/>
      <point x="432" y="9"/>
      <point x="315" y="-8" type="curve"/>
      <point x="302" y="-107" type="line"/>
      <point x="196" y="-107" type="line"/>
      <point x="208" y="-11" type="line"/>
      <point x="158" y="-6"/>
      <point x="98" y="9"/>
      <point x="30" y="40" type="curve"/>
      <point x="80" y="134" type="line"/>
      <point x="148" y="102"/>
      <point x="211" y="91"/>
      <point x="262" y="91" type="curve" smooth="yes"/>
      <point x="333" y="91"/>
      <point x="390" y="133"/>
      <point x="396" y="183" type="curve" smooth="yes"/>
      <point x="413" y="322"/>
      <point x="74" y="319"/>
      <point x="99" y="529" type="curve" smooth="yes"/>
      <point x="113" y="638"/>
      <point x="196" y="696"/>
      <point x="297" y="709" type="curve"/>
      <point x="309" y="810" type="line"/>
      <point x="415" y="810" type="line"/>
      <point x="403" y="709" type="line"/>
      <point x="441" y="705"/>
      <point x="480" y="697"/>
      <point x="534" y="680" type="curve"/>
      <point x="486" y="589" type="line"/>
      <point x="429" y="605"/>
      <point x="383" y="612"/>
    </contour>
  </outline>
</glyph>
<glyph name="percent" format="1">
  <advance width="814"/>
  <unicode hex="0025"/>
  <outline>
    <contour>
      <point x="662" y="702" type="line"/>
      <point x="773" y="702" type="line"/>
      <point x="249" y="0" type="line"/>
      <point x="138" y="0" type="line"/>
    </contour>
    <contour>
      <point x="844" y="191" type="curve" smooth="yes"/>
      <point x="828" y="62"/>
      <point x="751" y="-13"/>
      <point x="645" y="-13" type="curve" smooth="yes" name="hr01"/>
      <point x="539" y="-13"/>
      <point x="482" y="61"/>
      <point x="498" y="191" type="curve" smooth="yes"/>
      <point x="514" y="319"/>
      <point x="589" y="394"/>
      <point x="695" y="394" type="curve" smooth="yes"/>
      <point x="801" y="394"/>
      <point x="860" y="319"/>
    </contour>
    <contour>
      <point x="733" y="191" type="curve" smooth="yes"/>
      <point x="743" y="272"/>
      <point x="723" y="315"/>
      <point x="685" y="315" type="curve" smooth="yes"/>
      <point x="649" y="315"/>
      <point x="618" y="272"/>
      <point x="608" y="191" type="curve" smooth="yes"/>
      <point x="598" y="108"/>
      <point x="619" y="66"/>
      <point x="655" y="66" type="curve" smooth="yes"/>
      <point x="693" y="66"/>
      <point x="723" y="108"/>
    </contour>
    <contour>
      <point x="415" y="514" type="curve" smooth="yes"/>
      <point x="399" y="385"/>
      <point x="322" y="310"/>
      <point x="216" y="310" type="curve" smooth="yes"/>
      <point x="110" y="310"/>
      <point x="53" y="384"/>
      <point x="69" y="514" type="curve" smooth="yes"/>
      <point x="84" y="642"/>
      <point x="160" y="717"/>
      <point x="266" y="717" type="curve" smooth="yes"/>
      <point x="372" y="717"/>
      <point x="430" y="642"/>
    </contour>
    <contour>
      <point x="304" y="514" type="curve" smooth="yes"/>
      <point x="314" y="595"/>
      <point x="294" y="638"/>
      <point x="256" y="638" type="curve" smooth="yes"/>
      <point x="220" y="638"/>
      <point x="189" y="595"/>
      <point x="179" y="514" type="curve" smooth="yes"/>
      <point x="168" y="431"/>
      <point x="189" y="389"/>
      <point x="225" y="389" type="curve" smooth="yes"/>
      <point x="263" y="389"/>
      <point x="293" y="431"/>
    </contour>
  </outline>
</glyph>
<glyph name="ampersand" format="1">
  <advance width="761"/>
  <unicode hex="0026"/>
  <outline>
    <contour>
      <point x="336" y="324" type="line"/>
      <point x="329" y="341" type="line"/>
      <point x="318" y="323" type="line"/>
      <point x="293" y="295"/>
      <point x="275" y="264"/>
      <point x="270" y="222" type="curve" smooth="yes"/>
      <point x="261" y="149"/>
      <point x="290" y="93"/>
      <point x="361" y="93" type="curve" smooth="yes"/>
      <point x="375" y="93"/>
      <point x="382" y="95"/>
      <point x="394" y="96" type="curve" smooth="yes"/>
      <point x="445" y="100"/>
      <point x="471" y="70"/>
      <point x="495" y="39" type="curve"/>
      <point x="444" y="5"/>
      <point x="393" y="-11"/>
      <point x="333" y="-11" type="curve" smooth="yes"/>
      <point x="198" y="-11"/>
      <point x="117" y="75"/>
      <point x="133" y="209" type="curve" smooth="yes"/>
      <point x="144" y="299"/>
      <point x="204" y="366"/>
      <point x="275" y="415" type="curve"/>
      <point x="236" y="480"/>
      <point x="232" y="513"/>
      <point x="237" y="550" type="curve" smooth="yes"/>
      <point x="252" y="672"/>
      <point x="357" y="737"/>
      <point x="486" y="737" type="curve" smooth="yes"/>
      <point x="530" y="737"/>
      <point x="590" y="725"/>
      <point x="636" y="703" type="curve"/>
      <point x="595" y="611" type="line"/>
      <point x="553" y="625"/>
      <point x="507" y="633"/>
      <point x="471" y="633" type="curve" smooth="yes"/>
      <point x="414" y="633"/>
      <point x="372" y="603"/>
      <point x="366" y="559" type="curve" smooth="yes"/>
      <point x="360" y="508"/>
      <point x="390" y="470"/>
      <point x="437" y="404" type="curve"/>
      <point x="552" y="246" type="line"/>
      <point x="559" y="228" type="line"/>
      <point x="569" y="249" type="line"/>
      <point x="593" y="291"/>
      <point x="609" y="331"/>
      <point x="622" y="379" type="curve"/>
      <point x="737" y="379" type="line"/>
      <point x="708" y="291"/>
      <point x="675" y="214"/>
      <point x="626" y="147" type="curve"/>
      <point x="735" y="0" type="line" name="hr01"/>
      <point x="576" y="0" type="line"/>
    </contour>
  </outline>
</glyph>
<glyph name="parenleft" format="1">
  <advance width="403"/>
  <unicode hex="0028"/>
  <outline>
    <contour>
      <point x="317" y="296" type="curve" smooth="yes" name="hr00"/>
      <point x="290" y="74"/>
      <point x="289" y="-9"/>
      <point x="391" y="-110" type="curve"/>
      <point x="317" y="-176" type="line"/>
      <point x="176" y="-72"/>
      <point x="163" y="46"/>
      <point x="194" y="296" type="curve"/>
      <point x="224" y="545"/>
      <point x="266" y="663"/>
      <point x="433" y="767" type="curve"/>
      <point x="491" y="702" type="line"/>
      <point x="363" y="599"/>
      <point x="344" y="517"/>
    </contour>
  </outline>
</glyph>
<glyph name="parenright" format="1">
  <advance width="401"/>
  <unicode hex="0029"/>
  <outline>
    <contour>
      <point x="158" y="296" type="curve" smooth="yes" name="hr00"/>
      <point x="185" y="517"/>
      <point x="186" y="599"/>
      <point x="84" y="702" type="curve"/>
      <point x="158" y="767" type="line"/>
      <point x="299" y="663"/>
      <point x="311" y="545"/>
      <point x="281" y="296" type="curve"/>
      <point x="250" y="46"/>
      <point x="209" y="-72"/>
      <point x="42" y="-176" type="curve"/>
      <point x="-15" y="-110" type="line"/>
      <point x="110" y="-9"/>
      <point x="131" y="74"/>
    </contour>
  </outline>
</glyph>
<glyph name="asterisk" format="1">
  <advance width="530"/>
  <unicode hex="002A"/>
  <outline>
    <contour>
      <point x="321" y="590" type="line" name="hr00"/>
      <point x="394" y="746" type="line"/>
      <point x="481" y="691" type="line"/>
      <point x="358" y="568" type="line"/>
      <point x="523" y="599" type="line"/>
      <point x="510" y="491" type="line"/>
      <point x="351" y="523" type="line"/>
      <point x="445" y="400" type="line"/>
      <point x="344" y="346" type="line"/>
      <point x="311" y="502" type="line"/>
      <point x="239" y="346" type="line"/>
      <point x="152" y="400" type="line"/>
      <point x="276" y="524" type="line"/>
      <point x="111" y="492" type="line"/>
      <point x="124" y="600" type="line"/>
      <point x="279" y="569" type="line"/>
      <point x="186" y="691" type="line"/>
      <point x="287" y="746" type="line"/>
    </contour>
  </outline>
</glyph>
<glyph name="plus" format="1">
  <advance width="568"/>
  <unicode hex="002B"/>
  <outline>
    <contour>
      <point x="90" y="353" type="line" name="hr00"/>
      <point x="270" y="353" type="line"/>
      <point x="294" y="546" type="line"/>
      <point x="400" y="546" type="line"/>
      <point x="376" y="353" type="line"/>
      <point x="558" y="353" type="line"/>
      <point x="546" y="257" type="line"/>
      <point x="364" y="257" type="line"/>
      <point x="340" y="62" type="line"/>
      <point x="234" y="62" type="line"/>
      <point x="258" y="257" type="line"/>
      <point x="78" y="257" type="line"/>
    </contour>
  </outline>
</glyph>
<glyph name="comma" format="1">
  <advance width="254"/>
  <unicode hex="002C"/>
  <outline>
    <contour>
      <point x="68" y="98" type="line" name="hr00"/>
      <point x="190" y="98" type="line"/>
      <point x="180" y="20" type="line" smooth="yes"/>
      <point x="169" y="-72"/>
      <point x="124" y="-147"/>
      <point x="40" y="-128" type="curve"/>
    </contour>
  </outline>
</glyph>
<glyph name="period" format="1">
  <advance width="273"/>
  <unicode hex="002E"/>
  <outline>
    <contour>
      <point x="50" y="67" type="curve" smooth="yes" name="hr00"/>
      <point x="55" y="113"/>
      <point x="96" y="151"/>
      <point x="143" y="151" type="curve" smooth="yes"/>
      <point x="189" y="151"/>
      <point x="220" y="113"/>
      <point x="215" y="67" type="curve" smooth="yes"/>
      <point x="209" y="21"/>
      <point x="169" y="-15"/>
      <point x="123" y="-15" type="curve" smooth="yes"/>
      <point x="76" y="-15"/>
      <point x="44" y="21"/>
    </contour>
  </outline>
</glyph>
<glyph name="zero" format="1">
  <advance width="710"/>
  <unicode hex="0030"/>
  <outline>
    <contour>
      <point x="667" y="349" type="curve" name="hr00"/>
      <point x="644" y="157"/>
      <point x="526" y="-19"/>
      <point x="326" y="-19" type="curve" smooth="yes"/>
      <point x="150" y="-19"/>
      <point x="47" y="120"/>
      <point x="75" y="349" type="curve" smooth="yes"/>
      <point x="102" y="570"/>
      <point x="235" y="719"/>
      <point x="417" y="719" type="curve" smooth="yes"/>
      <point x="626" y="719"/>
      <point x="689" y="527"/>
    </contour>
    <contour>
      <point x="515" y="349" type="curve"/>
      <point x="535" y="512"/>
      <point x="501" y="617"/>
      <point x="404" y="617" type="curve"/>
      <point x="306" y="617"/>
      <point x="247" y="512"/>
      <point x="227" y="349" type="curve"/>
      <point x="207" y="187"/>
      <point x="242" y="83"/>
      <point x="339" y="83" type="curve" smooth="yes"/>
      <point x="436" y="83"/>
      <point x="495" y="187"/>
    </contour>
  </outline>
</glyph>
<glyph name="two" format="1">
  <advance width="567"/>
  <unicode hex="0032"/>
  <outline>
    <contour>
      <point x="558" y="522" type="curve" smooth="yes" name="hr00"/>
      <point x="542" y="392"/>
      <point x="356" y="233"/>
      <point x="253" y="124" type="curve"/>
      <point x="235" y="106" type="line"/>
      <point x="258" y="109" type="line"/>
      <point x="518" y="109" type="line"/>
      <point x="505" y="0" type="line"/>
      <point x="44" y="0" type="line"/>
      <point x="51" y="59" type="line"/>
      <point x="123" y="190"/>
      <point x="393" y="385"/>
      <point x="408" y="512" type="curve"/>
      <point x="416" y="575"/>
      <point x="372" y="611"/>
      <point x="307" y="611" type="curve"/>
      <point x="276" y="611"/>
      <point x="230" y="602"/>
      <point x="178" y="580" type="curve"/>
      <point x="153" y="672" type="line"/>
      <point x="223" y="703"/>
      <point x="283" y="713"/>
      <point x="329" y="713" type="curve" smooth="yes"/>
      <point x="484" y="713"/>
      <point x="572" y="641"/>
    </contour>
  </outline>
</glyph>
<glyph name="three" format="1">
  <advance width="528"/>
  <unicode hex="0033"/>
  <outline>
    <contour>
      <point x="517" y="546" type="curve" smooth="yes" name="hr00"/>
      <point x="509" y="487"/>
      <point x="468" y="434"/>
      <point x="395" y="392" type="curve"/>
      <point x="368" y="382" type="line"/>
      <point x="391" y="377" type="line"/>
      <point x="461" y="348"/>
      <point x="508" y="281"/>
      <point x="497" y="194" type="curve" smooth="yes"/>
      <point x="482" y="69"/>
      <point x="351" y="-11"/>
      <point x="206" y="-11" type="curve" smooth="yes"/>
      <point x="133" y="-11"/>
      <point x="69" y="7"/>
      <point x="9" y="35" type="curve"/>
      <point x="53" y="126" type="line"/>
      <point x="111" y="99"/>
      <point x="157" y="91"/>
      <point x="197" y="91" type="curve" smooth="yes"/>
      <point x="267" y="91"/>
      <point x="342" y="128"/>
      <point x="351" y="196" type="curve" smooth="yes"/>
      <point x="362" y="286"/>
      <point x="282" y="311"/>
      <point x="170" y="311" type="curve"/>
      <point x="171" y="396" type="line"/>
      <point x="289" y="443"/>
      <point x="361" y="475"/>
      <point x="369" y="539" type="curve"/>
      <point x="374" y="585"/>
      <point x="333" y="610"/>
      <point x="280" y="610" type="curve" smooth="yes"/>
      <point x="242" y="610"/>
      <point x="202" y="603"/>
      <point x="137" y="578" type="curve"/>
      <point x="115" y="671" type="line"/>
      <point x="196" y="703"/>
      <point x="259" y="712"/>
      <point x="314" y="712" type="curve" smooth="yes"/>
      <point x="439" y="712"/>
      <point x="529" y="651"/>
    </contour>
  </outline>
</glyph>
<glyph name="four" format="1">
  <advance width="595"/>
  <unicode hex="0034"/>
  <outline>
    <contour>
      <point x="243" y="242" type="line" name="hr00"/>
      <point x="301" y="242"/>
      <point x="323" y="186"/>
      <point x="331" y="141" type="curve"/>
      <point x="40" y="141" type="line"/>
      <point x="52" y="238" type="line"/>
      <point x="401" y="701" type="line"/>
      <point x="569" y="701" type="line"/>
      <point x="512" y="242" type="line"/>
      <point x="593" y="242" type="line"/>
      <point x="581" y="141" type="line"/>
      <point x="500" y="141" type="line"/>
      <point x="483" y="0" type="line"/>
      <point x="350" y="0" type="line"/>
      <point x="413" y="518" type="line"/>
      <point x="419" y="551" type="line"/>
      <point x="401" y="523" type="line"/>
      <point x="205" y="261" type="line"/>
      <point x="186" y="241" type="line"/>
      <point x="207" y="242" type="line"/>
    </contour>
  </outline>
</glyph>
<glyph name="five" format="1">
  <advance width="537"/>
  <unicode hex="0035"/>
  <outline>
    <contour>
      <point x="234" y="442" type="line" name="hr00"/>
      <point x="229" y="428" type="line"/>
      <point x="248" y="432" type="line"/>
      <point x="261" y="433"/>
      <point x="272" y="433"/>
      <point x="280" y="433" type="curve"/>
      <point x="444" y="433"/>
      <point x="531" y="336"/>
      <point x="516" y="213" type="curve" smooth="yes"/>
      <point x="499" y="78"/>
      <point x="366" y="-12"/>
      <point x="205" y="-12" type="curve" smooth="yes"/>
      <point x="154" y="-12"/>
      <point x="96" y="-3"/>
      <point x="24" y="36" type="curve"/>
      <point x="68" y="127" type="line"/>
      <point x="134" y="100"/>
      <point x="180" y="90"/>
      <point x="217" y="90" type="curve" smooth="yes"/>
      <point x="302" y="90"/>
      <point x="361" y="152"/>
      <point x="369" y="215" type="curve" smooth="yes"/>
      <point x="378" y="290"/>
      <point x="321" y="332"/>
      <point x="233" y="332" type="curve"/>
      <point x="199" y="332"/>
      <point x="156" y="329"/>
      <point x="93" y="318" type="curve"/>
      <point x="165" y="701" type="line"/>
      <point x="546" y="701" type="line"/>
      <point x="532" y="592" type="line"/>
      <point x="263" y="592" type="line"/>
    </contour>
  </outline>
</glyph>
<glyph name="six" format="1">
  <advance width="625"/>
  <unicode hex="0036"/>
  <outline>
    <contour>
      <point x="488" y="608" type="curve" name="hr00"/>
      <point x="346" y="608"/>
      <point x="259" y="482"/>
      <point x="240" y="329" type="curve" smooth="yes"/>
      <point x="226" y="219"/>
      <point x="240" y="85"/>
      <point x="347" y="85" type="curve" smooth="yes"/>
      <point x="406" y="85"/>
      <point x="462" y="147"/>
      <point x="471" y="224" type="curve" smooth="yes"/>
      <point x="481" y="304"/>
      <point x="448" y="340"/>
      <point x="408" y="340" type="curve" smooth="yes"/>
      <point x="401" y="340"/>
      <point x="389" y="339"/>
      <point x="377" y="337" type="curve"/>
      <point x="330" y="330"/>
      <point x="306" y="371"/>
      <point x="293" y="403" type="curve"/>
      <point x="355" y="433"/>
      <point x="403" y="442"/>
      <point x="436" y="442" type="curve" smooth="yes"/>
      <point x="549" y="442"/>
      <point x="636" y="366"/>
      <point x="619" y="224" type="curve" smooth="yes"/>
      <point x="605" y="108"/>
      <point x="495" y="-16"/>
      <point x="338" y="-16" type="curve" smooth="yes"/>
      <point x="136" y="-16"/>
      <point x="70" y="142"/>
      <point x="93" y="327" type="curve" smooth="yes"/>
      <point x="118" y="531"/>
      <point x="284" y="710"/>
      <point x="501" y="710" type="curve"/>
      <point x="534" y="710"/>
      <point x="581" y="702"/>
      <point x="628" y="686" type="curve"/>
      <point x="584" y="593" type="line"/>
      <point x="545" y="605"/>
      <point x="514" y="608"/>
    </contour>
  </outline>
</glyph>
<glyph name="seven" format="1">
  <advance width="503"/>
  <unicode hex="0037"/>
  <outline>
    <contour>
      <point x="105" y="0" type="line" name="hr00"/>
      <point x="163" y="228"/>
      <point x="241" y="395"/>
      <point x="381" y="574" type="curve"/>
      <point x="398" y="589" type="line"/>
      <point x="373" y="587" type="line"/>
      <point x="110" y="587" type="line"/>
      <point x="124" y="701" type="line"/>
      <point x="562" y="701" type="line"/>
      <point x="550" y="604" type="line"/>
      <point x="423" y="464"/>
      <point x="318" y="311"/>
      <point x="250" y="0" type="curve"/>
    </contour>
  </outline>
</glyph>
<glyph name="eight" format="1">
  <advance width="662"/>
  <unicode hex="0038"/>
  <outline>
    <contour>
      <point x="639" y="531" type="curve" smooth="yes" name="hr00"/>
      <point x="633" y="484"/>
      <point x="598" y="433"/>
      <point x="545" y="378" type="curve"/>
      <point x="523" y="363" type="line"/>
      <point x="539" y="355" type="line"/>
      <point x="591" y="317"/>
      <point x="629" y="264"/>
      <point x="618" y="178" type="curve" smooth="yes"/>
      <point x="603" y="56"/>
      <point x="482" y="-13"/>
      <point x="336" y="-13" type="curve" smooth="yes"/>
      <point x="186" y="-13"/>
      <point x="87" y="56"/>
      <point x="102" y="178" type="curve" smooth="yes"/>
      <point x="108" y="224"/>
      <point x="135" y="275"/>
      <point x="207" y="341" type="curve"/>
      <point x="238" y="309"/>
      <point x="268" y="266"/>
      <point x="252" y="222" type="curve" smooth="yes"/>
      <point x="243" y="203"/>
      <point x="239" y="193"/>
      <point x="237" y="178" type="curve" smooth="yes"/>
      <point x="230" y="122"/>
      <point x="276" y="88"/>
      <point x="348" y="88" type="curve" smooth="yes"/>
      <point x="423" y="88"/>
      <point x="472" y="129"/>
      <point x="478" y="178" type="curve" smooth="yes"/>
      <point x="497" y="332"/>
      <point x="141" y="296"/>
      <point x="170" y="531" type="curve" smooth="yes"/>
      <point x="184" y="646"/>
      <point x="299" y="714"/>
      <point x="428" y="714" type="curve" smooth="yes"/>
      <point x="561" y="714"/>
      <point x="653" y="646"/>
    </contour>
    <contour>
      <point x="310" y="531" type="curve" smooth="yes"/>
      <point x="302" y="472"/>
      <point x="366" y="444"/>
      <point x="438" y="410" type="curve"/>
      <point x="476" y="449"/>
      <point x="496" y="487"/>
      <point x="501" y="520" type="curve"/>
      <point x="509" y="586"/>
      <point x="467" y="612"/>
      <point x="416" y="612" type="curve" smooth="yes"/>
      <point x="362" y="612"/>
      <point x="316" y="585"/>
    </contour>
  </outline>
</glyph>
<glyph name="nine" format="1">
  <advance width="624"/>
  <unicode hex="0039"/>
  <outline>
    <contour>
      <point x="242" y="92" type="curve" name="hr00"/>
      <point x="384" y="92"/>
      <point x="471" y="218"/>
      <point x="490" y="371" type="curve" smooth="yes"/>
      <point x="503" y="480"/>
      <point x="490" y="614"/>
      <point x="383" y="614" type="curve" smooth="yes"/>
      <point x="324" y="614"/>
      <point x="268" y="552"/>
      <point x="259" y="476" type="curve" smooth="yes"/>
      <point x="249" y="396"/>
      <point x="282" y="360"/>
      <point x="322" y="360" type="curve" smooth="yes"/>
      <point x="328" y="360"/>
      <point x="341" y="361"/>
      <point x="353" y="363" type="curve"/>
      <point x="399" y="370"/>
      <point x="424" y="329"/>
      <point x="437" y="297" type="curve"/>
      <point x="375" y="267"/>
      <point x="327" y="258"/>
      <point x="294" y="258" type="curve" smooth="yes"/>
      <point x="180" y="258"/>
      <point x="94" y="334"/>
      <point x="111" y="476" type="curve" smooth="yes"/>
      <point x="125" y="592"/>
      <point x="234" y="716"/>
      <point x="392" y="716" type="curve" smooth="yes"/>
      <point x="594" y="716"/>
      <point x="660" y="558"/>
      <point x="637" y="373" type="curve" smooth="yes"/>
      <point x="612" y="168"/>
      <point x="446" y="-10"/>
      <point x="229" y="-10" type="curve"/>
      <point x="196" y="-10"/>
      <point x="148" y="-3"/>
      <point x="102" y="14" type="curve"/>
      <point x="146" y="106" type="line"/>
      <point x="185" y="95"/>
      <point x="216" y="92"/>
    </contour>
  </outline>
</glyph>
<glyph name="colon" format="1">
  <advance width="299"/>
  <unicode hex="003A"/>
  <outline>
    <contour>
      <point x="77" y="67" type="curve" smooth="yes" name="hr00"/>
      <point x="82" y="113"/>
      <point x="123" y="151"/>
      <point x="170" y="151" type="curve" smooth="yes"/>
      <point x="216" y="151"/>
      <point x="247" y="113"/>
      <point x="242" y="67" type="curve" smooth="yes"/>
      <point x="236" y="21"/>
      <point x="196" y="-15"/>
      <point x="150" y="-15" type="curve" smooth="yes"/>
      <point x="103" y="-15"/>
      <point x="71" y="21"/>
    </contour>
    <contour>
      <point x="121" y="426" type="curve" smooth="yes"/>
      <point x="126" y="472"/>
      <point x="167" y="510"/>
      <point x="214" y="510" type="curve" smooth="yes"/>
      <point x="260" y="510"/>
      <point x="291" y="472"/>
      <point x="286" y="426" type="curve" smooth="yes"/>
      <point x="280" y="380"/>
      <point x="240" y="344"/>
      <point x="194" y="344" type="curve" smooth="yes"/>
      <point x="147" y="344"/>
      <point x="115" y="380"/>
    </contour>
  </outline>
</glyph>
<glyph name="semicolon" format="1">
  <advance width="299"/>
  <unicode hex="003B"/>
  <outline>
    <contour>
      <point x="121" y="426" type="curve" smooth="yes"/>
      <point x="126" y="472"/>
      <point x="167" y="510"/>
      <point x="214" y="510" type="curve" smooth="yes"/>
      <point x="260" y="510"/>
      <point x="291" y="472"/>
      <point x="286" y="426" type="curve" smooth="yes"/>
      <point x="280" y="380"/>
      <point x="240" y="344"/>
      <point x="194" y="344" type="curve" smooth="yes"/>
      <point x="147" y="344"/>
      <point x="115" y="380"/>
    </contour>
    <contour>
      <point x="102" y="98" type="line" name="hr01"/>
      <point x="224" y="98" type="line"/>
      <point x="214" y="20" type="line" smooth="yes"/>
      <point x="203" y="-72"/>
      <point x="158" y="-147"/>
      <point x="74" y="-128" type="curve"/>
    </contour>
  </outline>
</glyph>
<glyph name="equal" format="1">
  <advance width="606"/>
  <unicode hex="003D"/>
  <outline>
    <contour>
      <point x="98" y="259" type="line" name="hr00"/>
      <point x="570" y="259" type="line"/>
      <point x="558" y="161" type="line"/>
      <point x="86" y="161" type="line"/>
    </contour>
    <contour>
      <point x="125" y="480" type="line"/>
      <point x="597" y="480" type="line"/>
      <point x="585" y="382" type="line"/>
      <point x="113" y="382" type="line"/>
    </contour>
  </outline>
</glyph>
<glyph name="greater" format="1">
  <advance width="613"/>
  <unicode hex="003E"/>
  <outline>
    <contour>
      <point x="435" y="270" type="line" name="hr00"/>
      <point x="461" y="276" type="line"/>
      <point x="436" y="283" type="line"/>
      <point x="106" y="422" type="line"/>
      <point x="122" y="552" type="line"/>
      <point x="611" y="321" type="line"/>
      <point x="600" y="231" type="line"/>
      <point x="55" y="0" type="line"/>
      <point x="71" y="131" type="line"/>
    </contour>
  </outline>
</glyph>
<glyph name="question" format="1">
  <advance width="583"/>
  <unicode hex="003F"/>
  <outline>
    <contour>
      <point x="355" y="737" type="curve" smooth="yes" name="hr00"/>
      <point x="488" y="737"/>
      <point x="576" y="678"/>
      <point x="563" y="574" type="curve" smooth="yes"/>
      <point x="546" y="433"/>
      <point x="344" y="362"/>
      <point x="328" y="230" type="curve"/>
      <point x="210" y="230" type="line"/>
      <point x="232" y="412"/>
      <point x="406" y="460"/>
      <point x="418" y="559" type="curve" smooth="yes"/>
      <point x="424" y="604"/>
      <point x="389" y="633"/>
      <point x="332" y="633" type="curve"/>
      <point x="294" y="633"/>
      <point x="262" y="629"/>
      <point x="194" y="602" type="curve"/>
      <point x="170" y="696" type="line"/>
      <point x="248" y="729"/>
      <point x="300" y="737"/>
    </contour>
    <contour>
      <point x="166" y="68" type="curve" smooth="yes"/>
      <point x="171" y="114"/>
      <point x="212" y="152"/>
      <point x="259" y="152" type="curve" smooth="yes"/>
      <point x="305" y="152"/>
      <point x="336" y="114"/>
      <point x="331" y="68" type="curve" smooth="yes"/>
      <point x="325" y="22"/>
      <point x="285" y="-14"/>
      <point x="239" y="-14" type="curve" smooth="yes"/>
      <point x="192" y="-14"/>
      <point x="160" y="22"/>
    </contour>
  </outline>
</glyph>
<glyph name="at" format="1">
  <advance width="919"/>
  <unicode hex="0040"/>
  <outline>
    <contour>
      <point x="649" y="170" type="line" name="hr00"/>
      <point x="645" y="149" type="line"/>
      <point x="660" y="161" type="line"/>
      <point x="726" y="202"/>
      <point x="761" y="273"/>
      <point x="768" y="328" type="curve" smooth="yes"/>
      <point x="785" y="472"/>
      <point x="687" y="564"/>
      <point x="530" y="564" type="curve" smooth="yes"/>
      <point x="359" y="564"/>
      <point x="228" y="448"/>
      <point x="204" y="257" type="curve" smooth="yes"/>
      <point x="181" y="67"/>
      <point x="284" y="-48"/>
      <point x="441" y="-48" type="curve" smooth="yes"/>
      <point x="499" y="-48"/>
      <point x="542" y="-44"/>
      <point x="627" y="-19" type="curve"/>
      <point x="647" y="-96" type="line"/>
      <point x="548" y="-128"/>
      <point x="496" y="-132"/>
      <point x="430" y="-132" type="curve" smooth="yes"/>
      <point x="226" y="-132"/>
      <point x="73" y="-11"/>
      <point x="106" y="257" type="curve" smooth="yes"/>
      <point x="137" y="506"/>
      <point x="339" y="648"/>
      <point x="541" y="648" type="curve" smooth="yes"/>
      <point x="732" y="648"/>
      <point x="892" y="534"/>
      <point x="867" y="328" type="curve" smooth="yes"/>
      <point x="851" y="196"/>
      <point x="724" y="81"/>
      <point x="574" y="55" type="curve"/>
      <point x="560" y="63"/>
      <point x="556" y="79"/>
      <point x="552" y="96" type="curve"/>
      <point x="553" y="115" type="line"/>
      <point x="540" y="95" type="line"/>
      <point x="496" y="56"/>
      <point x="459" y="47"/>
      <point x="423" y="47" type="curve" smooth="yes"/>
      <point x="342" y="47"/>
      <point x="295" y="91"/>
      <point x="303" y="158" type="curve" smooth="yes"/>
      <point x="313" y="237"/>
      <point x="376" y="280"/>
      <point x="536" y="295" type="curve"/>
      <point x="532" y="277"/>
      <point x="511" y="225"/>
      <point x="470" y="219" type="curve" smooth="yes"/>
      <point x="414" y="211"/>
      <point x="401" y="187"/>
      <point x="398" y="162" type="curve" smooth="yes"/>
      <point x="395" y="136"/>
      <point x="415" y="118"/>
      <point x="452" y="118" type="curve" smooth="yes"/>
      <point x="486" y="118"/>
      <point x="521" y="134"/>
      <point x="557" y="175" type="curve"/>
      <point x="573" y="304" type="line"/>
      <point x="580" y="365"/>
      <point x="549" y="389"/>
      <point x="491" y="389" type="curve" smooth="yes"/>
      <point x="463" y="389"/>
      <point x="440" y="386"/>
      <point x="394" y="372" type="curve"/>
      <point x="376" y="439" type="line"/>
      <point x="433" y="460"/>
      <point x="473" y="466"/>
      <point x="515" y="466" type="curve" smooth="yes"/>
      <point x="624" y="466"/>
      <point x="679" y="410"/>
      <point x="665" y="299" type="curve"/>
    </contour>
  </outline>
</glyph>
<glyph name="A" format="1">
  <advance width="722"/>
  <unicode hex="0041"/>
  <outline>
    <contour>
      <point x="243" y="159" type="line" name="hr00"/>
      <point x="171" y="0" type="line"/>
      <point x="30" y="0" type="line"/>
      <point x="380" y="727" type="line"/>
      <point x="520" y="727" type="line"/>
      <point x="692" y="0" type="line"/>
      <point x="544" y="0" type="line"/>
      <point x="430" y="541" type="line"/>
      <point x="426" y="578" type="line"/>
      <point x="413" y="539" type="line"/>
      <point x="296" y="280" type="line"/>
      <point x="281" y="260" type="line"/>
      <point x="297" y="262" type="line"/>
      <point x="373" y="262" type="line" smooth="yes"/>
      <point x="431" y="262"/>
      <point x="451" y="203"/>
      <point x="460" y="159" type="curve"/>
    </contour>
  </outline>
</glyph>
<glyph name="B" format="1">
  <advance width="677"/>
  <unicode hex="0042"/>
  <outline>
    <contour>
      <point x="363" y="428" type="line"/>
      <point x="432" y="428"/>
      <point x="500" y="471"/>
      <point x="508" y="534" type="curve" smooth="yes"/>
      <point x="514" y="581"/>
      <point x="484" y="639"/>
      <point x="389" y="639" type="curve" smooth="yes"/>
      <point x="353" y="639"/>
      <point x="335" y="637"/>
      <point x="298" y="632" type="curve"/>
      <point x="273" y="428" type="line"/>
    </contour>
    <contour>
      <point x="371" y="90" type="curve" smooth="yes"/>
      <point x="442" y="90"/>
      <point x="499" y="132"/>
      <point x="508" y="206" type="curve" smooth="yes"/>
      <point x="517" y="285"/>
      <point x="451" y="334"/>
      <point x="352" y="334" type="curve" smooth="yes"/>
      <point x="262" y="334" type="line"/>
      <point x="221" y="0" type="line" name="hr01"/>
      <point x="81" y="0" type="line"/>
      <point x="168" y="716" type="line"/>
      <point x="278" y="734"/>
      <point x="329" y="740"/>
      <point x="401" y="740" type="curve" smooth="yes"/>
      <point x="581" y="740"/>
      <point x="667" y="658"/>
      <point x="652" y="535" type="curve"/>
      <point x="646" y="486"/>
      <point x="606" y="433"/>
      <point x="553" y="402" type="curve"/>
      <point x="522" y="388" type="line"/>
      <point x="549" y="381" type="line"/>
      <point x="619" y="355"/>
      <point x="664" y="277"/>
      <point x="655" y="205" type="curve" smooth="yes"/>
      <point x="642" y="102"/>
      <point x="531" y="-11"/>
      <point x="374" y="-11" type="curve" smooth="yes" name="hr02"/>
      <point x="337" y="-11"/>
      <point x="317" y="-8"/>
      <point x="260" y="6" type="curve"/>
      <point x="281" y="41"/>
      <point x="317" y="90"/>
    </contour>
  </outline>
</glyph>
<glyph name="C" format="1">
  <advance width="602"/>
  <unicode hex="0043"/>
  <outline>
    <contour>
      <point x="433" y="-12" type="curve" name="hr00"/>
      <point x="186" y="-12"/>
      <point x="66" y="153"/>
      <point x="92" y="364" type="curve"/>
      <point x="118" y="572"/>
      <point x="284" y="740"/>
      <point x="525" y="740" type="curve" smooth="yes"/>
      <point x="581" y="740"/>
      <point x="637" y="730"/>
      <point x="697" y="706" type="curve"/>
      <point x="650" y="614" type="line"/>
      <point x="593" y="631"/>
      <point x="559" y="637"/>
      <point x="513" y="637" type="curve" smooth="yes"/>
      <point x="354" y="637"/>
      <point x="261" y="502"/>
      <point x="244" y="364" type="curve"/>
      <point x="227" y="226"/>
      <point x="287" y="91"/>
      <point x="446" y="91" type="curve"/>
      <point x="492" y="91"/>
      <point x="537" y="102"/>
      <point x="589" y="125" type="curve"/>
      <point x="615" y="34" type="line"/>
      <point x="552" y="3"/>
      <point x="489" y="-12"/>
    </contour>
  </outline>
</glyph>
<glyph name="D" format="1">
  <advance width="747"/>
  <unicode hex="0044"/>
  <outline>
    <contour>
      <point x="374" y="91" type="curve" smooth="yes"/>
      <point x="527" y="91"/>
      <point x="610" y="231"/>
      <point x="626" y="365" type="curve" smooth="yes"/>
      <point x="646" y="522"/>
      <point x="581" y="637"/>
      <point x="388" y="637" type="curve" smooth="yes"/>
      <point x="362" y="637"/>
      <point x="332" y="634"/>
      <point x="301" y="629" type="curve"/>
      <point x="224" y="0" type="line" name="hr01"/>
      <point x="83" y="0" type="line"/>
      <point x="170" y="714" type="line"/>
      <point x="262" y="733"/>
      <point x="342" y="740"/>
      <point x="400" y="740" type="curve" smooth="yes"/>
      <point x="666" y="740"/>
      <point x="806" y="602"/>
      <point x="777" y="365" type="curve" smooth="yes"/>
      <point x="751" y="154"/>
      <point x="580" y="-12"/>
      <point x="376" y="-12" type="curve" name="hr02"/>
      <point x="339" y="-12"/>
      <point x="318" y="-10"/>
      <point x="262" y="5" type="curve"/>
      <point x="282" y="40"/>
      <point x="319" y="91"/>
    </contour>
  </outline>
</glyph>
<glyph name="E" format="1">
  <advance width="588"/>
  <unicode hex="0045"/>
  <outline>
    <contour>
      <point x="172" y="727" type="line" name="hr00"/>
      <point x="608" y="727" type="line"/>
      <point x="595" y="624" type="line"/>
      <point x="302" y="624" type="line"/>
      <point x="238" y="103" type="line"/>
      <point x="547" y="103" type="line"/>
      <point x="535" y="0" type="line"/>
      <point x="83" y="0" type="line"/>
    </contour>
    <contour>
      <point x="304" y="331" type="line"/>
      <point x="323" y="375"/>
      <point x="359" y="432"/>
      <point x="417" y="432" type="curve"/>
      <point x="538" y="432" type="line"/>
      <point x="525" y="331" type="line"/>
    </contour>
  </outline>
</glyph>
<glyph name="F" format="1">
  <advance width="584"/>
  <unicode hex="0046"/>
  <outline>
    <contour>
      <point x="172" y="727" type="line" name="hr00"/>
      <point x="608" y="727" type="line"/>
      <point x="595" y="624" type="line"/>
      <point x="302" y="624" type="line"/>
      <point x="226" y="0" type="line"/>
      <point x="83" y="0" type="line"/>
    </contour>
    <contour>
      <point x="304" y="331" type="line"/>
      <point x="323" y="375"/>
      <point x="359" y="432"/>
      <point x="417" y="432" type="curve"/>
      <point x="538" y="432" type="line"/>
      <point x="525" y="331" type="line"/>
    </contour>
  </outline>
</glyph>
<glyph name="G" format="1">
  <advance width="724"/>
  <unicode hex="0047"/>
  <outline>
    <contour>
      <point x="519" y="637" type="curve" smooth="yes" name="hr00"/>
      <point x="360" y="637"/>
      <point x="256" y="508"/>
      <point x="238" y="363" type="curve" smooth="yes"/>
      <point x="221" y="225"/>
      <point x="290" y="91"/>
      <point x="449" y="91" type="curve" smooth="yes"/>
      <point x="478" y="91"/>
      <point x="503" y="92"/>
      <point x="546" y="102" type="curve"/>
      <point x="575" y="337" type="line"/>
      <point x="703" y="337" type="line"/>
      <point x="666" y="37" type="line"/>
      <point x="589" y="4"/>
      <point x="492" y="-12"/>
      <point x="436" y="-12" type="curve" smooth="yes"/>
      <point x="189" y="-12"/>
      <point x="60" y="154"/>
      <point x="86" y="363" type="curve" smooth="yes"/>
      <point x="112" y="573"/>
      <point x="287" y="740"/>
      <point x="531" y="740" type="curve" smooth="yes"/>
      <point x="587" y="740"/>
      <point x="665" y="728"/>
      <point x="737" y="696" type="curve"/>
      <point x="688" y="600" type="line"/>
      <point x="617" y="629"/>
      <point x="565" y="637"/>
    </contour>
  </outline>
</glyph>
<glyph name="H" format="1">
  <advance width="764"/>
  <unicode hex="0048"/>
  <outline>
    <contour>
      <point x="304" y="330" type="line" name="hr00"/>
      <point x="322" y="374"/>
      <point x="359" y="433"/>
      <point x="417" y="433" type="curve"/>
      <point x="594" y="433" type="line"/>
      <point x="630" y="727" type="line"/>
      <point x="771" y="727" type="line"/>
      <point x="682" y="0" type="line"/>
      <point x="541" y="0" type="line"/>
      <point x="581" y="330" type="line"/>
    </contour>
    <contour>
      <point x="172" y="727" type="line"/>
      <point x="315" y="727" type="line"/>
      <point x="226" y="0" type="line"/>
      <point x="83" y="0" type="line"/>
    </contour>
  </outline>
</glyph>
<glyph name="I" format="1">
  <advance width="306"/>
  <unicode hex="0049"/>
  <outline>
    <contour>
      <point x="222" y="0" type="line" name="hr00"/>
      <point x="83" y="0" type="line"/>
      <point x="172" y="727" type="line"/>
      <point x="311" y="727" type="line"/>
    </contour>
  </outline>
</glyph>
<glyph name="J" format="1">
  <advance width="369"/>
  <unicode hex="004A"/>
  <outline>
    <contour>
      <point x="305" y="128" type="line" name="hr00"/>
      <point x="282" y="-58"/>
      <point x="193" y="-119"/>
      <point x="26" y="-222" type="curve"/>
      <point x="-27" y="-140" type="line"/>
      <point x="82" y="-58"/>
      <point x="146" y="-10"/>
      <point x="163" y="128" type="curve"/>
      <point x="237" y="727" type="line"/>
      <point x="379" y="727" type="line"/>
    </contour>
  </outline>
</glyph>
<glyph name="K" format="1">
  <advance width="709"/>
  <unicode hex="004B"/>
  <outline>
    <contour>
      <point x="487" y="436" type="line" name="hr00"/>
      <point x="693" y="0" type="line"/>
      <point x="529" y="0" type="line"/>
      <point x="404" y="322" type="line"/>
      <point x="400" y="346" type="line"/>
      <point x="385" y="324" type="line"/>
      <point x="312" y="243" type="line"/>
      <point x="300" y="332"/>
      <point x="342" y="433"/>
      <point x="397" y="497" type="curve" smooth="yes"/>
      <point x="590" y="727" type="line"/>
      <point x="747" y="727" type="line"/>
    </contour>
    <contour>
      <point x="83" y="0" type="line"/>
      <point x="172" y="727" type="line"/>
      <point x="315" y="727" type="line"/>
      <point x="226" y="0" type="line"/>
    </contour>
  </outline>
</glyph>
<glyph name="L" format="1">
  <advance width="531"/>
  <unicode hex="004C"/>
  <outline>
    <contour>
      <point x="171" y="727" type="line" name="hr00"/>
      <point x="315" y="727" type="line"/>
      <point x="238" y="104" type="line"/>
      <point x="500" y="104" type="line"/>
      <point x="488" y="0" type="line"/>
      <point x="82" y="0" type="line"/>
    </contour>
  </outline>
</glyph>
<glyph name="M" format="1">
  <advance width="982"/>
  <unicode hex="004D"/>
  <outline>
    <contour>
      <point x="233" y="727" type="line" name="hr00"/>
      <point x="414" y="727" type="line"/>
      <point x="504" y="166" type="line"/>
      <point x="506" y="130" type="line"/>
      <point x="519" y="166" type="line"/>
      <point x="746" y="727" type="line"/>
      <point x="928" y="727" type="line"/>
      <point x="907" y="0" type="line"/>
      <point x="776" y="0" type="line"/>
      <point x="804" y="548" type="line"/>
      <point x="807" y="596" type="line"/>
      <point x="789" y="548" type="line"/>
      <point x="565" y="10" type="line"/>
      <point x="418" y="10" type="line"/>
      <point x="324" y="549" type="line"/>
      <point x="318" y="596" type="line"/>
      <point x="309" y="549" type="line"/>
      <point x="205" y="0" type="line"/>
      <point x="74" y="0" type="line"/>
    </contour>
  </outline>
</glyph>
<glyph name="N" format="1">
  <advance width="778"/>
  <unicode hex="004E"/>
  <outline>
    <contour>
      <point x="292" y="509" type="line" name="hr00"/>
      <point x="280" y="545" type="line"/>
      <point x="278" y="511" type="line"/>
      <point x="216" y="0" type="line"/>
      <point x="94" y="0" type="line"/>
      <point x="183" y="727" type="line"/>
      <point x="321" y="727" type="line"/>
      <point x="568" y="238" type="line"/>
      <point x="577" y="198" type="line"/>
      <point x="580" y="238" type="line"/>
      <point x="640" y="727" type="line"/>
      <point x="766" y="727" type="line"/>
      <point x="677" y="0" type="line"/>
      <point x="551" y="0" type="line"/>
    </contour>
  </outline>
</glyph>
<glyph name="O" format="1">
  <advance width="789"/>
  <unicode hex="004F"/>
  <outline>
    <contour>
      <point x="483" y="639" type="curve" name="hr00"/>
      <point x="345" y="639"/>
      <point x="257" y="512"/>
      <point x="239" y="364" type="curve"/>
      <point x="222" y="226"/>
      <point x="277" y="89"/>
      <point x="415" y="89" type="curve"/>
      <point x="525" y="89"/>
      <point x="638" y="189"/>
      <point x="659" y="364" type="curve"/>
      <point x="678" y="521"/>
      <point x="615" y="639"/>
    </contour>
    <contour>
      <point x="403" y="-14" type="curve"/>
      <point x="172" y="-14"/>
      <point x="61" y="149"/>
      <point x="87" y="364" type="curve"/>
      <point x="113" y="573"/>
      <point x="267" y="742"/>
      <point x="496" y="742" type="curve"/>
      <point x="757" y="742"/>
      <point x="832" y="541"/>
      <point x="810" y="364" type="curve"/>
      <point x="786" y="168"/>
      <point x="635" y="-14"/>
    </contour>
  </outline>
</glyph>
<glyph name="P" format="1">
  <advance width="643"/>
  <unicode hex="0050"/>
  <outline>
    <contour>
      <point x="659" y="513" type="curve" smooth="yes" name="hr00"/>
      <point x="643" y="380"/>
      <point x="520" y="300"/>
      <point x="400" y="289" type="curve" smooth="yes"/>
      <point x="370" y="286"/>
      <point x="336" y="287"/>
      <point x="300" y="298" type="curve"/>
      <point x="320" y="336"/>
      <point x="352" y="385"/>
      <point x="397" y="389" type="curve" smooth="yes"/>
      <point x="453" y="394"/>
      <point x="505" y="448"/>
      <point x="512" y="513" type="curve"/>
      <point x="521" y="582"/>
      <point x="472" y="638"/>
      <point x="389" y="638" type="curve" smooth="yes"/>
      <point x="353" y="638"/>
      <point x="341" y="636"/>
      <point x="304" y="632" type="curve"/>
      <point x="227" y="0" type="line"/>
      <point x="83" y="0" type="line"/>
      <point x="171" y="718" type="line"/>
      <point x="281" y="736"/>
      <point x="329" y="741"/>
      <point x="401" y="741" type="curve"/>
      <point x="563" y="741"/>
      <point x="677" y="654"/>
    </contour>
  </outline>
</glyph>
<glyph name="Q" format="1">
  <advance width="781"/>
  <unicode hex="0051"/>
  <outline>
    <contour>
      <point x="392" y="-14" type="curve"/>
      <point x="177" y="-14"/>
      <point x="60" y="143"/>
      <point x="87" y="364" type="curve"/>
      <point x="114" y="582"/>
      <point x="275" y="742"/>
      <point x="496" y="742" type="curve"/>
      <point x="721" y="742"/>
      <point x="837" y="584"/>
      <point x="810" y="364" type="curve" smooth="yes"/>
      <point x="799" y="273"/>
      <point x="751" y="183"/>
      <point x="688" y="114" type="curve"/>
      <point x="743" y="50" type="line"/>
      <point x="657" y="-26" type="line" name="hr01"/>
      <point x="441" y="226" type="line"/>
      <point x="527" y="303" type="line"/>
      <point x="597" y="221" type="line"/>
      <point x="607" y="200" type="line"/>
      <point x="616" y="226" type="line"/>
      <point x="639" y="268"/>
      <point x="654" y="319"/>
      <point x="659" y="364" type="curve" smooth="yes"/>
      <point x="677" y="512"/>
      <point x="621" y="639"/>
      <point x="483" y="639" type="curve"/>
      <point x="345" y="639"/>
      <point x="257" y="512"/>
      <point x="239" y="364" type="curve"/>
      <point x="222" y="226"/>
      <point x="277" y="89"/>
      <point x="404" y="89" type="curve" name="hr02"/>
      <point x="413" y="89"/>
      <point x="434" y="91"/>
      <point x="446" y="91" type="curve" smooth="yes"/>
      <point x="490" y="91"/>
      <point x="526" y="58"/>
      <point x="544" y="34" type="curve"/>
      <point x="492" y="2"/>
      <point x="438" y="-14"/>
    </contour>
  </outline>
</glyph>
<glyph name="R" format="1">
  <advance width="684"/>
  <unicode hex="0052"/>
  <outline>
    <contour>
      <point x="660" y="518" type="curve" smooth="yes" name="hr00"/>
      <point x="650" y="439"/>
      <point x="603" y="379"/>
      <point x="540" y="343" type="curve"/>
      <point x="510" y="332" type="line"/>
      <point x="515" y="329"/>
      <point x="526" y="325"/>
      <point x="531" y="321" type="curve" smooth="yes"/>
      <point x="603" y="252"/>
      <point x="584" y="128"/>
      <point x="628" y="0" type="curve"/>
      <point x="481" y="0" type="line"/>
      <point x="446" y="102"/>
      <point x="462" y="241"/>
      <point x="394" y="299" type="curve"/>
      <point x="366" y="297"/>
      <point x="334" y="298"/>
      <point x="301" y="308" type="curve"/>
      <point x="321" y="346"/>
      <point x="353" y="396"/>
      <point x="399" y="400" type="curve" smooth="yes"/>
      <point x="454" y="405"/>
      <point x="505" y="453"/>
      <point x="513" y="518" type="curve" smooth="yes"/>
      <point x="522" y="587"/>
      <point x="467" y="638"/>
      <point x="389" y="638" type="curve" smooth="yes"/>
      <point x="353" y="638"/>
      <point x="341" y="636"/>
      <point x="304" y="632" type="curve"/>
      <point x="227" y="0" type="line"/>
      <point x="83" y="0" type="line"/>
      <point x="171" y="718" type="line"/>
      <point x="281" y="736"/>
      <point x="329" y="741"/>
      <point x="401" y="741" type="curve" smooth="yes"/>
      <point x="558" y="741"/>
      <point x="677" y="659"/>
    </contour>
  </outline>
</glyph>
<glyph name="S" format="1">
  <advance width="577"/>
  <unicode hex="0053"/>
  <outline>
    <contour>
      <point x="367" y="640" type="curve" name="hr00"/>
      <point x="307" y="640"/>
      <point x="264" y="607"/>
      <point x="259" y="562" type="curve" smooth="yes"/>
      <point x="242" y="426"/>
      <point x="582" y="420"/>
      <point x="554" y="188" type="curve" smooth="yes"/>
      <point x="538" y="59"/>
      <point x="426" y="-13"/>
      <point x="274" y="-13" type="curve"/>
      <point x="217" y="-13"/>
      <point x="142" y="0"/>
      <point x="56" y="42" type="curve"/>
      <point x="105" y="135" type="line"/>
      <point x="173" y="101"/>
      <point x="236" y="90"/>
      <point x="287" y="90" type="curve"/>
      <point x="358" y="90"/>
      <point x="415" y="133"/>
      <point x="421" y="185" type="curve" smooth="yes"/>
      <point x="439" y="330"/>
      <point x="100" y="332"/>
      <point x="127" y="550" type="curve" smooth="yes"/>
      <point x="143" y="681"/>
      <point x="251" y="740"/>
      <point x="370" y="740" type="curve"/>
      <point x="431" y="740"/>
      <point x="482" y="734"/>
      <point x="562" y="707" type="curve"/>
      <point x="514" y="616" type="line"/>
      <point x="457" y="633"/>
      <point x="411" y="640"/>
    </contour>
  </outline>
</glyph>
<glyph name="T" format="1">
  <advance width="534"/>
  <unicode hex="0054"/>
  <outline>
    <contour>
      <point x="81" y="624" type="line" name="hr00"/>
      <point x="94" y="727" type="line"/>
      <point x="616" y="727" type="line"/>
      <point x="603" y="624" type="line"/>
      <point x="413" y="624" type="line"/>
      <point x="337" y="0" type="line"/>
      <point x="195" y="0" type="line"/>
      <point x="271" y="624" type="line"/>
    </contour>
  </outline>
</glyph>
<glyph name="U" format="1">
  <advance width="727"/>
  <unicode hex="0055"/>
  <outline>
    <contour>
      <point x="372" y="-14" type="curve" smooth="yes" name="hr00"/>
      <point x="193" y="-14"/>
      <point x="93" y="89"/>
      <point x="117" y="278" type="curve" smooth="yes"/>
      <point x="172" y="727" type="line"/>
      <point x="313" y="727" type="line"/>
      <point x="256" y="263" type="line" smooth="yes"/>
      <point x="242" y="154"/>
      <point x="298" y="89"/>
      <point x="384" y="89" type="curve" smooth="yes"/>
      <point x="469" y="89"/>
      <point x="542" y="154"/>
      <point x="556" y="263" type="curve" smooth="yes"/>
      <point x="613" y="727" type="line"/>
      <point x="753" y="727" type="line"/>
      <point x="698" y="278" type="line" smooth="yes"/>
      <point x="676" y="101"/>
      <point x="551" y="-14"/>
    </contour>
  </outline>
</glyph>
<glyph name="V" format="1">
  <advance width="667"/>
  <unicode hex="0056"/>
  <outline>
    <contour>
      <point x="263" y="0" type="line" name="hr00"/>
      <point x="97" y="727" type="line"/>
      <point x="249" y="727" type="line"/>
      <point x="352" y="175" type="line"/>
      <point x="354" y="137" type="line"/>
      <point x="366" y="174" type="line"/>
      <point x="605" y="727" type="line"/>
      <point x="752" y="727" type="line"/>
      <point x="410" y="0" type="line"/>
    </contour>
  </outline>
</glyph>
<glyph name="W" format="1">
  <advance width="1059"/>
  <unicode hex="0057"/>
  <outline>
    <contour>
      <point x="699" y="717" type="line" name="hr00"/>
      <point x="762" y="194" type="line"/>
      <point x="765" y="138" type="line"/>
      <point x="780" y="192" type="line"/>
      <point x="981" y="727" type="line"/>
      <point x="1117" y="727" type="line"/>
      <point x="823" y="0" type="line"/>
      <point x="682" y="0" type="line"/>
      <point x="605" y="535" type="line"/>
      <point x="601" y="576" type="line"/>
      <point x="588" y="536" type="line"/>
      <point x="381" y="0" type="line"/>
      <point x="237" y="0" type="line"/>
      <point x="120" y="727" type="line"/>
      <point x="259" y="727" type="line"/>
      <point x="328" y="193" type="line"/>
      <point x="329" y="138" type="line"/>
      <point x="347" y="193" type="line"/>
      <point x="542" y="717" type="line"/>
    </contour>
  </outline>
</glyph>
<glyph name="X" format="1">
  <advance width="661"/>
  <unicode hex="0058"/>
  <outline>
    <contour>
      <point x="129" y="727" type="line" name="hr00"/>
      <point x="287" y="727" type="line"/>
      <point x="380" y="488" type="line"/>
      <point x="387" y="457" type="line"/>
      <point x="398" y="488" type="line"/>
      <point x="551" y="727" type="line"/>
      <point x="708" y="727" type="line"/>
      <point x="447" y="368" type="line"/>
      <point x="630" y="0" type="line"/>
      <point x="475" y="0" type="line"/>
    </contour>
    <contour>
      <point x="182" y="0" type="line"/>
      <point x="29" y="0" type="line"/>
      <point x="266" y="325" type="line"/>
      <point x="287" y="291"/>
      <point x="322" y="207"/>
      <point x="280" y="145" type="curve"/>
    </contour>
  </outline>
</glyph>
<glyph name="Y" format="1">
  <advance width="699"/>
  <unicode hex="0059"/>
  <outline>
    <contour>
      <point x="455" y="339" type="line" name="hr00"/>
      <point x="414" y="0" type="line"/>
      <point x="276" y="0" type="line"/>
      <point x="315" y="322" type="line"/>
      <point x="114" y="727" type="line"/>
      <point x="270" y="727" type="line"/>
    </contour>
    <contour>
      <point x="591" y="727" type="line"/>
      <point x="745" y="727" type="line"/>
      <point x="490" y="377" type="line"/>
      <point x="468" y="411"/>
      <point x="434" y="493"/>
      <point x="476" y="557" type="curve"/>
    </contour>
  </outline>
</glyph>
<glyph name="Z" format="1">
  <advance width="612"/>
  <unicode hex="005A"/>
  <outline>
    <contour>
      <point x="167" y="727" type="line" name="hr00"/>
      <point x="673" y="727" type="line"/>
      <point x="666" y="668" type="line"/>
      <point x="242" y="115" type="line"/>
      <point x="224" y="100" type="line"/>
      <point x="247" y="103" type="line"/>
      <point x="605" y="103" type="line"/>
      <point x="593" y="0" type="line"/>
      <point x="47" y="0" type="line"/>
      <point x="54" y="59" type="line"/>
      <point x="477" y="612" type="line"/>
      <point x="495" y="629" type="line"/>
      <point x="470" y="626" type="line"/>
      <point x="154" y="626" type="line"/>
    </contour>
  </outline>
</glyph>
<glyph name="bracketleft" format="1">
  <advance width="447"/>
  <unicode hex="005B"/>
  <outline>
    <contour>
      <point x="216" y="771" type="line" name="hr00"/>
      <point x="519" y="771" type="line"/>
      <point x="506" y="667" type="line"/>
      <point x="335" y="667" type="line"/>
      <point x="242" y="-95" type="line"/>
      <point x="413" y="-95" type="line"/>
      <point x="400" y="-199" type="line"/>
      <point x="97" y="-199" type="line"/>
    </contour>
  </outline>
</glyph>
<glyph name="bracketright" format="1">
  <advance width="447"/>
  <unicode hex="005D"/>
  <outline>
    <contour>
      <point x="318" y="-199" type="line" name="hr00"/>
      <point x="15" y="-199" type="line"/>
      <point x="28" y="-95" type="line"/>
      <point x="199" y="-95" type="line"/>
      <point x="292" y="667" type="line"/>
      <point x="121" y="667" type="line"/>
      <point x="134" y="771" type="line"/>
      <point x="437" y="771" type="line"/>
    </contour>
  </outline>
</glyph>
<glyph name="asciicircum" format="1">
  <advance width="628"/>
  <unicode hex="005E"/>
  <outline>
    <contour>
      <point x="208" y="210" type="line" name="hr00"/>
      <point x="79" y="210" type="line"/>
      <point x="354" y="727" type="line"/>
      <point x="455" y="727" type="line"/>
      <point x="602" y="210" type="line"/>
      <point x="475" y="210" type="line"/>
      <point x="389" y="543" type="line"/>
      <point x="386" y="574" type="line"/>
      <point x="375" y="543" type="line"/>
    </contour>
  </outline>
</glyph>
<glyph name="underscore" format="1">
  <advance width="497"/>
  <unicode hex="005F"/>
  <outline>
    <contour>
      <point x="15" y="-95" type="line" name="hr00"/>
      <point x="27" y="0" type="line"/>
      <point x="470" y="0" type="line"/>
      <point x="458" y="-95" type="line"/>
    </contour>
  </outline>
</glyph>
<glyph name="b" format="1">
  <advance width="610"/>
  <unicode hex="0062"/>
  <outline>
    <contour>
      <point x="387" y="423" type="curve" smooth="yes" name="hr00"/>
      <point x="342" y="418"/>
      <point x="327" y="456"/>
      <point x="309" y="496" type="curve"/>
      <point x="349" y="514"/>
      <point x="391" y="524"/>
      <point x="425" y="526" type="curve" smooth="yes"/>
      <point x="552" y="533"/>
      <point x="616" y="397"/>
      <point x="602" y="277" type="curve" smooth="yes"/>
      <point x="581" y="114"/>
      <point x="460" y="-15"/>
      <point x="291" y="-15" type="curve" smooth="yes"/>
      <point x="218" y="-15"/>
      <point x="154" y="0"/>
      <point x="78" y="42" type="curve"/>
      <point x="166" y="758" type="line"/>
      <point x="304" y="751" type="line"/>
      <point x="224" y="98" type="line"/>
      <point x="254" y="90"/>
      <point x="276" y="88"/>
      <point x="303" y="88" type="curve" smooth="yes"/>
      <point x="381" y="88"/>
      <point x="439" y="167"/>
      <point x="453" y="277" type="curve" smooth="yes"/>
      <point x="460" y="341"/>
      <point x="453" y="429"/>
    </contour>
  </outline>
</glyph>
<glyph name="c" format="1">
  <advance width="430"/>
  <unicode hex="0063"/>
  <outline>
    <contour>
      <point x="361" y="530" type="curve" name="hr00"/>
      <point x="397" y="530"/>
      <point x="441" y="523"/>
      <point x="479" y="508" type="curve"/>
      <point x="433" y="415" type="line"/>
      <point x="402" y="423"/>
      <point x="370" y="427"/>
      <point x="348" y="427" type="curve"/>
      <point x="276" y="427"/>
      <point x="220" y="363"/>
      <point x="207" y="259" type="curve" smooth="yes"/>
      <point x="194" y="154"/>
      <point x="235" y="90"/>
      <point x="307" y="90" type="curve"/>
      <point x="335" y="90"/>
      <point x="365" y="97"/>
      <point x="410" y="114" type="curve"/>
      <point x="433" y="22" type="line"/>
      <point x="378" y="-2"/>
      <point x="330" y="-13"/>
      <point x="294" y="-13" type="curve"/>
      <point x="155" y="-13"/>
      <point x="36" y="67"/>
      <point x="59" y="259" type="curve" smooth="yes"/>
      <point x="82" y="440"/>
      <point x="222" y="530"/>
    </contour>
  </outline>
</glyph>
<glyph name="d" format="1">
  <advance width="619"/>
  <unicode hex="0064"/>
  <outline>
    <contour>
      <point x="259" y="-13" type="curve"/>
      <point x="114" y="-13"/>
      <point x="44" y="104"/>
      <point x="64" y="262" type="curve"/>
      <point x="81" y="403"/>
      <point x="201" y="526"/>
      <point x="316" y="526" type="curve" smooth="yes"/>
      <point x="350" y="526"/>
      <point x="378" y="523"/>
      <point x="428" y="508" type="curve"/>
      <point x="404" y="462"/>
      <point x="376" y="431"/>
      <point x="343" y="428" type="curve" smooth="yes"/>
      <point x="260" y="423"/>
      <point x="223" y="356"/>
      <point x="212" y="262" type="curve"/>
      <point x="200" y="169"/>
      <point x="230" y="90"/>
      <point x="297" y="90" type="curve"/>
      <point x="335" y="90"/>
      <point x="373" y="112"/>
      <point x="421" y="160" type="curve"/>
      <point x="495" y="758" type="line"/>
      <point x="633" y="751" type="line"/>
      <point x="557" y="131" type="line"/>
      <point x="552" y="94"/>
      <point x="551" y="52"/>
      <point x="557" y="5" type="curve"/>
      <point x="449" y="0" type="line" name="hr01"/>
      <point x="433" y="9"/>
      <point x="424" y="28"/>
      <point x="419" y="47" type="curve"/>
      <point x="417" y="70" type="line"/>
      <point x="397" y="48" type="line"/>
      <point x="340" y="1"/>
      <point x="298" y="-13"/>
    </contour>
  </outline>
</glyph>
<glyph name="e" format="1">
  <advance width="564"/>
  <unicode hex="0065"/>
  <outline>
    <contour>
      <point x="426" y="317" type="line" name="hr00"/>
      <point x="442" y="378"/>
      <point x="414" y="433"/>
      <point x="353" y="433" type="curve" smooth="yes"/>
      <point x="298" y="433"/>
      <point x="230" y="386"/>
      <point x="216" y="272" type="curve" smooth="yes"/>
      <point x="202" y="157"/>
      <point x="251" y="90"/>
      <point x="335" y="90" type="curve" smooth="yes"/>
      <point x="381" y="90"/>
      <point x="424" y="101"/>
      <point x="485" y="127" type="curve"/>
      <point x="509" y="34" type="line"/>
      <point x="433" y="0"/>
      <point x="369" y="-13"/>
      <point x="307" y="-13" type="curve" smooth="yes"/>
      <point x="124" y="-13"/>
      <point x="61" y="132"/>
      <point x="77" y="267" type="curve" smooth="yes"/>
      <point x="98" y="432"/>
      <point x="227" y="530"/>
      <point x="372" y="530" type="curve" smooth="yes"/>
      <point x="520" y="530"/>
      <point x="609" y="407"/>
      <point x="529" y="235" type="curve"/>
      <point x="249" y="235" type="line"/>
      <point x="269" y="281"/>
      <point x="303" y="317"/>
      <point x="337" y="317" type="curve"/>
    </contour>
  </outline>
</glyph>
<glyph name="f" format="1">
  <advance width="437"/>
  <unicode hex="0066"/>
  <outline>
    <contour>
      <point x="156" y="418" type="line" name="hr00"/>
      <point x="73" y="418" type="line"/>
      <point x="83" y="497" type="line"/>
      <point x="168" y="517" type="line"/>
      <point x="171" y="545" type="line" smooth="yes"/>
      <point x="188" y="676"/>
      <point x="283" y="763"/>
      <point x="417" y="763" type="curve" smooth="yes"/>
      <point x="450" y="763"/>
      <point x="497" y="756"/>
      <point x="547" y="733" type="curve"/>
      <point x="505" y="644" type="line"/>
      <point x="467" y="655"/>
      <point x="443" y="660"/>
      <point x="420" y="660" type="curve" smooth="yes"/>
      <point x="355" y="660"/>
      <point x="312" y="614"/>
      <point x="303" y="545" type="curve" smooth="yes"/>
      <point x="237" y="0" type="line"/>
      <point x="105" y="0" type="line"/>
    </contour>
    <contour>
      <point x="478" y="517" type="line"/>
      <point x="466" y="418" type="line"/>
      <point x="322" y="418" type="line"/>
      <point x="340" y="462"/>
      <point x="376" y="517"/>
      <point x="434" y="517" type="curve"/>
    </contour>
  </outline>
</glyph>
<glyph name="g" format="1">
  <advance width="591"/>
  <unicode hex="0067"/>
  <outline>
    <contour>
      <point x="219" y="240" type="curve" name="hr00"/>
      <point x="211" y="176"/>
      <point x="216" y="92"/>
      <point x="283" y="97" type="curve" smooth="yes"/>
      <point x="323" y="100"/>
      <point x="340" y="69"/>
      <point x="360" y="32" type="curve"/>
      <point x="321" y="10"/>
      <point x="278" y="-7"/>
      <point x="244" y="-9" type="curve" smooth="yes"/>
      <point x="116" y="-16"/>
      <point x="55" y="121"/>
      <point x="70" y="240" type="curve"/>
      <point x="89" y="399"/>
      <point x="209" y="529"/>
      <point x="387" y="529" type="curve" smooth="yes"/>
      <point x="444" y="529"/>
      <point x="494" y="524"/>
      <point x="590" y="499" type="curve"/>
      <point x="529" y="0" type="line"/>
      <point x="506" y="-183"/>
      <point x="379" y="-250"/>
      <point x="233" y="-250" type="curve" smooth="yes"/>
      <point x="181" y="-250"/>
      <point x="114" y="-242"/>
      <point x="40" y="-208" type="curve"/>
      <point x="86" y="-115" type="line"/>
      <point x="150" y="-142"/>
      <point x="195" y="-150"/>
      <point x="237" y="-150" type="curve" smooth="yes"/>
      <point x="311" y="-150"/>
      <point x="380" y="-103"/>
      <point x="391" y="-11" type="curve"/>
      <point x="444" y="418" type="line"/>
      <point x="419" y="424"/>
      <point x="395" y="426"/>
      <point x="381" y="426" type="curve" smooth="yes"/>
      <point x="290" y="426"/>
      <point x="232" y="350"/>
    </contour>
  </outline>
</glyph>
<glyph name="h" format="1">
  <advance width="608"/>
  <unicode hex="0068"/>
  <outline>
    <contour>
      <point x="73" y="0" type="line" name="hr00"/>
      <point x="166" y="758" type="line"/>
      <point x="304" y="751" type="line"/>
      <point x="212" y="0" type="line"/>
    </contour>
    <contour>
      <point x="441" y="367" type="line"/>
      <point x="445" y="400"/>
      <point x="434" y="424"/>
      <point x="404" y="424" type="curve" smooth="yes"/>
      <point x="392" y="424"/>
      <point x="386" y="420"/>
      <point x="369" y="419" type="curve" smooth="yes"/>
      <point x="339" y="417"/>
      <point x="322" y="450"/>
      <point x="307" y="486" type="curve"/>
      <point x="377" y="523"/>
      <point x="424" y="530"/>
      <point x="461" y="530" type="curve" smooth="yes"/>
      <point x="530" y="530"/>
      <point x="593" y="478"/>
      <point x="580" y="369" type="curve" smooth="yes"/>
      <point x="535" y="0" type="line"/>
      <point x="396" y="0" type="line"/>
    </contour>
  </outline>
</glyph>
<glyph name="i" format="1">
  <advance width="280"/>
  <unicode hex="0069"/>
  <outline>
    <contour>
      <point x="70" y="0" type="line" name="hr00"/>
      <point x="133" y="517" type="line"/>
      <point x="273" y="517" type="line"/>
      <point x="210" y="0" type="line"/>
    </contour>
    <contour>
      <point x="139" y="667" type="curve" smooth="yes"/>
      <point x="145" y="714"/>
      <point x="186" y="751"/>
      <point x="232" y="751" type="curve" smooth="yes"/>
      <point x="278" y="751"/>
      <point x="309" y="714"/>
      <point x="303" y="667" type="curve" smooth="yes"/>
      <point x="298" y="621"/>
      <point x="257" y="585"/>
      <point x="211" y="585" type="curve" smooth="yes"/>
      <point x="165" y="585"/>
      <point x="134" y="621"/>
    </contour>
  </outline>
</glyph>
<glyph name="j" format="1">
  <advance width="295"/>
  <unicode hex="006A"/>
  <outline>
    <contour>
      <point x="227" y="48" type="line"/>
      <point x="212" y="-78"/>
      <point x="159" y="-147"/>
      <point x="-6" y="-249" type="curve"/>
      <point x="-56" y="-176" type="line"/>
      <point x="52" y="-91"/>
      <point x="76" y="-50"/>
      <point x="88" y="48" type="curve" smooth="yes"/>
      <point x="146" y="517" type="line"/>
      <point x="285" y="517" type="line"/>
    </contour>
    <contour>
      <point x="152" y="667" type="curve" smooth="yes"/>
      <point x="158" y="714"/>
      <point x="199" y="751"/>
      <point x="245" y="751" type="curve" smooth="yes" name="hr01"/>
      <point x="292" y="751"/>
      <point x="323" y="714"/>
      <point x="317" y="667" type="curve" smooth="yes"/>
      <point x="312" y="621"/>
      <point x="271" y="585"/>
      <point x="224" y="585" type="curve" smooth="yes"/>
      <point x="178" y="585"/>
      <point x="147" y="621"/>
    </contour>
  </outline>
</glyph>
<glyph name="k" format="1">
  <advance width="624"/>
  <unicode hex="006B"/>
  <outline>
    <contour>
      <point x="212" y="0" type="line" name="hr00"/>
      <point x="73" y="0" type="line"/>
      <point x="166" y="758" type="line"/>
      <point x="304" y="751" type="line"/>
    </contour>
    <contour>
      <point x="448" y="338" type="line"/>
      <point x="606" y="0" type="line"/>
      <point x="452" y="0" type="line"/>
      <point x="362" y="233" type="line"/>
      <point x="358" y="257" type="line"/>
      <point x="342" y="237" type="line"/>
      <point x="281" y="180" type="line"/>
      <point x="277" y="272"/>
      <point x="318" y="349"/>
      <point x="374" y="408" type="curve" smooth="yes"/>
      <point x="477" y="517" type="line"/>
      <point x="630" y="510" type="line"/>
    </contour>
  </outline>
</glyph>
<glyph name="l" format="1">
  <advance width="282"/>
  <unicode hex="006C"/>
  <outline>
    <contour>
      <point x="214" y="0" type="line" name="hr00"/>
      <point x="75" y="0" type="line"/>
      <point x="168" y="758" type="line"/>
      <point x="306" y="751" type="line"/>
    </contour>
  </outline>
</glyph>
<glyph name="m" format="1">
  <advance width="930"/>
  <unicode hex="006D"/>
  <outline>
    <contour>
      <point x="239" y="517" type="line"/>
      <point x="267" y="481"/>
      <point x="269" y="447"/>
      <point x="264" y="407" type="curve" smooth="yes"/>
      <point x="215" y="0" type="line"/>
      <point x="75" y="0" type="line"/>
      <point x="122" y="386" type="line" smooth="yes"/>
      <point x="126" y="423"/>
      <point x="127" y="465"/>
      <point x="122" y="512" type="curve"/>
    </contour>
    <contour>
      <point x="439" y="367" type="line"/>
      <point x="443" y="400"/>
      <point x="436" y="424"/>
      <point x="402" y="424" type="curve" smooth="yes"/>
      <point x="390" y="424"/>
      <point x="378" y="420"/>
      <point x="362" y="419" type="curve" smooth="yes" name="hr01"/>
      <point x="330" y="417"/>
      <point x="310" y="452"/>
      <point x="296" y="488" type="curve"/>
      <point x="372" y="517"/>
      <point x="417" y="530"/>
      <point x="464" y="530" type="curve" smooth="yes"/>
      <point x="533" y="530"/>
      <point x="592" y="478"/>
      <point x="579" y="369" type="curve" smooth="yes"/>
      <point x="534" y="0" type="line"/>
      <point x="394" y="0" type="line"/>
    </contour>
    <contour>
      <point x="758" y="367" type="line"/>
      <point x="762" y="400"/>
      <point x="752" y="424"/>
      <point x="715" y="424" type="curve" smooth="yes"/>
      <point x="703" y="424"/>
      <point x="688" y="419"/>
      <point x="671" y="418" type="curve" smooth="yes"/>
      <point x="639" y="416"/>
      <point x="617" y="451"/>
      <point x="603" y="487" type="curve"/>
      <point x="680" y="517"/>
      <point x="728" y="530"/>
      <point x="775" y="530" type="curve" smooth="yes"/>
      <point x="844" y="530"/>
      <point x="910" y="478"/>
      <point x="897" y="369" type="curve" smooth="yes"/>
      <point x="852" y="0" type="line"/>
      <point x="713" y="0" type="line"/>
    </contour>
  </outline>
</glyph>
<glyph name="n" format="1">
  <advance width="578"/>
  <unicode hex="006E"/>
  <outline>
    <contour>
      <point x="216" y="517" type="line"/>
      <point x="244" y="481"/>
      <point x="247" y="447"/>
      <point x="242" y="407" type="curve" smooth="yes"/>
      <point x="193" y="0" type="line"/>
      <point x="53" y="0" type="line"/>
      <point x="100" y="386" type="line" smooth="yes"/>
      <point x="104" y="423"/>
      <point x="104" y="465"/>
      <point x="99" y="512" type="curve"/>
    </contour>
    <contour>
      <point x="421" y="367" type="line"/>
      <point x="425" y="400"/>
      <point x="416" y="424"/>
      <point x="382" y="424" type="curve" smooth="yes"/>
      <point x="369" y="424"/>
      <point x="358" y="419"/>
      <point x="339" y="418" type="curve" name="hr01"/>
      <point x="307" y="416"/>
      <point x="291" y="452"/>
      <point x="276" y="484" type="curve"/>
      <point x="346" y="519"/>
      <point x="395" y="530"/>
      <point x="441" y="530" type="curve" smooth="yes"/>
      <point x="510" y="530"/>
      <point x="573" y="478"/>
      <point x="560" y="369" type="curve" smooth="yes"/>
      <point x="515" y="0" type="line"/>
      <point x="376" y="0" type="line"/>
    </contour>
  </outline>
</glyph>
<glyph name="o" format="1">
  <advance width="610"/>
  <unicode hex="006F"/>
  <outline>
    <contour>
      <point x="601" y="259" type="curve" name="hr00"/>
      <point x="580" y="89"/>
      <point x="432" y="-13"/>
      <point x="300" y="-13" type="curve"/>
      <point x="159" y="-13"/>
      <point x="44" y="85"/>
      <point x="65" y="259" type="curve"/>
      <point x="88" y="447"/>
      <point x="252" y="530"/>
      <point x="367" y="530" type="curve"/>
      <point x="526" y="530"/>
      <point x="621" y="418"/>
    </contour>
    <contour>
      <point x="312" y="89" type="curve"/>
      <point x="390" y="89"/>
      <point x="441" y="165"/>
      <point x="452" y="259" type="curve" smooth="yes"/>
      <point x="464" y="352"/>
      <point x="432" y="428"/>
      <point x="354" y="428" type="curve" smooth="yes"/>
      <point x="276" y="428"/>
      <point x="225" y="352"/>
      <point x="213" y="259" type="curve"/>
      <point x="201" y="159"/>
      <point x="239" y="89"/>
    </contour>
  </outline>
</glyph>
<glyph name="p" format="1">
  <advance width="621"/>
  <unicode hex="0070"/>
  <outline>
    <contour>
      <point x="418" y="530" type="curve"/>
      <point x="562" y="530"/>
      <point x="632" y="413"/>
      <point x="613" y="255" type="curve"/>
      <point x="595" y="114"/>
      <point x="475" y="-9"/>
      <point x="360" y="-9" type="curve" smooth="yes"/>
      <point x="326" y="-9"/>
      <point x="299" y="-6"/>
      <point x="249" y="9" type="curve"/>
      <point x="272" y="55"/>
      <point x="299" y="87"/>
      <point x="332" y="89" type="curve" smooth="yes"/>
      <point x="416" y="94"/>
      <point x="453" y="161"/>
      <point x="465" y="255" type="curve"/>
      <point x="476" y="348"/>
      <point x="446" y="427"/>
      <point x="380" y="427" type="curve"/>
      <point x="341" y="427"/>
      <point x="302" y="405"/>
      <point x="255" y="357" type="curve"/>
      <point x="182" y="-241" type="line"/>
      <point x="44" y="-234" type="line"/>
      <point x="120" y="386" type="line"/>
      <point x="124" y="423"/>
      <point x="125" y="465"/>
      <point x="120" y="512" type="curve"/>
      <point x="228" y="517" type="line" name="hr01"/>
      <point x="244" y="507"/>
      <point x="253" y="486"/>
      <point x="259" y="466" type="curve"/>
      <point x="259" y="446" type="line"/>
      <point x="277" y="466" type="line"/>
      <point x="336" y="515"/>
      <point x="378" y="530"/>
    </contour>
  </outline>
</glyph>
<glyph name="q" format="1">
  <advance width="605"/>
  <unicode hex="0071"/>
  <outline>
    <contour>
      <point x="289" y="97" type="curve" smooth="yes" name="hr00"/>
      <point x="328" y="100"/>
      <point x="345" y="69"/>
      <point x="366" y="32" type="curve"/>
      <point x="326" y="10"/>
      <point x="283" y="-7"/>
      <point x="249" y="-9" type="curve" smooth="yes"/>
      <point x="122" y="-16"/>
      <point x="60" y="121"/>
      <point x="75" y="240" type="curve" smooth="yes"/>
      <point x="94" y="399"/>
      <point x="214" y="529"/>
      <point x="393" y="529" type="curve" smooth="yes"/>
      <point x="449" y="529"/>
      <point x="499" y="524"/>
      <point x="596" y="499" type="curve"/>
      <point x="505" y="-241" type="line"/>
      <point x="370" y="-234" type="line"/>
      <point x="450" y="418" type="line"/>
      <point x="424" y="424"/>
      <point x="400" y="426"/>
      <point x="386" y="426" type="curve" smooth="yes"/>
      <point x="295" y="426"/>
      <point x="237" y="350"/>
      <point x="224" y="240" type="curve" smooth="yes"/>
      <point x="216" y="176"/>
      <point x="221" y="92"/>
    </contour>
  </outline>
</glyph>
<glyph name="r" format="1">
  <advance width="391"/>
  <unicode hex="0072"/>
  <outline>
    <contour>
      <point x="219" y="517" type="line"/>
      <point x="229" y="508"/>
      <point x="240" y="477"/>
      <point x="241" y="443" type="curve"/>
      <point x="240" y="419" type="line"/>
      <point x="253" y="443" type="line"/>
      <point x="286" y="496"/>
      <point x="337" y="527"/>
      <point x="380" y="527" type="curve" smooth="yes" name="hr01"/>
      <point x="401" y="527"/>
      <point x="421" y="523"/>
      <point x="444" y="515" type="curve"/>
      <point x="414" y="402" type="line"/>
      <point x="388" y="410"/>
      <point x="372" y="412"/>
      <point x="356" y="412" type="curve" smooth="yes"/>
      <point x="288" y="412"/>
      <point x="238" y="340"/>
      <point x="226" y="241" type="curve" smooth="yes"/>
      <point x="197" y="0" type="line"/>
      <point x="66" y="0" type="line"/>
      <point x="113" y="386" type="line" smooth="yes" name="hr02"/>
      <point x="117" y="423"/>
      <point x="118" y="465"/>
      <point x="112" y="512" type="curve"/>
    </contour>
  </outline>
</glyph>
<glyph name="s" format="1">
  <advance width="436"/>
  <unicode hex="0073"/>
  <outline>
    <contour>
      <point x="77" y="125" type="line" name="hr00"/>
      <point x="136" y="101"/>
      <point x="182" y="93"/>
      <point x="224" y="93" type="curve" smooth="yes"/>
      <point x="273" y="93"/>
      <point x="298" y="118"/>
      <point x="301" y="143" type="curve" smooth="yes"/>
      <point x="312" y="232"/>
      <point x="68" y="219"/>
      <point x="88" y="377" type="curve" smooth="yes"/>
      <point x="96" y="441"/>
      <point x="154" y="526"/>
      <point x="291" y="526" type="curve" smooth="yes"/>
      <point x="336" y="526"/>
      <point x="379" y="521"/>
      <point x="441" y="500" type="curve"/>
      <point x="398" y="410" type="line"/>
      <point x="348" y="424"/>
      <point x="322" y="427"/>
      <point x="288" y="427" type="curve" smooth="yes"/>
      <point x="250" y="427"/>
      <point x="224" y="411"/>
      <point x="221" y="383" type="curve" smooth="yes"/>
      <point x="210" y="298"/>
      <point x="453" y="303"/>
      <point x="434" y="148" type="curve" smooth="yes"/>
      <point x="422" y="51"/>
      <point x="327" y="-10"/>
      <point x="234" y="-10" type="curve" smooth="yes"/>
      <point x="182" y="-10"/>
      <point x="118" y="-5"/>
      <point x="33" y="32" type="curve"/>
    </contour>
  </outline>
</glyph>
<glyph name="t" format="1">
  <advance width="455"/>
  <unicode hex="0074"/>
  <outline>
    <contour>
      <point x="155" y="418" type="line" name="hr00"/>
      <point x="72" y="418" type="line"/>
      <point x="82" y="497" type="line"/>
      <point x="167" y="517" type="line"/>
      <point x="182" y="640" type="line"/>
      <point x="319" y="683" type="line"/>
      <point x="260" y="198" type="line" smooth="yes"/>
      <point x="251" y="130"/>
      <point x="278" y="90"/>
      <point x="325" y="90" type="curve" smooth="yes"/>
      <point x="344" y="90"/>
      <point x="368" y="93"/>
      <point x="403" y="105" type="curve"/>
      <point x="421" y="14" type="line"/>
      <point x="369" y="-3"/>
      <point x="331" y="-13"/>
      <point x="298" y="-13" type="curve" smooth="yes"/>
      <point x="171" y="-13"/>
      <point x="111" y="62"/>
      <point x="128" y="198" type="curve"/>
    </contour>
    <contour>
      <point x="421" y="418" type="line"/>
      <point x="363" y="418"/>
      <point x="341" y="473"/>
      <point x="333" y="517" type="curve"/>
      <point x="478" y="517" type="line"/>
      <point x="466" y="418" type="line"/>
    </contour>
  </outline>
</glyph>
<glyph name="u" format="1">
  <advance width="613"/>
  <unicode hex="0075"/>
  <outline>
    <contour>
      <point x="427" y="0" type="line"/>
      <point x="400" y="36"/>
      <point x="396" y="70"/>
      <point x="401" y="110" type="curve" smooth="yes"/>
      <point x="451" y="517" type="line"/>
      <point x="591" y="517" type="line"/>
      <point x="544" y="131" type="line" smooth="yes"/>
      <point x="539" y="94"/>
      <point x="539" y="52"/>
      <point x="545" y="5" type="curve"/>
    </contour>
    <contour>
      <point x="223" y="150" type="line"/>
      <point x="219" y="117"/>
      <point x="228" y="93"/>
      <point x="262" y="93" type="curve" smooth="yes"/>
      <point x="275" y="93"/>
      <point x="286" y="98"/>
      <point x="305" y="99" type="curve" name="hr01"/>
      <point x="336" y="101"/>
      <point x="352" y="65"/>
      <point x="368" y="33" type="curve"/>
      <point x="297" y="-2"/>
      <point x="249" y="-13"/>
      <point x="203" y="-13" type="curve" smooth="yes"/>
      <point x="134" y="-13"/>
      <point x="70" y="39"/>
      <point x="84" y="148" type="curve" smooth="yes"/>
      <point x="129" y="517" type="line"/>
      <point x="268" y="517" type="line"/>
    </contour>
  </outline>
</glyph>
<glyph name="w" format="1">
  <advance width="872"/>
  <unicode hex="0077"/>
  <outline>
    <contour>
      <point x="534" y="0" type="line" name="hr00"/>
      <point x="414" y="517" type="line"/>
      <point x="562" y="517" type="line"/>
      <point x="621" y="151" type="line"/>
      <point x="624" y="121" type="line"/>
      <point x="635" y="151" type="line"/>
      <point x="783" y="517" type="line"/>
      <point x="924" y="510" type="line"/>
      <point x="683" y="0" type="line"/>
    </contour>
    <contour>
      <point x="348" y="0" type="line"/>
      <point x="202" y="0" type="line"/>
      <point x="83" y="517" type="line"/>
      <point x="230" y="517" type="line"/>
      <point x="289" y="151" type="line"/>
      <point x="292" y="121" type="line"/>
      <point x="303" y="151" type="line"/>
      <point x="401" y="347" type="line"/>
      <point x="426" y="289"/>
      <point x="442" y="173"/>
      <point x="395" y="87" type="curve"/>
    </contour>
  </outline>
</glyph>
<glyph name="x" format="1">
  <advance width="514"/>
  <unicode hex="0078"/>
  <outline>
    <contour>
      <point x="74" y="517" type="line" name="hr00"/>
      <point x="233" y="517" type="line"/>
      <point x="293" y="372" type="line"/>
      <point x="297" y="351" type="line"/>
      <point x="307" y="372" type="line"/>
      <point x="404" y="517" type="line"/>
      <point x="550" y="510" type="line"/>
      <point x="353" y="256" type="line"/>
      <point x="503" y="0" type="line"/>
      <point x="347" y="0" type="line"/>
      <point x="306" y="83"/>
      <point x="261" y="167"/>
      <point x="216" y="250" type="curve"/>
    </contour>
    <contour>
      <point x="153" y="0" type="line"/>
      <point x="2" y="0" type="line"/>
      <point x="183" y="220" type="line"/>
      <point x="205" y="188"/>
      <point x="233" y="125"/>
      <point x="198" y="68" type="curve"/>
    </contour>
  </outline>
</glyph>
<glyph name="y" format="1">
  <advance width="600"/>
  <unicode hex="0079"/>
  <outline>
    <contour>
      <point x="109" y="-146" type="curve" name="hr00"/>
      <point x="179" y="-146"/>
      <point x="211" y="-82"/>
      <point x="265" y="37" type="curve"/>
      <point x="472" y="517" type="line"/>
      <point x="611" y="510" type="line"/>
      <point x="370" y="11" type="line"/>
      <point x="282" y="-161"/>
      <point x="233" y="-248"/>
      <point x="96" y="-248" type="curve"/>
      <point x="69" y="-247"/>
      <point x="38" y="-243"/>
      <point x="7" y="-229" type="curve"/>
      <point x="50" y="-139" type="line"/>
      <point x="73" y="-145"/>
      <point x="90" y="-146"/>
    </contour>
    <contour>
      <point x="269" y="281" type="line"/>
      <point x="285" y="194"/>
      <point x="243" y="70"/>
      <point x="202" y="13" type="curve"/>
      <point x="78" y="517" type="line"/>
      <point x="228" y="517" type="line"/>
    </contour>
  </outline>
</glyph>
<glyph name="z" format="1">
  <advance width="474"/>
  <unicode hex="007A"/>
  <outline>
    <contour>
      <point x="120" y="517" type="line" name="hr00"/>
      <point x="496" y="517" type="line"/>
      <point x="489" y="458" type="line"/>
      <point x="219" y="112" type="line"/>
      <point x="202" y="95" type="line"/>
      <point x="225" y="98" type="line"/>
      <point x="447" y="98" type="line"/>
      <point x="435" y="0" type="line"/>
      <point x="30" y="0" type="line"/>
      <point x="37" y="59" type="line"/>
      <point x="308" y="407" type="line"/>
      <point x="326" y="424" type="line"/>
      <point x="304" y="421" type="line"/>
      <point x="108" y="421" type="line"/>
    </contour>
  </outline>
</glyph>
<glyph name="braceleft" format="1">
  <advance width="403"/>
  <unicode hex="007B"/>
  <outline>
    <contour>
      <point x="214" y="425" type="curve" name="hr00"/>
      <point x="246" y="593"/>
      <point x="301" y="685"/>
      <point x="433" y="767" type="curve"/>
      <point x="491" y="702" type="line"/>
      <point x="397" y="627"/>
      <point x="362" y="563"/>
      <point x="337" y="439" type="curve"/>
      <point x="327" y="384"/>
      <point x="292" y="342"/>
      <point x="247" y="314" type="curve"/>
      <point x="222" y="303" type="line"/>
      <point x="243" y="293" type="line"/>
      <point x="283" y="265"/>
      <point x="307" y="223"/>
      <point x="304" y="168" type="curve"/>
      <point x="296" y="35"/>
      <point x="315" y="-35"/>
      <point x="391" y="-110" type="curve"/>
      <point x="317" y="-176" type="line"/>
      <point x="201" y="-91"/>
      <point x="171" y="7"/>
      <point x="182" y="187" type="curve"/>
      <point x="184" y="234"/>
      <point x="146" y="261"/>
      <point x="96" y="270" type="curve"/>
      <point x="104" y="342" type="line"/>
      <point x="157" y="351"/>
      <point x="204" y="378"/>
    </contour>
  </outline>
</glyph>
<glyph name="bar" format="1">
  <advance width="317"/>
  <unicode hex="007C"/>
  <outline>
    <contour>
      <point x="79" y="-293" type="line" name="hr00"/>
      <point x="214" y="811" type="line"/>
      <point x="340" y="811" type="line"/>
      <point x="205" y="-293" type="line"/>
    </contour>
  </outline>
</glyph>
<glyph name="braceright" format="1">
  <advance width="428"/>
  <unicode hex="007D"/>
  <outline>
    <contour>
      <point x="371" y="425" type="curve" name="hr00"/>
      <point x="369" y="378"/>
      <point x="410" y="351"/>
      <point x="459" y="342" type="curve"/>
      <point x="451" y="270" type="line"/>
      <point x="399" y="261"/>
      <point x="353" y="234"/>
      <point x="343" y="187" type="curve"/>
      <point x="310" y="7"/>
      <point x="256" y="-91"/>
      <point x="120" y="-176" type="curve"/>
      <point x="62" y="-110" type="line"/>
      <point x="156" y="-35"/>
      <point x="193" y="35"/>
      <point x="217" y="168" type="curve"/>
      <point x="228" y="223"/>
      <point x="262" y="264"/>
      <point x="307" y="292" type="curve"/>
      <point x="334" y="303" type="line"/>
      <point x="309" y="314" type="line"/>
      <point x="270" y="342"/>
      <point x="248" y="384"/>
      <point x="250" y="439" type="curve"/>
      <point x="257" y="563"/>
      <point x="236" y="627"/>
      <point x="162" y="702" type="curve"/>
      <point x="236" y="767" type="line"/>
      <point x="348" y="685"/>
      <point x="379" y="593"/>
    </contour>
  </outline>
</glyph>
<glyph name="asciitilde" format="1">
  <advance width="614"/>
  <unicode hex="007E"/>
  <outline>
    <contour>
      <point x="91" y="236" type="line"/>
      <point x="107" y="338"/>
      <point x="191" y="395"/>
      <point x="267" y="396" type="curve"/>
      <point x="360" y="396"/>
      <point x="397" y="324"/>
      <point x="444" y="324" type="curve" smooth="yes" name="hr01"/>
      <point x="471" y="324"/>
      <point x="491" y="349"/>
      <point x="501" y="385" type="curve"/>
      <point x="615" y="377" type="line"/>
      <point x="595" y="263"/>
      <point x="507" y="217"/>
      <point x="447" y="217" type="curve" smooth="yes"/>
      <point x="341" y="217"/>
      <point x="323" y="289"/>
      <point x="271" y="289" type="curve" smooth="yes" name="hr02"/>
      <point x="249" y="289"/>
      <point x="219" y="274"/>
      <point x="208" y="228" type="curve"/>
    </contour>
  </outline>
</glyph>
<glyph name="exclamdown" format="1">
  <advance width="351"/>
  <unicode hex="00A1"/>
  <outline>
    <contour>
      <point x="21" y="-210" type="line" name="hr00"/>
      <point x="101" y="287" type="line"/>
      <point x="201" y="287" type="line"/>
      <point x="161" y="-210" type="line"/>
    </contour>
    <contour>
      <point x="87" y="449" type="curve"/>
      <point x="92" y="495"/>
      <point x="133" y="531"/>
      <point x="180" y="531" type="curve" smooth="yes"/>
      <point x="226" y="531"/>
      <point x="257" y="495"/>
      <point x="252" y="449" type="curve" smooth="yes"/>
      <point x="246" y="403"/>
      <point x="205" y="365"/>
      <point x="159" y="365" type="curve" smooth="yes"/>
      <point x="112" y="365"/>
      <point x="81" y="403"/>
    </contour>
  </outline>
</glyph>
<glyph name="cent" format="1">
  <advance width="427"/>
  <unicode hex="00A2"/>
  <outline>
    <contour>
      <point x="403" y="624" type="line" name="hr00"/>
      <point x="432" y="621"/>
      <point x="463" y="615"/>
      <point x="491" y="604" type="curve"/>
      <point x="445" y="511" type="line"/>
      <point x="414" y="519"/>
      <point x="382" y="523"/>
      <point x="360" y="523" type="curve" smooth="yes"/>
      <point x="288" y="523"/>
      <point x="232" y="459"/>
      <point x="219" y="355" type="curve" smooth="yes"/>
      <point x="206" y="250"/>
      <point x="246" y="186"/>
      <point x="318" y="186" type="curve" smooth="yes"/>
      <point x="346" y="186"/>
      <point x="377" y="193"/>
      <point x="422" y="210" type="curve"/>
      <point x="445" y="118" type="line"/>
      <point x="405" y="100"/>
      <point x="368" y="90"/>
      <point x="337" y="85" type="curve"/>
      <point x="325" y="-14" type="line"/>
      <point x="227" y="-14" type="line"/>
      <point x="239" y="89" type="line"/>
      <point x="131" y="112"/>
      <point x="51" y="194"/>
      <point x="71" y="355" type="curve" smooth="yes"/>
      <point x="90" y="506"/>
      <point x="190" y="594"/>
      <point x="304" y="618" type="curve"/>
      <point x="316" y="716" type="line"/>
      <point x="414" y="716" type="line"/>
    </contour>
  </outline>
</glyph>
<glyph name="sterling" format="1">
  <advance width="513"/>
  <unicode hex="00A3"/>
  <outline>
    <contour>
      <point x="303" y="197" type="curve" name="hr00"/>
      <point x="293" y="168"/>
      <point x="282" y="152"/>
      <point x="264" y="130" type="curve"/>
      <point x="244" y="110" type="line"/>
      <point x="266" y="112" type="line"/>
      <point x="496" y="112" type="line"/>
      <point x="483" y="0" type="line"/>
      <point x="34" y="0" type="line"/>
      <point x="43" y="76" type="line"/>
      <point x="119" y="112"/>
      <point x="177" y="169"/>
      <point x="186" y="242" type="curve" smooth="yes"/>
      <point x="189" y="262"/>
      <point x="190" y="280"/>
      <point x="191" y="305" type="curve"/>
      <point x="92" y="305" type="line"/>
      <point x="104" y="402" type="line"/>
      <point x="187" y="402" type="line"/>
      <point x="186" y="433"/>
      <point x="186" y="470"/>
      <point x="191" y="512" type="curve" smooth="yes"/>
      <point x="208" y="647"/>
      <point x="314" y="712"/>
      <point x="452" y="712" type="curve"/>
      <point x="499" y="712"/>
      <point x="549" y="703"/>
      <point x="607" y="675" type="curve"/>
      <point x="561" y="580" type="line"/>
      <point x="513" y="601"/>
      <point x="467" y="608"/>
      <point x="439" y="608" type="curve" smooth="yes"/>
      <point x="374" y="608"/>
      <point x="332" y="575"/>
      <point x="324" y="511" type="curve" smooth="yes"/>
      <point x="309" y="390"/>
      <point x="335" y="296"/>
    </contour>
    <contour>
      <point x="439" y="305" type="line"/>
      <point x="379" y="305"/>
      <point x="365" y="359"/>
      <point x="356" y="402" type="curve"/>
      <point x="517" y="402" type="line"/>
      <point x="505" y="305" type="line"/>
    </contour>
  </outline>
</glyph>
<glyph name="currency" format="1">
  <advance width="513"/>
  <unicode hex="00A4"/>
  <outline>
    <contour>
      <point x="399" y="340" type="curve" name="hr00"/>
      <point x="408" y="409"/>
      <point x="369" y="470"/>
      <point x="312" y="470" type="curve"/>
      <point x="258" y="470"/>
      <point x="203" y="418"/>
      <point x="193" y="340" type="curve"/>
      <point x="184" y="262"/>
      <point x="226" y="210"/>
      <point x="280" y="210" type="curve" smooth="yes"/>
      <point x="337" y="210"/>
      <point x="391" y="271"/>
    </contour>
    <contour>
      <point x="485" y="341" type="curve"/>
      <point x="479" y="293"/>
      <point x="460" y="249"/>
      <point x="441" y="226" type="curve"/>
      <point x="511" y="153" type="line"/>
      <point x="455" y="100" type="line"/>
      <point x="386" y="171" type="line"/>
      <point x="361" y="152"/>
      <point x="319" y="136"/>
      <point x="272" y="136" type="curve" smooth="yes"/>
      <point x="228" y="136"/>
      <point x="193" y="151"/>
      <point x="169" y="170" type="curve"/>
      <point x="87" y="99" type="line"/>
      <point x="40" y="155" type="line"/>
      <point x="126" y="226" type="line"/>
      <point x="112" y="249"/>
      <point x="100" y="289"/>
      <point x="106" y="341" type="curve"/>
      <point x="113" y="391"/>
      <point x="134" y="431"/>
      <point x="154" y="454" type="curve"/>
      <point x="85" y="525" type="line"/>
      <point x="146" y="581" type="line"/>
      <point x="211" y="510" type="line"/>
      <point x="239" y="529"/>
      <point x="278" y="544"/>
      <point x="322" y="544" type="curve" smooth="yes"/>
      <point x="369" y="544"/>
      <point x="407" y="528"/>
      <point x="428" y="509" type="curve"/>
      <point x="514" y="580" type="line"/>
      <point x="557" y="527" type="line"/>
      <point x="469" y="454" type="line"/>
      <point x="482" y="431"/>
      <point x="491" y="389"/>
    </contour>
  </outline>
</glyph>
<glyph name="yen" format="1">
  <advance width="660"/>
  <unicode hex="00A5"/>
  <outline>
    <contour>
      <point x="434" y="339" type="line" name="hr00"/>
      <point x="432" y="319" type="line"/>
      <point x="575" y="319" type="line"/>
      <point x="566" y="252" type="line"/>
      <point x="423" y="252" type="line"/>
      <point x="416" y="195" type="line"/>
      <point x="559" y="195" type="line"/>
      <point x="551" y="128" type="line"/>
      <point x="408" y="128" type="line"/>
      <point x="393" y="0" type="line"/>
      <point x="255" y="0" type="line"/>
      <point x="270" y="128" type="line"/>
      <point x="126" y="128" type="line"/>
      <point x="134" y="195" type="line"/>
      <point x="278" y="195" type="line"/>
      <point x="285" y="252" type="line"/>
      <point x="141" y="252" type="line"/>
      <point x="150" y="319" type="line"/>
      <point x="294" y="319" type="line"/>
      <point x="294" y="322" type="line"/>
      <point x="93" y="727" type="line"/>
      <point x="249" y="727" type="line"/>
    </contour>
    <contour>
      <point x="570" y="727" type="line"/>
      <point x="724" y="727" type="line"/>
      <point x="469" y="377" type="line"/>
      <point x="447" y="411"/>
      <point x="413" y="493"/>
      <point x="455" y="557" type="curve"/>
    </contour>
  </outline>
</glyph>
<glyph name="brokenbar" format="1">
  <advance width="254"/>
  <unicode hex="00A6"/>
  <outline>
    <contour>
      <point x="115" y="387" type="line" name="hr00"/>
      <point x="167" y="811" type="line"/>
      <point x="293" y="811" type="line"/>
      <point x="241" y="387" type="line"/>
    </contour>
    <contour>
      <point x="32" y="-293" type="line"/>
      <point x="85" y="141" type="line"/>
      <point x="211" y="141" type="line"/>
      <point x="158" y="-293" type="line"/>
    </contour>
  </outline>
</glyph>
<glyph name="section" format="1">
  <advance width="500"/>
  <unicode hex="00A7"/>
  <outline>
    <contour>
      <point x="511" y="325" type="curve" smooth="yes" name="hr00"/>
      <point x="506" y="283"/>
      <point x="478" y="248"/>
      <point x="438" y="224" type="curve"/>
      <point x="414" y="214" type="line"/>
      <point x="432" y="203" type="line"/>
      <point x="461" y="176"/>
      <point x="480" y="142"/>
      <point x="474" y="94" type="curve" smooth="yes"/>
      <point x="463" y="7"/>
      <point x="360" y="-51"/>
      <point x="245" y="-51" type="curve" smooth="yes"/>
      <point x="200" y="-51"/>
      <point x="104" y="-43"/>
      <point x="35" y="-9" type="curve"/>
      <point x="81" y="75" type="line"/>
      <point x="137" y="52"/>
      <point x="195" y="40"/>
      <point x="244" y="40" type="curve" smooth="yes"/>
      <point x="301" y="40"/>
      <point x="349" y="55"/>
      <point x="354" y="93" type="curve" smooth="yes"/>
      <point x="367" y="201"/>
      <point x="64" y="179"/>
      <point x="86" y="352" type="curve" smooth="yes"/>
      <point x="90" y="390"/>
      <point x="124" y="428"/>
      <point x="166" y="454" type="curve"/>
      <point x="188" y="463" type="line"/>
      <point x="170" y="473" type="line"/>
      <point x="137" y="500"/>
      <point x="117" y="535"/>
      <point x="123" y="585" type="curve" smooth="yes"/>
      <point x="133" y="661"/>
      <point x="223" y="720"/>
      <point x="338" y="720" type="curve" smooth="yes"/>
      <point x="383" y="720"/>
      <point x="436" y="714"/>
      <point x="501" y="694" type="curve"/>
      <point x="455" y="610" type="line"/>
      <point x="406" y="624"/>
      <point x="372" y="629"/>
      <point x="339" y="629" type="curve" smooth="yes"/>
      <point x="282" y="629"/>
      <point x="247" y="614"/>
      <point x="243" y="586" type="curve" smooth="yes"/>
      <point x="230" y="478"/>
      <point x="533" y="498"/>
    </contour>
    <contour>
      <point x="396" y="330" type="curve" smooth="yes"/>
      <point x="401" y="372"/>
      <point x="330" y="392"/>
      <point x="259" y="422" type="curve"/>
      <point x="223" y="401"/>
      <point x="206" y="384"/>
      <point x="202" y="357" type="curve" smooth="yes"/>
      <point x="196" y="309"/>
      <point x="271" y="288"/>
      <point x="344" y="256" type="curve"/>
      <point x="377" y="279"/>
      <point x="393" y="304"/>
    </contour>
  </outline>
</glyph>
<glyph name="dieresis" format="1">
  <advance width="528"/>
  <unicode hex="00A8"/>
  <outline>
    <contour>
      <point x="189" y="670" type="curve" smooth="yes" name="hr00"/>
      <point x="193" y="705"/>
      <point x="226" y="733"/>
      <point x="260" y="733" type="curve" smooth="yes"/>
      <point x="295" y="733"/>
      <point x="320" y="705"/>
      <point x="316" y="670" type="curve" smooth="yes"/>
      <point x="311" y="635"/>
      <point x="279" y="607"/>
      <point x="244" y="607" type="curve" smooth="yes"/>
      <point x="210" y="607"/>
      <point x="184" y="635"/>
    </contour>
    <contour>
      <point x="384" y="670" type="curve" smooth="yes"/>
      <point x="388" y="705"/>
      <point x="421" y="733"/>
      <point x="455" y="733" type="curve" smooth="yes"/>
      <point x="490" y="733"/>
      <point x="515" y="705"/>
      <point x="511" y="670" type="curve" smooth="yes"/>
      <point x="506" y="635"/>
      <point x="474" y="607"/>
      <point x="439" y="607" type="curve" smooth="yes"/>
      <point x="405" y="607"/>
      <point x="379" y="635"/>
    </contour>
  </outline>
</glyph>
<glyph name="copyright" format="1">
  <advance width="720"/>
  <unicode hex="00A9"/>
  <outline>
    <contour>
      <point x="441" y="690" type="curve" name="hr00"/>
      <point x="638" y="690"/>
      <point x="756" y="550"/>
      <point x="732" y="357" type="curve" smooth="yes"/>
      <point x="710" y="176"/>
      <point x="551" y="21"/>
      <point x="359" y="21" type="curve" smooth="yes"/>
      <point x="160" y="21"/>
      <point x="41" y="161"/>
      <point x="65" y="357" type="curve" smooth="yes"/>
      <point x="87" y="535"/>
      <point x="247" y="690"/>
    </contour>
    <contour>
      <point x="432" y="613" type="curve"/>
      <point x="296" y="613"/>
      <point x="176" y="513"/>
      <point x="157" y="354" type="curve" smooth="yes"/>
      <point x="138" y="197"/>
      <point x="233" y="99"/>
      <point x="369" y="99" type="curve"/>
      <point x="502" y="99"/>
      <point x="621" y="197"/>
      <point x="640" y="357" type="curve" smooth="yes"/>
      <point x="659" y="513"/>
      <point x="565" y="613"/>
    </contour>
    <contour>
      <point x="398" y="176" type="curve"/>
      <point x="301" y="176"/>
      <point x="233" y="240"/>
      <point x="247" y="357" type="curve"/>
      <point x="262" y="473"/>
      <point x="347" y="537"/>
      <point x="442" y="537" type="curve"/>
      <point x="467" y="537"/>
      <point x="497" y="532"/>
      <point x="524" y="523" type="curve"/>
      <point x="494" y="459" type="line"/>
      <point x="471" y="467"/>
      <point x="454" y="470"/>
      <point x="434" y="470" type="curve"/>
      <point x="384" y="470"/>
      <point x="343" y="421"/>
      <point x="335" y="357" type="curve"/>
      <point x="327" y="292"/>
      <point x="355" y="242"/>
      <point x="406" y="242" type="curve"/>
      <point x="425" y="242"/>
      <point x="447" y="245"/>
      <point x="479" y="259" type="curve"/>
      <point x="493" y="199" type="line"/>
      <point x="454" y="181"/>
      <point x="419" y="176"/>
    </contour>
  </outline>
</glyph>
<glyph name="ordfeminine" format="1">
  <advance width="527"/>
  <unicode hex="00AA"/>
  <outline>
    <contour>
      <point x="395" y="422" type="line" name="hr00"/>
      <point x="388" y="366"/>
      <point x="389" y="327"/>
      <point x="392" y="302" type="curve"/>
      <point x="322" y="302" type="line"/>
      <point x="312" y="312"/>
      <point x="307" y="323"/>
      <point x="303" y="338" type="curve"/>
      <point x="303" y="350" type="line"/>
      <point x="294" y="338" type="line"/>
      <point x="266" y="311"/>
      <point x="228" y="295"/>
      <point x="187" y="295" type="curve" smooth="yes"/>
      <point x="122" y="295"/>
      <point x="75" y="331"/>
      <point x="83" y="394" type="curve" smooth="yes"/>
      <point x="91" y="460"/>
      <point x="147" y="498"/>
      <point x="293" y="514" type="curve"/>
      <point x="288" y="498"/>
      <point x="272" y="455"/>
      <point x="235" y="448" type="curve" smooth="yes"/>
      <point x="195" y="441"/>
      <point x="178" y="423"/>
      <point x="175" y="399" type="curve" smooth="yes"/>
      <point x="173" y="376"/>
      <point x="187" y="358"/>
      <point x="213" y="358" type="curve" smooth="yes"/>
      <point x="244" y="358"/>
      <point x="276" y="371"/>
      <point x="304" y="401" type="curve"/>
      <point x="319" y="527" type="line"/>
      <point x="326" y="582"/>
      <point x="294" y="603"/>
      <point x="246" y="603" type="curve" smooth="yes"/>
      <point x="221" y="603"/>
      <point x="192" y="599"/>
      <point x="162" y="588" type="curve"/>
      <point x="149" y="647" type="line"/>
      <point x="196" y="667"/>
      <point x="236" y="671"/>
      <point x="267" y="671" type="curve" smooth="yes"/>
      <point x="372" y="671"/>
      <point x="419" y="616"/>
      <point x="408" y="522" type="curve"/>
    </contour>
  </outline>
</glyph>
<glyph name="guillemotleft" format="1">
  <advance width="613"/>
  <unicode hex="00AB"/>
  <outline>
    <contour>
      <point x="79" y="258" type="line" name="hr00"/>
      <point x="338" y="472" type="line"/>
      <point x="387" y="418" type="line"/>
      <point x="241" y="258" type="line"/>
      <point x="348" y="98" type="line"/>
      <point x="286" y="45" type="line"/>
    </contour>
    <contour>
      <point x="353" y="258" type="line"/>
      <point x="612" y="472" type="line"/>
      <point x="661" y="418" type="line"/>
      <point x="515" y="258" type="line"/>
      <point x="622" y="98" type="line"/>
      <point x="560" y="45" type="line"/>
    </contour>
  </outline>
</glyph>
<glyph name="logicalnot" format="1">
  <advance width="591"/>
  <unicode hex="00AC"/>
  <outline>
    <contour>
      <point x="601" y="455" type="line" name="hr00"/>
      <point x="565" y="156" type="line"/>
      <point x="458" y="156" type="line"/>
      <point x="482" y="357" type="line"/>
      <point x="86" y="357" type="line"/>
      <point x="98" y="455" type="line"/>
    </contour>
  </outline>
</glyph>
<glyph name="registered" format="1">
  <advance width="720"/>
  <unicode hex="00AE"/>
  <outline>
    <contour>
      <point x="441" y="690" type="curve" smooth="yes" name="hr00"/>
      <point x="638" y="690"/>
      <point x="756" y="550"/>
      <point x="732" y="357" type="curve" smooth="yes"/>
      <point x="710" y="176"/>
      <point x="551" y="21"/>
      <point x="359" y="21" type="curve" smooth="yes"/>
      <point x="160" y="21"/>
      <point x="41" y="161"/>
      <point x="65" y="357" type="curve" smooth="yes"/>
      <point x="87" y="535"/>
      <point x="247" y="690"/>
    </contour>
    <contour>
      <point x="432" y="613" type="curve" smooth="yes"/>
      <point x="296" y="613"/>
      <point x="176" y="513"/>
      <point x="157" y="354" type="curve" smooth="yes"/>
      <point x="138" y="197"/>
      <point x="233" y="99"/>
      <point x="369" y="99" type="curve" smooth="yes"/>
      <point x="502" y="99"/>
      <point x="621" y="197"/>
      <point x="640" y="357" type="curve" smooth="yes"/>
      <point x="659" y="513"/>
      <point x="565" y="613"/>
    </contour>
    <contour>
      <point x="550" y="431" type="curve" smooth="yes"/>
      <point x="546" y="395"/>
      <point x="526" y="364"/>
      <point x="492" y="347" type="curve"/>
      <point x="470" y="343" type="line"/>
      <point x="487" y="333" type="line"/>
      <point x="521" y="303"/>
      <point x="512" y="248"/>
      <point x="532" y="189" type="curve"/>
      <point x="446" y="189" type="line"/>
      <point x="427" y="243"/>
      <point x="446" y="306"/>
      <point x="399" y="325" type="curve"/>
      <point x="375" y="325" type="line"/>
      <point x="384" y="351"/>
      <point x="399" y="378"/>
      <point x="429" y="385" type="curve" smooth="yes"/>
      <point x="453" y="391"/>
      <point x="463" y="408"/>
      <point x="465" y="431" type="curve" smooth="yes"/>
      <point x="469" y="457"/>
      <point x="451" y="472"/>
      <point x="411" y="472" type="curve" smooth="yes"/>
      <point x="399" y="472"/>
      <point x="398" y="471"/>
      <point x="380" y="469" type="curve"/>
      <point x="346" y="189" type="line"/>
      <point x="264" y="189" type="line"/>
      <point x="304" y="521" type="line"/>
      <point x="344" y="530"/>
      <point x="384" y="536"/>
      <point x="419" y="536" type="curve" smooth="yes"/>
      <point x="504" y="536"/>
      <point x="558" y="496"/>
    </contour>
  </outline>
</glyph>
<glyph name="macron" format="1">
  <advance width="500"/>
  <unicode hex="00AF"/>
  <outline>
    <contour>
      <point x="184" y="603" type="line" name="hr00"/>
      <point x="194" y="687" type="line"/>
      <point x="496" y="687" type="line"/>
      <point x="486" y="603" type="line"/>
    </contour>
  </outline>
</glyph>
<glyph name="degree" format="1">
  <advance width="337"/>
  <unicode hex="00B0"/>
  <outline>
    <contour>
      <point x="180" y="623" type="curve" smooth="yes" name="hr00"/>
      <point x="174" y="573"/>
      <point x="203" y="546"/>
      <point x="242" y="546" type="curve" smooth="yes"/>
      <point x="281" y="546"/>
      <point x="317" y="573"/>
      <point x="323" y="623" type="curve" smooth="yes"/>
      <point x="329" y="673"/>
      <point x="300" y="701"/>
      <point x="261" y="701" type="curve" smooth="yes"/>
      <point x="222" y="701"/>
      <point x="186" y="673"/>
    </contour>
    <contour>
      <point x="95" y="623" type="curve" smooth="yes"/>
      <point x="106" y="710"/>
      <point x="188" y="773"/>
      <point x="269" y="773" type="curve" smooth="yes"/>
      <point x="350" y="773"/>
      <point x="418" y="715"/>
      <point x="407" y="623" type="curve" smooth="yes"/>
      <point x="396" y="536"/>
      <point x="314" y="473"/>
      <point x="233" y="473" type="curve" smooth="yes"/>
      <point x="152" y="473"/>
      <point x="84" y="531"/>
    </contour>
  </outline>
</glyph>
<glyph name="plusminus" format="1">
  <advance width="568"/>
  <unicode hex="00B1"/>
  <outline>
    <contour>
      <point x="94" y="383" type="line" name="hr00"/>
      <point x="274" y="383" type="line"/>
      <point x="291" y="526" type="line"/>
      <point x="397" y="526" type="line"/>
      <point x="380" y="383" type="line"/>
      <point x="562" y="383" type="line"/>
      <point x="550" y="287" type="line"/>
      <point x="368" y="287" type="line"/>
      <point x="350" y="142" type="line"/>
      <point x="244" y="142" type="line"/>
      <point x="262" y="287" type="line"/>
      <point x="82" y="287" type="line"/>
    </contour>
    <contour>
      <point x="47" y="0" type="line"/>
      <point x="59" y="98" type="line"/>
      <point x="527" y="98" type="line"/>
      <point x="515" y="0" type="line"/>
    </contour>
  </outline>
</glyph>
<glyph name="twosuperior" format="1">
  <advance width="402"/>
  <unicode hex="00B2"/>
  <outline>
    <contour>
      <point x="414" y="628" type="curve" smooth="yes" name="hr00"/>
      <point x="402" y="532"/>
      <point x="297" y="470"/>
      <point x="235" y="392" type="curve"/>
      <point x="224" y="382" type="line"/>
      <point x="238" y="384" type="line"/>
      <point x="381" y="384" type="line"/>
      <point x="372" y="310" type="line"/>
      <point x="107" y="310" type="line"/>
      <point x="112" y="355" type="line"/>
      <point x="197" y="478"/>
      <point x="315" y="547"/>
      <point x="324" y="621" type="curve"/>
      <point x="327" y="650"/>
      <point x="305" y="667"/>
      <point x="266" y="667" type="curve"/>
      <point x="243" y="667"/>
      <point x="220" y="661"/>
      <point x="198" y="652" type="curve"/>
      <point x="177" y="711" type="line"/>
      <point x="215" y="730"/>
      <point x="259" y="736"/>
      <point x="291" y="736" type="curve" smooth="yes"/>
      <point x="369" y="736"/>
      <point x="422" y="697"/>
    </contour>
  </outline>
</glyph>
<glyph name="threesuperior" format="1">
  <advance width="381"/>
  <unicode hex="00B3"/>
  <outline>
    <contour>
      <point x="385" y="638" type="curve" smooth="yes"/>
      <point x="380" y="596"/>
      <point x="344" y="561"/>
      <point x="296" y="540" type="curve"/>
      <point x="340" y="529"/>
      <point x="381" y="490"/>
      <point x="373" y="430" type="curve" smooth="yes"/>
      <point x="363" y="350"/>
      <point x="286" y="301"/>
      <point x="194" y="301" type="curve" smooth="yes"/>
      <point x="153" y="301"/>
      <point x="113" y="317"/>
      <point x="95" y="329" type="curve"/>
      <point x="124" y="390" type="line"/>
      <point x="147" y="380"/>
      <point x="175" y="371"/>
      <point x="202" y="371" type="curve" smooth="yes"/>
      <point x="247" y="371"/>
      <point x="279" y="398"/>
      <point x="284" y="433" type="curve" smooth="yes"/>
      <point x="289" y="475"/>
      <point x="261" y="499"/>
      <point x="193" y="499" type="curve"/>
      <point x="193" y="555" type="line"/>
      <point x="226" y="568" type="line" smooth="yes"/>
      <point x="264" y="583"/>
      <point x="290" y="600"/>
      <point x="294" y="631" type="curve"/>
      <point x="296" y="647"/>
      <point x="280" y="665"/>
      <point x="251" y="665" type="curve" smooth="yes" name="hr01"/>
      <point x="228" y="665"/>
      <point x="204" y="660"/>
      <point x="175" y="651" type="curve"/>
      <point x="158" y="710" type="line"/>
      <point x="198" y="729"/>
      <point x="233" y="735"/>
      <point x="266" y="735" type="curve" smooth="yes"/>
      <point x="339" y="735"/>
      <point x="393" y="705"/>
    </contour>
  </outline>
</glyph>
<glyph name="acute" format="1">
  <advance width="322"/>
  <unicode hex="00B4"/>
  <outline>
    <contour>
      <point x="278" y="645" type="line" name="hr00"/>
      <point x="233" y="597"/>
      <point x="159" y="593"/>
      <point x="126" y="602" type="curve"/>
      <point x="229" y="740" type="line"/>
      <point x="368" y="740" type="line"/>
    </contour>
  </outline>
</glyph>
<glyph name="mu" format="1">
  <advance width="553"/>
  <unicode hex="00B5"/>
  <unicode hex="03BC"/>
  <outline>
    <contour>
      <point x="396" y="52" type="line"/>
      <point x="362" y="11"/>
      <point x="322" y="-10"/>
      <point x="263" y="-10" type="curve" smooth="yes"/>
      <point x="241" y="-10"/>
      <point x="211" y="-2"/>
      <point x="192" y="14" type="curve"/>
      <point x="180" y="31" type="line"/>
      <point x="178" y="7" type="line"/>
      <point x="152" y="-211" type="line"/>
      <point x="30" y="-211" type="line"/>
      <point x="119" y="517" type="line"/>
      <point x="247" y="517" type="line"/>
      <point x="209" y="210" type="line" smooth="yes"/>
      <point x="200" y="131"/>
      <point x="231" y="88"/>
      <point x="284" y="88" type="curve" smooth="yes" name="hr01"/>
      <point x="346" y="88"/>
      <point x="395" y="135"/>
      <point x="403" y="199" type="curve" smooth="yes"/>
      <point x="442" y="517" type="line"/>
      <point x="571" y="517" type="line"/>
      <point x="528" y="164" type="line" smooth="yes"/>
      <point x="521" y="108"/>
      <point x="532" y="88"/>
      <point x="574" y="90" type="curve"/>
      <point x="575" y="5" type="line"/>
      <point x="552" y="-4"/>
      <point x="517" y="-8"/>
      <point x="502" y="-8" type="curve" smooth="yes"/>
      <point x="468" y="-8"/>
      <point x="425" y="10"/>
      <point x="410" y="53" type="curve"/>
      <point x="407" y="71" type="line"/>
    </contour>
  </outline>
</glyph>
<glyph name="periodcentered" format="1">
  <advance width="306"/>
  <unicode hex="00B7"/>
  <outline>
    <contour>
      <point x="106" y="304" type="curve" smooth="yes" name="hr00"/>
      <point x="111" y="350"/>
      <point x="152" y="388"/>
      <point x="199" y="388" type="curve" smooth="yes"/>
      <point x="245" y="388"/>
      <point x="276" y="350"/>
      <point x="271" y="304" type="curve" smooth="yes"/>
      <point x="265" y="258"/>
      <point x="225" y="222"/>
      <point x="179" y="222" type="curve" smooth="yes"/>
      <point x="132" y="222"/>
      <point x="100" y="258"/>
    </contour>
  </outline>
</glyph>
<glyph name="cedilla" format="1">
  <advance width="500"/>
  <unicode hex="00B8"/>
  <outline>
    <contour>
      <point x="291" y="3" type="line" name="hr00"/>
      <point x="274" y="-43" type="line"/>
      <point x="313" y="-52"/>
      <point x="351" y="-79"/>
      <point x="345" y="-123" type="curve" smooth="yes"/>
      <point x="338" y="-183"/>
      <point x="268" y="-213"/>
      <point x="207" y="-213" type="curve" smooth="yes"/>
      <point x="184" y="-213"/>
      <point x="159" y="-207"/>
      <point x="129" y="-193" type="curve"/>
      <point x="154" y="-138" type="line"/>
      <point x="177" y="-147"/>
      <point x="195" y="-150"/>
      <point x="215" y="-150" type="curve" smooth="yes"/>
      <point x="238" y="-150"/>
      <point x="256" y="-141"/>
      <point x="258" y="-126" type="curve" smooth="yes"/>
      <point x="260" y="-106"/>
      <point x="235" y="-96"/>
      <point x="188" y="-91" type="curve"/>
      <point x="222" y="-3" type="line"/>
    </contour>
  </outline>
</glyph>
<glyph name="onesuperior" format="1">
  <advance width="319"/>
  <unicode hex="00B9"/>
  <outline>
    <contour>
      <point x="204" y="309" type="line" name="hr00"/>
      <point x="242" y="614" type="line"/>
      <point x="183" y="587" type="line"/>
      <point x="155" y="651" type="line"/>
      <point x="307" y="727" type="line"/>
      <point x="355" y="727" type="line"/>
      <point x="303" y="309" type="line"/>
    </contour>
  </outline>
</glyph>
<glyph name="ordmasculine" format="1">
  <advance width="430"/>
  <unicode hex="00BA"/>
  <outline>
    <contour>
      <point x="296" y="671" type="curve" name="hr00"/>
      <point x="414" y="671"/>
      <point x="465" y="592"/>
      <point x="452" y="483" type="curve" smooth="yes"/>
      <point x="440" y="383"/>
      <point x="372" y="294"/>
      <point x="250" y="294" type="curve" smooth="yes"/>
      <point x="141" y="294"/>
      <point x="79" y="362"/>
      <point x="94" y="483" type="curve" smooth="yes"/>
      <point x="107" y="587"/>
      <point x="180" y="671"/>
    </contour>
    <contour>
      <point x="258" y="364" type="curve"/>
      <point x="316" y="364"/>
      <point x="351" y="414"/>
      <point x="360" y="483" type="curve" smooth="yes"/>
      <point x="368" y="553"/>
      <point x="344" y="602"/>
      <point x="287" y="602" type="curve" smooth="yes"/>
      <point x="233" y="602"/>
      <point x="195" y="552"/>
      <point x="187" y="483" type="curve" smooth="yes"/>
      <point x="179" y="419"/>
      <point x="197" y="364"/>
    </contour>
  </outline>
</glyph>
<glyph name="onequarter" format="1">
  <advance width="698"/>
  <unicode hex="00BC"/>
  <outline>
    <contour>
      <point x="66" y="0" type="line" name="hr00"/>
      <point x="591" y="727" type="line"/>
      <point x="699" y="727" type="line"/>
      <point x="174" y="0" type="line"/>
    </contour>
    <contour>
      <point x="576" y="423" type="line"/>
      <point x="669" y="423" type="line"/>
      <point x="636" y="151" type="line"/>
      <point x="684" y="151" type="line"/>
      <point x="676" y="82" type="line"/>
      <point x="628" y="82" type="line"/>
      <point x="618" y="0" type="line"/>
      <point x="534" y="0" type="line"/>
      <point x="571" y="304" type="line"/>
      <point x="448" y="151" type="line"/>
      <point x="468" y="151" type="line"/>
      <point x="500" y="151"/>
      <point x="512" y="112"/>
      <point x="519" y="82" type="curve"/>
      <point x="348" y="82" type="line"/>
      <point x="355" y="143" type="line"/>
    </contour>
    <contour>
      <point x="144" y="309" type="line"/>
      <point x="182" y="614" type="line"/>
      <point x="123" y="587" type="line"/>
      <point x="95" y="651" type="line"/>
      <point x="247" y="727" type="line"/>
      <point x="295" y="727" type="line"/>
      <point x="243" y="309" type="line"/>
    </contour>
  </outline>
</glyph>
<glyph name="onehalf" format="1">
  <advance width="763"/>
  <unicode hex="00BD"/>
  <outline>
    <contour>
      <point x="66" y="0" type="line" name="hr00"/>
      <point x="591" y="727" type="line"/>
      <point x="699" y="727" type="line"/>
      <point x="174" y="0" type="line"/>
    </contour>
    <contour>
      <point x="144" y="309" type="line"/>
      <point x="182" y="614" type="line"/>
      <point x="123" y="587" type="line"/>
      <point x="95" y="651" type="line"/>
      <point x="247" y="727" type="line"/>
      <point x="295" y="727" type="line"/>
      <point x="243" y="309" type="line"/>
    </contour>
    <contour>
      <point x="729" y="318" type="curve" smooth="yes"/>
      <point x="717" y="222"/>
      <point x="613" y="162"/>
      <point x="551" y="84" type="curve"/>
      <point x="539" y="72" type="line"/>
      <point x="557" y="74" type="line"/>
      <point x="696" y="74" type="line"/>
      <point x="687" y="0" type="line"/>
      <point x="422" y="0" type="line"/>
      <point x="427" y="45" type="line"/>
      <point x="512" y="168"/>
      <point x="630" y="237"/>
      <point x="639" y="311" type="curve" smooth="yes"/>
      <point x="642" y="340"/>
      <point x="620" y="357"/>
      <point x="581" y="357" type="curve" smooth="yes"/>
      <point x="558" y="357"/>
      <point x="535" y="351"/>
      <point x="512" y="342" type="curve"/>
      <point x="492" y="401" type="line"/>
      <point x="530" y="420"/>
      <point x="574" y="426"/>
      <point x="606" y="426" type="curve" smooth="yes"/>
      <point x="684" y="426"/>
      <point x="737" y="387"/>
    </contour>
  </outline>
</glyph>
<glyph name="threequarters" format="1">
  <advance width="716"/>
  <unicode hex="00BE"/>
  <outline>
    <contour>
      <point x="102" y="0" type="line"/>
      <point x="627" y="727" type="line"/>
      <point x="735" y="727" type="line"/>
      <point x="210" y="0" type="line"/>
    </contour>
    <contour>
      <point x="612" y="423" type="line"/>
      <point x="705" y="423" type="line"/>
      <point x="672" y="151" type="line"/>
      <point x="720" y="151" type="line"/>
      <point x="712" y="82" type="line"/>
      <point x="664" y="82" type="line"/>
      <point x="654" y="0" type="line"/>
      <point x="570" y="0" type="line"/>
      <point x="607" y="304" type="line"/>
      <point x="484" y="151" type="line"/>
      <point x="504" y="151" type="line"/>
      <point x="536" y="151"/>
      <point x="548" y="112"/>
      <point x="555" y="82" type="curve"/>
      <point x="384" y="82" type="line"/>
      <point x="391" y="143" type="line"/>
    </contour>
    <contour>
      <point x="355" y="638" type="curve" smooth="yes"/>
      <point x="350" y="596"/>
      <point x="314" y="561"/>
      <point x="266" y="540" type="curve"/>
      <point x="310" y="529"/>
      <point x="351" y="490"/>
      <point x="343" y="430" type="curve" smooth="yes"/>
      <point x="333" y="350"/>
      <point x="256" y="301"/>
      <point x="164" y="301" type="curve" smooth="yes"/>
      <point x="123" y="301"/>
      <point x="83" y="317"/>
      <point x="65" y="329" type="curve"/>
      <point x="94" y="390" type="line"/>
      <point x="117" y="380"/>
      <point x="145" y="371"/>
      <point x="172" y="371" type="curve" smooth="yes"/>
      <point x="217" y="371"/>
      <point x="249" y="398"/>
      <point x="254" y="433" type="curve" smooth="yes"/>
      <point x="259" y="475"/>
      <point x="231" y="499"/>
      <point x="163" y="499" type="curve" name="hr01"/>
      <point x="163" y="555" type="line"/>
      <point x="196" y="568" type="line" smooth="yes"/>
      <point x="234" y="583"/>
      <point x="260" y="600"/>
      <point x="264" y="631" type="curve"/>
      <point x="266" y="647"/>
      <point x="250" y="665"/>
      <point x="221" y="665" type="curve" smooth="yes" name="hr02"/>
      <point x="198" y="665"/>
      <point x="174" y="660"/>
      <point x="145" y="651" type="curve"/>
      <point x="128" y="710" type="line"/>
      <point x="168" y="729"/>
      <point x="203" y="735"/>
      <point x="236" y="735" type="curve" smooth="yes"/>
      <point x="309" y="735"/>
      <point x="363" y="705"/>
    </contour>
  </outline>
</glyph>
<glyph name="questiondown" format="1">
  <advance width="583"/>
  <unicode hex="00BF"/>
  <outline>
    <contour>
      <point x="287" y="-221" type="curve" smooth="yes" name="hr00"/>
      <point x="154" y="-221"/>
      <point x="67" y="-162"/>
      <point x="79" y="-58" type="curve" smooth="yes"/>
      <point x="97" y="83"/>
      <point x="298" y="154"/>
      <point x="315" y="286" type="curve"/>
      <point x="433" y="286" type="line"/>
      <point x="410" y="104"/>
      <point x="236" y="56"/>
      <point x="224" y="-43" type="curve" smooth="yes"/>
      <point x="219" y="-88"/>
      <point x="253" y="-117"/>
      <point x="310" y="-117" type="curve"/>
      <point x="348" y="-117"/>
      <point x="381" y="-113"/>
      <point x="448" y="-86" type="curve"/>
      <point x="472" y="-180" type="line"/>
      <point x="394" y="-213"/>
      <point x="342" y="-221"/>
    </contour>
    <contour>
      <point x="477" y="448" type="curve" smooth="yes"/>
      <point x="471" y="402"/>
      <point x="430" y="364"/>
      <point x="383" y="364" type="curve" smooth="yes"/>
      <point x="337" y="364"/>
      <point x="306" y="402"/>
      <point x="312" y="448" type="curve" smooth="yes"/>
      <point x="317" y="494"/>
      <point x="358" y="530"/>
      <point x="404" y="530" type="curve" smooth="yes"/>
      <point x="451" y="530"/>
      <point x="482" y="494"/>
    </contour>
  </outline>
</glyph>
<glyph name="Agrave" format="1">
  <advance width="687"/>
  <unicode hex="00C0"/>
  <outline>
    <contour>
      <point x="319" y="890" type="line" name="hr00"/>
      <point x="452" y="890" type="line"/>
      <point x="510" y="765" type="line"/>
      <point x="475" y="756"/>
      <point x="398" y="762"/>
      <point x="370" y="808" type="curve"/>
    </contour>
    <contour>
      <point x="227" y="159" type="line"/>
      <point x="155" y="0" type="line"/>
      <point x="14" y="0" type="line"/>
      <point x="364" y="727" type="line"/>
      <point x="504" y="727" type="line"/>
      <point x="676" y="0" type="line"/>
      <point x="528" y="0" type="line"/>
      <point x="414" y="541" type="line"/>
      <point x="410" y="578" type="line"/>
      <point x="397" y="539" type="line"/>
      <point x="280" y="280" type="line"/>
      <point x="265" y="260" type="line"/>
      <point x="281" y="262" type="line"/>
      <point x="357" y="262" type="line" smooth="yes"/>
      <point x="415" y="262"/>
      <point x="435" y="203"/>
      <point x="444" y="159" type="curve"/>
    </contour>
  </outline>
</glyph>
<glyph name="Aacute" format="1">
  <advance width="687"/>
  <unicode hex="00C1"/>
  <outline>
    <contour>
      <point x="525" y="808" type="line" name="hr00"/>
      <point x="479" y="763"/>
      <point x="405" y="756"/>
      <point x="372" y="765" type="curve"/>
      <point x="474" y="890" type="line"/>
      <point x="607" y="890" type="line"/>
    </contour>
    <contour>
      <point x="225" y="159" type="line"/>
      <point x="153" y="0" type="line"/>
      <point x="12" y="0" type="line"/>
      <point x="362" y="727" type="line"/>
      <point x="502" y="727" type="line"/>
      <point x="674" y="0" type="line"/>
      <point x="526" y="0" type="line"/>
      <point x="412" y="541" type="line"/>
      <point x="408" y="578" type="line"/>
      <point x="395" y="539" type="line"/>
      <point x="278" y="280" type="line"/>
      <point x="263" y="260" type="line"/>
      <point x="279" y="262" type="line"/>
      <point x="355" y="262" type="line" smooth="yes"/>
      <point x="413" y="262"/>
      <point x="433" y="203"/>
      <point x="442" y="159" type="curve"/>
    </contour>
  </outline>
</glyph>
<glyph name="Atilde" format="1">
  <advance width="687"/>
  <unicode hex="00C3"/>
  <outline>
    <contour>
      <point x="284" y="783" type="line"/>
      <point x="295" y="858"/>
      <point x="349" y="900"/>
      <point x="397" y="901" type="curve"/>
      <point x="456" y="901"/>
      <point x="479" y="848"/>
      <point x="509" y="848" type="curve" smooth="yes" name="hr01"/>
      <point x="526" y="848"/>
      <point x="539" y="866"/>
      <point x="545" y="893" type="curve"/>
      <point x="617" y="887" type="line"/>
      <point x="603" y="803"/>
      <point x="547" y="769"/>
      <point x="509" y="769" type="curve" smooth="yes"/>
      <point x="442" y="769"/>
      <point x="431" y="822"/>
      <point x="398" y="822" type="curve" smooth="yes"/>
      <point x="384" y="822"/>
      <point x="365" y="811"/>
      <point x="358" y="777" type="curve"/>
    </contour>
    <contour>
      <point x="227" y="159" type="line"/>
      <point x="155" y="0" type="line"/>
      <point x="14" y="0" type="line"/>
      <point x="364" y="727" type="line"/>
      <point x="504" y="727" type="line"/>
      <point x="676" y="0" type="line"/>
      <point x="528" y="0" type="line"/>
      <point x="414" y="541" type="line"/>
      <point x="410" y="578" type="line"/>
      <point x="397" y="539" type="line"/>
      <point x="280" y="280" type="line"/>
      <point x="265" y="260" type="line"/>
      <point x="281" y="262" type="line"/>
      <point x="357" y="262" type="line" smooth="yes"/>
      <point x="415" y="262"/>
      <point x="435" y="203"/>
      <point x="444" y="159" type="curve"/>
    </contour>
  </outline>
</glyph>
<glyph name="Adieresis" format="1">
  <advance width="687"/>
  <unicode hex="00C4"/>
  <outline>
    <contour>
      <point x="285" y="840" type="curve" smooth="yes" name="hr00"/>
      <point x="289" y="875"/>
      <point x="321" y="903"/>
      <point x="355" y="903" type="curve" smooth="yes"/>
      <point x="390" y="903"/>
      <point x="416" y="875"/>
      <point x="412" y="840" type="curve" smooth="yes"/>
      <point x="407" y="805"/>
      <point x="375" y="777"/>
      <point x="340" y="777" type="curve" smooth="yes"/>
      <point x="306" y="777"/>
      <point x="280" y="805"/>
    </contour>
    <contour>
      <point x="480" y="840" type="curve" smooth="yes"/>
      <point x="484" y="875"/>
      <point x="516" y="903"/>
      <point x="550" y="903" type="curve" smooth="yes"/>
      <point x="585" y="903"/>
      <point x="611" y="875"/>
      <point x="607" y="840" type="curve" smooth="yes"/>
      <point x="602" y="805"/>
      <point x="570" y="777"/>
      <point x="535" y="777" type="curve" smooth="yes"/>
      <point x="501" y="777"/>
      <point x="475" y="805"/>
    </contour>
    <contour>
      <point x="227" y="159" type="line"/>
      <point x="155" y="0" type="line"/>
      <point x="14" y="0" type="line"/>
      <point x="364" y="727" type="line"/>
      <point x="504" y="727" type="line"/>
      <point x="676" y="0" type="line"/>
      <point x="528" y="0" type="line"/>
      <point x="414" y="541" type="line"/>
      <point x="410" y="578" type="line"/>
      <point x="397" y="539" type="line"/>
      <point x="280" y="280" type="line"/>
      <point x="265" y="260" type="line"/>
      <point x="281" y="262" type="line"/>
      <point x="357" y="262" type="line" smooth="yes"/>
      <point x="415" y="262"/>
      <point x="435" y="203"/>
      <point x="444" y="159" type="curve"/>
    </contour>
  </outline>
</glyph>
<glyph name="Aring" format="1">
  <advance width="687"/>
  <unicode hex="00C5"/>
  <outline>
    <contour>
      <point x="228" y="159" type="line" name="hr00"/>
      <point x="156" y="0" type="line"/>
      <point x="15" y="0" type="line"/>
      <point x="364" y="725" type="line"/>
      <point x="342" y="742"/>
      <point x="331" y="767"/>
      <point x="334" y="797" type="curve" smooth="yes"/>
      <point x="341" y="853"/>
      <point x="394" y="895"/>
      <point x="457" y="895" type="curve" smooth="yes"/>
      <point x="521" y="895"/>
      <point x="561" y="856"/>
      <point x="553" y="798" type="curve" smooth="yes"/>
      <point x="550" y="767"/>
      <point x="531" y="741"/>
      <point x="505" y="724" type="curve"/>
      <point x="677" y="0" type="line"/>
      <point x="529" y="0" type="line"/>
      <point x="415" y="546" type="line"/>
      <point x="411" y="574" type="line"/>
      <point x="400" y="545" type="line"/>
      <point x="281" y="280" type="line"/>
      <point x="266" y="260" type="line"/>
      <point x="280" y="262" type="line"/>
      <point x="358" y="262" type="line" smooth="yes"/>
      <point x="416" y="262"/>
      <point x="436" y="203"/>
      <point x="445" y="159" type="curve"/>
    </contour>
    <contour>
      <point x="440" y="760" type="curve" smooth="yes"/>
      <point x="464" y="760"/>
      <point x="479" y="777"/>
      <point x="482" y="799" type="curve" smooth="yes"/>
      <point x="484" y="822"/>
      <point x="474" y="839"/>
      <point x="450" y="839" type="curve" smooth="yes"/>
      <point x="428" y="839"/>
      <point x="412" y="822"/>
      <point x="409" y="798" type="curve" smooth="yes"/>
      <point x="407" y="779"/>
      <point x="418" y="760"/>
    </contour>
  </outline>
</glyph>
<glyph name="AE" format="1">
  <advance width="975"/>
  <unicode hex="00C6"/>
  <outline>
    <contour>
      <point x="237" y="159" type="line" name="hr00"/>
      <point x="141" y="0" type="line"/>
      <point x="0" y="0" type="line"/>
      <point x="461" y="727" type="line"/>
      <point x="933" y="727" type="line"/>
      <point x="920" y="624" type="line"/>
      <point x="622" y="624" type="line"/>
      <point x="636" y="103" type="line"/>
      <point x="927" y="103" type="line"/>
      <point x="915" y="0" type="line"/>
      <point x="506" y="0" type="line"/>
      <point x="490" y="552" type="line"/>
      <point x="492" y="589" type="line"/>
      <point x="474" y="554" type="line"/>
      <point x="308" y="280" type="line"/>
      <point x="290" y="260" type="line"/>
      <point x="311" y="262" type="line"/>
      <point x="378" y="262" type="line" smooth="yes"/>
      <point x="436" y="262"/>
      <point x="456" y="203"/>
      <point x="465" y="159" type="curve"/>
    </contour>
    <contour>
      <point x="666" y="331" type="line"/>
      <point x="687" y="380"/>
      <point x="724" y="432"/>
      <point x="793" y="432" type="curve" smooth="yes"/>
      <point x="907" y="432" type="line"/>
      <point x="894" y="331" type="line"/>
    </contour>
  </outline>
</glyph>
<glyph name="Ccedilla" format="1">
  <advance width="652"/>
  <unicode hex="00C7"/>
  <outline>
    <contour>
      <point x="433" y="-12" type="curve" smooth="yes"/>
      <point x="423" y="-12"/>
      <point x="413" y="-11"/>
      <point x="403" y="-11" type="curve" name="hr01"/>
      <point x="392" y="-43" type="line"/>
      <point x="431" y="-52"/>
      <point x="469" y="-79"/>
      <point x="463" y="-123" type="curve" smooth="yes"/>
      <point x="456" y="-183"/>
      <point x="386" y="-213"/>
      <point x="325" y="-213" type="curve" smooth="yes"/>
      <point x="302" y="-213"/>
      <point x="277" y="-207"/>
      <point x="247" y="-193" type="curve"/>
      <point x="272" y="-138" type="line"/>
      <point x="295" y="-147"/>
      <point x="313" y="-150"/>
      <point x="333" y="-150" type="curve" smooth="yes"/>
      <point x="356" y="-150"/>
      <point x="374" y="-141"/>
      <point x="376" y="-126" type="curve" smooth="yes"/>
      <point x="378" y="-106"/>
      <point x="353" y="-96"/>
      <point x="306" y="-91" type="curve"/>
      <point x="340" y="-3" type="line"/>
      <point x="157" y="33"/>
      <point x="70" y="181"/>
      <point x="92" y="364" type="curve" smooth="yes"/>
      <point x="118" y="572"/>
      <point x="284" y="740"/>
      <point x="525" y="740" type="curve" smooth="yes"/>
      <point x="581" y="740"/>
      <point x="637" y="730"/>
      <point x="697" y="706" type="curve"/>
      <point x="650" y="614" type="line"/>
      <point x="593" y="631"/>
      <point x="559" y="637"/>
      <point x="513" y="637" type="curve" smooth="yes"/>
      <point x="354" y="637"/>
      <point x="261" y="502"/>
      <point x="244" y="364" type="curve" smooth="yes"/>
      <point x="227" y="226"/>
      <point x="287" y="91"/>
      <point x="446" y="91" type="curve" smooth="yes" name="hr02"/>
      <point x="492" y="91"/>
      <point x="537" y="102"/>
      <point x="589" y="125" type="curve"/>
      <point x="615" y="34" type="line"/>
      <point x="552" y="3"/>
      <point x="489" y="-12"/>
    </contour>
  </outline>
</glyph>
<glyph name="Egrave" format="1">
  <advance width="577"/>
  <unicode hex="00C8"/>
  <outline>
    <contour>
      <point x="156" y="727" type="line" name="hr00"/>
      <point x="592" y="727" type="line"/>
      <point x="579" y="624" type="line"/>
      <point x="286" y="624" type="line"/>
      <point x="222" y="103" type="line"/>
      <point x="531" y="103" type="line"/>
      <point x="519" y="0" type="line"/>
      <point x="67" y="0" type="line"/>
    </contour>
    <contour>
      <point x="288" y="331" type="line"/>
      <point x="307" y="375"/>
      <point x="343" y="432"/>
      <point x="401" y="432" type="curve"/>
      <point x="522" y="432" type="line"/>
      <point x="509" y="331" type="line"/>
    </contour>
    <contour>
      <point x="277" y="890" type="line"/>
      <point x="410" y="890" type="line"/>
      <point x="468" y="765" type="line"/>
      <point x="433" y="756"/>
      <point x="356" y="762"/>
      <point x="328" y="808" type="curve"/>
    </contour>
  </outline>
</glyph>
<glyph name="Eacute" format="1">
  <advance width="577"/>
  <unicode hex="00C9"/>
  <outline>
    <contour>
      <point x="156" y="727" type="line" name="hr00"/>
      <point x="592" y="727" type="line"/>
      <point x="579" y="624" type="line"/>
      <point x="286" y="624" type="line"/>
      <point x="222" y="103" type="line"/>
      <point x="531" y="103" type="line"/>
      <point x="519" y="0" type="line"/>
      <point x="67" y="0" type="line"/>
    </contour>
    <contour>
      <point x="288" y="331" type="line"/>
      <point x="307" y="375"/>
      <point x="343" y="432"/>
      <point x="401" y="432" type="curve"/>
      <point x="522" y="432" type="line"/>
      <point x="509" y="331" type="line"/>
    </contour>
    <contour>
      <point x="480" y="808" type="line"/>
      <point x="434" y="763"/>
      <point x="360" y="756"/>
      <point x="327" y="765" type="curve"/>
      <point x="429" y="890" type="line"/>
      <point x="562" y="890" type="line"/>
    </contour>
  </outline>
</glyph>
<glyph name="Edieresis" format="1">
  <advance width="577"/>
  <unicode hex="00CB"/>
  <outline>
    <contour>
      <point x="156" y="727" type="line" name="hr00"/>
      <point x="592" y="727" type="line"/>
      <point x="579" y="624" type="line"/>
      <point x="286" y="624" type="line"/>
      <point x="222" y="103" type="line"/>
      <point x="531" y="103" type="line"/>
      <point x="519" y="0" type="line"/>
      <point x="67" y="0" type="line"/>
    </contour>
    <contour>
      <point x="288" y="331" type="line"/>
      <point x="307" y="375"/>
      <point x="343" y="432"/>
      <point x="401" y="432" type="curve"/>
      <point x="522" y="432" type="line"/>
      <point x="509" y="331" type="line"/>
    </contour>
    <contour>
      <point x="242" y="840" type="curve" smooth="yes"/>
      <point x="246" y="875"/>
      <point x="278" y="903"/>
      <point x="312" y="903" type="curve" smooth="yes"/>
      <point x="347" y="903"/>
      <point x="373" y="875"/>
      <point x="369" y="840" type="curve" smooth="yes"/>
      <point x="364" y="805"/>
      <point x="332" y="777"/>
      <point x="297" y="777" type="curve" smooth="yes"/>
      <point x="263" y="777"/>
      <point x="237" y="805"/>
    </contour>
    <contour>
      <point x="437" y="840" type="curve" smooth="yes"/>
      <point x="441" y="875"/>
      <point x="473" y="903"/>
      <point x="507" y="903" type="curve" smooth="yes"/>
      <point x="542" y="903"/>
      <point x="568" y="875"/>
      <point x="564" y="840" type="curve" smooth="yes"/>
      <point x="559" y="805"/>
      <point x="527" y="777"/>
      <point x="492" y="777" type="curve" smooth="yes"/>
      <point x="458" y="777"/>
      <point x="432" y="805"/>
    </contour>
  </outline>
</glyph>
<glyph name="Igrave" format="1">
  <advance width="279"/>
  <unicode hex="00CC"/>
  <outline>
    <contour>
      <point x="212" y="0" type="line" name="hr00"/>
      <point x="73" y="0" type="line"/>
      <point x="162" y="727" type="line"/>
      <point x="301" y="727" type="line"/>
    </contour>
    <contour>
      <point x="115" y="890" type="line"/>
      <point x="248" y="890" type="line"/>
      <point x="306" y="765" type="line"/>
      <point x="271" y="756"/>
      <point x="194" y="762"/>
      <point x="166" y="808" type="curve"/>
    </contour>
  </outline>
</glyph>
<glyph name="Iacute" format="1">
  <advance width="321"/>
  <unicode hex="00CD"/>
  <outline>
    <contour>
      <point x="204" y="0" type="line" name="hr00"/>
      <point x="65" y="0" type="line"/>
      <point x="154" y="727" type="line"/>
      <point x="293" y="727" type="line"/>
    </contour>
    <contour>
      <point x="314" y="808" type="line"/>
      <point x="268" y="763"/>
      <point x="194" y="756"/>
      <point x="161" y="765" type="curve"/>
      <point x="263" y="890" type="line"/>
      <point x="396" y="890" type="line"/>
    </contour>
  </outline>
</glyph>
<glyph name="Icircumflex" format="1">
  <advance width="321"/>
  <unicode hex="00CE"/>
  <outline>
    <contour>
      <point x="229" y="0" type="line" name="hr00"/>
      <point x="90" y="0" type="line"/>
      <point x="179" y="727" type="line"/>
      <point x="318" y="727" type="line"/>
    </contour>
    <contour>
      <point x="320" y="890" type="line"/>
      <point x="413" y="774" type="line"/>
      <point x="329" y="756" type="line"/>
      <point x="258" y="812" type="line"/>
      <point x="175" y="756" type="line"/>
      <point x="98" y="774" type="line"/>
      <point x="217" y="890" type="line"/>
    </contour>
  </outline>
</glyph>
<glyph name="Idieresis" format="1">
  <advance width="350"/>
  <unicode hex="00CF"/>
  <outline>
    <contour>
      <point x="243" y="0" type="line" name="hr00"/>
      <point x="104" y="0" type="line"/>
      <point x="193" y="727" type="line"/>
      <point x="332" y="727" type="line"/>
    </contour>
    <contour>
      <point x="115" y="840" type="curve" smooth="yes"/>
      <point x="119" y="875"/>
      <point x="151" y="903"/>
      <point x="185" y="903" type="curve" smooth="yes"/>
      <point x="220" y="903"/>
      <point x="246" y="875"/>
      <point x="242" y="840" type="curve" smooth="yes"/>
      <point x="237" y="805"/>
      <point x="205" y="777"/>
      <point x="170" y="777" type="curve" smooth="yes"/>
      <point x="136" y="777"/>
      <point x="110" y="805"/>
    </contour>
    <contour>
      <point x="310" y="840" type="curve" smooth="yes"/>
      <point x="314" y="875"/>
      <point x="346" y="903"/>
      <point x="380" y="903" type="curve" smooth="yes"/>
      <point x="415" y="903"/>
      <point x="441" y="875"/>
      <point x="437" y="840" type="curve" smooth="yes"/>
      <point x="432" y="805"/>
      <point x="400" y="777"/>
      <point x="365" y="777" type="curve" smooth="yes"/>
      <point x="331" y="777"/>
      <point x="305" y="805"/>
    </contour>
  </outline>
</glyph>
<glyph name="Eth" format="1">
  <advance width="713"/>
  <unicode hex="00D0"/>
  <outline>
    <contour>
      <point x="358" y="91" type="curve" smooth="yes"/>
      <point x="511" y="91"/>
      <point x="594" y="231"/>
      <point x="610" y="365" type="curve" smooth="yes"/>
      <point x="630" y="522"/>
      <point x="565" y="637"/>
      <point x="372" y="637" type="curve" smooth="yes"/>
      <point x="346" y="637"/>
      <point x="316" y="634"/>
      <point x="285" y="629" type="curve"/>
      <point x="257" y="401" type="line"/>
      <point x="460" y="401" type="line"/>
      <point x="449" y="310" type="line"/>
      <point x="246" y="310" type="line"/>
      <point x="208" y="0" type="line" name="hr01"/>
      <point x="67" y="0" type="line"/>
      <point x="105" y="310" type="line"/>
      <point x="26" y="310" type="line"/>
      <point x="37" y="401" type="line"/>
      <point x="116" y="401" type="line"/>
      <point x="154" y="714" type="line"/>
      <point x="246" y="733"/>
      <point x="326" y="740"/>
      <point x="384" y="740" type="curve" smooth="yes"/>
      <point x="650" y="740"/>
      <point x="790" y="602"/>
      <point x="761" y="365" type="curve" smooth="yes"/>
      <point x="735" y="154"/>
      <point x="564" y="-12"/>
      <point x="360" y="-12" type="curve" smooth="yes" name="hr02"/>
      <point x="323" y="-12"/>
      <point x="302" y="-10"/>
      <point x="246" y="5" type="curve"/>
      <point x="266" y="40"/>
      <point x="303" y="91"/>
    </contour>
  </outline>
</glyph>
<glyph name="Ntilde" format="1">
  <advance width="749"/>
  <unicode hex="00D1"/>
  <outline>
    <contour>
      <point x="280" y="511" type="line"/>
      <point x="270" y="545" type="line"/>
      <point x="268" y="511" type="line"/>
      <point x="206" y="0" type="line"/>
      <point x="84" y="0" type="line"/>
      <point x="173" y="727" type="line"/>
      <point x="311" y="727" type="line"/>
      <point x="559" y="236" type="line"/>
      <point x="567" y="203" type="line"/>
      <point x="570" y="238" type="line"/>
      <point x="630" y="727" type="line"/>
      <point x="756" y="727" type="line"/>
      <point x="667" y="0" type="line"/>
      <point x="541" y="0" type="line"/>
    </contour>
    <contour>
      <point x="313" y="783" type="line"/>
      <point x="324" y="858"/>
      <point x="378" y="900"/>
      <point x="426" y="901" type="curve"/>
      <point x="485" y="901"/>
      <point x="508" y="848"/>
      <point x="538" y="848" type="curve" smooth="yes" name="hr01"/>
      <point x="555" y="848"/>
      <point x="568" y="866"/>
      <point x="574" y="893" type="curve"/>
      <point x="646" y="887" type="line"/>
      <point x="632" y="803"/>
      <point x="576" y="769"/>
      <point x="538" y="769" type="curve" smooth="yes"/>
      <point x="471" y="769"/>
      <point x="460" y="822"/>
      <point x="427" y="822" type="curve" smooth="yes" name="hr02"/>
      <point x="413" y="822"/>
      <point x="394" y="811"/>
      <point x="387" y="777" type="curve"/>
    </contour>
  </outline>
</glyph>
<glyph name="Ograve" format="1">
  <advance width="791"/>
  <unicode hex="00D2"/>
  <outline>
    <contour>
      <point x="393" y="89" type="curve" name="hr00"/>
      <point x="531" y="89"/>
      <point x="620" y="226"/>
      <point x="637" y="364" type="curve" smooth="yes"/>
      <point x="655" y="512"/>
      <point x="599" y="639"/>
      <point x="461" y="639" type="curve"/>
      <point x="323" y="639"/>
      <point x="235" y="512"/>
      <point x="217" y="364" type="curve"/>
      <point x="200" y="226"/>
      <point x="255" y="89"/>
    </contour>
    <contour>
      <point x="381" y="-14" type="curve"/>
      <point x="155" y="-14"/>
      <point x="38" y="143"/>
      <point x="65" y="364" type="curve"/>
      <point x="92" y="582"/>
      <point x="253" y="742"/>
      <point x="474" y="742" type="curve"/>
      <point x="699" y="742"/>
      <point x="815" y="584"/>
      <point x="788" y="364" type="curve" smooth="yes"/>
      <point x="761" y="145"/>
      <point x="591" y="-14"/>
    </contour>
    <contour>
      <point x="326" y="890" type="line"/>
      <point x="459" y="890" type="line"/>
      <point x="517" y="765" type="line"/>
      <point x="482" y="756"/>
      <point x="405" y="762"/>
      <point x="377" y="808" type="curve"/>
    </contour>
  </outline>
</glyph>
<glyph name="Oacute" format="1">
  <advance width="791"/>
  <unicode hex="00D3"/>
  <outline>
    <contour>
      <point x="391" y="89" type="curve" name="hr00"/>
      <point x="529" y="89"/>
      <point x="618" y="226"/>
      <point x="635" y="364" type="curve" smooth="yes"/>
      <point x="653" y="512"/>
      <point x="597" y="639"/>
      <point x="459" y="639" type="curve"/>
      <point x="321" y="639"/>
      <point x="233" y="512"/>
      <point x="215" y="364" type="curve"/>
      <point x="198" y="226"/>
      <point x="253" y="89"/>
    </contour>
    <contour>
      <point x="379" y="-14" type="curve"/>
      <point x="153" y="-14"/>
      <point x="36" y="143"/>
      <point x="63" y="364" type="curve"/>
      <point x="90" y="582"/>
      <point x="251" y="742"/>
      <point x="472" y="742" type="curve"/>
      <point x="697" y="742"/>
      <point x="813" y="584"/>
      <point x="786" y="364" type="curve" smooth="yes"/>
      <point x="759" y="145"/>
      <point x="589" y="-14"/>
    </contour>
    <contour>
      <point x="576" y="808" type="line"/>
      <point x="530" y="763"/>
      <point x="456" y="756"/>
      <point x="423" y="765" type="curve"/>
      <point x="525" y="890" type="line"/>
      <point x="658" y="890" type="line"/>
    </contour>
  </outline>
</glyph>
<glyph name="Otilde" format="1">
  <advance width="791"/>
  <unicode hex="00D5"/>
  <outline>
    <contour>
      <point x="392" y="89" type="curve"/>
      <point x="530" y="89"/>
      <point x="619" y="226"/>
      <point x="636" y="364" type="curve" smooth="yes"/>
      <point x="654" y="512"/>
      <point x="598" y="639"/>
      <point x="460" y="639" type="curve"/>
      <point x="322" y="639"/>
      <point x="234" y="512"/>
      <point x="216" y="364" type="curve"/>
      <point x="199" y="226"/>
      <point x="254" y="89"/>
    </contour>
    <contour>
      <point x="380" y="-14" type="curve"/>
      <point x="154" y="-14"/>
      <point x="37" y="143"/>
      <point x="64" y="364" type="curve"/>
      <point x="91" y="582"/>
      <point x="252" y="742"/>
      <point x="473" y="742" type="curve"/>
      <point x="698" y="742"/>
      <point x="814" y="584"/>
      <point x="787" y="364" type="curve" smooth="yes"/>
      <point x="760" y="145"/>
      <point x="590" y="-14"/>
    </contour>
    <contour>
      <point x="322" y="783" type="line"/>
      <point x="333" y="858"/>
      <point x="387" y="900"/>
      <point x="435" y="901" type="curve"/>
      <point x="494" y="901"/>
      <point x="517" y="848"/>
      <point x="547" y="848" type="curve" smooth="yes" name="hr01"/>
      <point x="564" y="848"/>
      <point x="577" y="866"/>
      <point x="583" y="893" type="curve"/>
      <point x="655" y="887" type="line"/>
      <point x="641" y="803"/>
      <point x="585" y="769"/>
      <point x="547" y="769" type="curve" smooth="yes"/>
      <point x="480" y="769"/>
      <point x="469" y="822"/>
      <point x="436" y="822" type="curve" smooth="yes" name="hr02"/>
      <point x="422" y="822"/>
      <point x="403" y="811"/>
      <point x="396" y="777" type="curve"/>
    </contour>
  </outline>
</glyph>
<glyph name="Odieresis" format="1">
  <advance width="791"/>
  <unicode hex="00D6"/>
  <outline>
    <contour>
      <point x="392" y="89" type="curve" name="hr00"/>
      <point x="530" y="89"/>
      <point x="619" y="226"/>
      <point x="636" y="364" type="curve" smooth="yes"/>
      <point x="654" y="512"/>
      <point x="598" y="639"/>
      <point x="460" y="639" type="curve"/>
      <point x="322" y="639"/>
      <point x="234" y="512"/>
      <point x="216" y="364" type="curve"/>
      <point x="199" y="226"/>
      <point x="254" y="89"/>
    </contour>
    <contour>
      <point x="380" y="-14" type="curve"/>
      <point x="154" y="-14"/>
      <point x="37" y="143"/>
      <point x="64" y="364" type="curve"/>
      <point x="91" y="582"/>
      <point x="252" y="742"/>
      <point x="473" y="742" type="curve"/>
      <point x="698" y="742"/>
      <point x="814" y="584"/>
      <point x="787" y="364" type="curve" smooth="yes"/>
      <point x="760" y="145"/>
      <point x="590" y="-14"/>
    </contour>
    <contour>
      <point x="326" y="840" type="curve" smooth="yes"/>
      <point x="330" y="875"/>
      <point x="362" y="903"/>
      <point x="396" y="903" type="curve" smooth="yes"/>
      <point x="431" y="903"/>
      <point x="457" y="875"/>
      <point x="453" y="840" type="curve" smooth="yes"/>
      <point x="448" y="805"/>
      <point x="416" y="777"/>
      <point x="381" y="777" type="curve" smooth="yes"/>
      <point x="347" y="777"/>
      <point x="321" y="805"/>
    </contour>
    <contour>
      <point x="521" y="840" type="curve" smooth="yes"/>
      <point x="525" y="875"/>
      <point x="557" y="903"/>
      <point x="591" y="903" type="curve" smooth="yes"/>
      <point x="626" y="903"/>
      <point x="652" y="875"/>
      <point x="648" y="840" type="curve" smooth="yes"/>
      <point x="643" y="805"/>
      <point x="611" y="777"/>
      <point x="576" y="777" type="curve" smooth="yes"/>
      <point x="542" y="777"/>
      <point x="516" y="805"/>
    </contour>
  </outline>
</glyph>
<glyph name="multiply" format="1">
  <advance width="568"/>
  <unicode hex="00D7"/>
  <outline>
    <contour>
      <point x="56" y="139" type="line" name="hr00"/>
      <point x="242" y="306" type="line"/>
      <point x="96" y="471" type="line"/>
      <point x="182" y="546" type="line"/>
      <point x="327" y="381" type="line"/>
      <point x="512" y="546" type="line"/>
      <point x="577" y="471" type="line"/>
      <point x="393" y="306" type="line"/>
      <point x="539" y="139" type="line"/>
      <point x="454" y="64" type="line"/>
      <point x="309" y="230" type="line"/>
      <point x="121" y="64" type="line"/>
    </contour>
  </outline>
</glyph>
<glyph name="Oslash" format="1">
  <advance width="791"/>
  <unicode hex="00D8"/>
  <outline>
    <contour>
      <point x="697" y="665" type="line" name="hr00"/>
      <point x="770" y="598"/>
      <point x="803" y="491"/>
      <point x="787" y="364" type="curve" smooth="yes"/>
      <point x="760" y="145"/>
      <point x="590" y="-14"/>
      <point x="380" y="-14" type="curve" smooth="yes"/>
      <point x="326" y="-14"/>
      <point x="279" y="-5"/>
      <point x="238" y="11" type="curve"/>
      <point x="188" y="-60" type="line"/>
      <point x="69" y="-60" type="line"/>
      <point x="156" y="62" type="line"/>
      <point x="81" y="129"/>
      <point x="48" y="235"/>
      <point x="64" y="364" type="curve" smooth="yes"/>
      <point x="91" y="582"/>
      <point x="252" y="742"/>
      <point x="473" y="742" type="curve" smooth="yes"/>
      <point x="526" y="742"/>
      <point x="574" y="733"/>
      <point x="613" y="716" type="curve"/>
      <point x="666" y="789" type="line"/>
      <point x="785" y="789" type="line"/>
    </contour>
    <contour>
      <point x="392" y="89" type="curve" smooth="yes"/>
      <point x="530" y="89"/>
      <point x="619" y="226"/>
      <point x="636" y="364" type="curve" smooth="yes"/>
      <point x="645" y="433"/>
      <point x="637" y="497"/>
      <point x="613" y="546" type="curve"/>
      <point x="325" y="144" type="line"/>
      <point x="300" y="184"/>
      <point x="274" y="235"/>
      <point x="311" y="294" type="curve"/>
      <point x="545" y="619" type="line"/>
      <point x="521" y="632"/>
      <point x="493" y="639"/>
      <point x="460" y="639" type="curve" smooth="yes"/>
      <point x="322" y="639"/>
      <point x="234" y="512"/>
      <point x="216" y="364" type="curve" smooth="yes"/>
      <point x="199" y="226"/>
      <point x="254" y="89"/>
    </contour>
  </outline>
</glyph>
<glyph name="Ugrave" format="1">
  <advance width="694"/>
  <unicode hex="00D9"/>
  <outline>
    <contour>
      <point x="346" y="-14" type="curve" smooth="yes" name="hr00"/>
      <point x="167" y="-14"/>
      <point x="67" y="89"/>
      <point x="91" y="278" type="curve" smooth="yes"/>
      <point x="146" y="727" type="line"/>
      <point x="287" y="727" type="line"/>
      <point x="230" y="263" type="line" smooth="yes"/>
      <point x="216" y="154"/>
      <point x="272" y="89"/>
      <point x="358" y="89" type="curve" smooth="yes"/>
      <point x="443" y="89"/>
      <point x="516" y="154"/>
      <point x="530" y="263" type="curve" smooth="yes"/>
      <point x="587" y="727" type="line"/>
      <point x="727" y="727" type="line"/>
      <point x="672" y="278" type="line" smooth="yes"/>
      <point x="650" y="101"/>
      <point x="525" y="-14"/>
    </contour>
    <contour>
      <point x="309" y="890" type="line"/>
      <point x="442" y="890" type="line"/>
      <point x="500" y="765" type="line"/>
      <point x="465" y="756"/>
      <point x="388" y="762"/>
      <point x="360" y="808" type="curve"/>
    </contour>
  </outline>
</glyph>
<glyph name="Ucircumflex" format="1">
  <advance width="694"/>
  <unicode hex="00DB"/>
  <outline>
    <contour>
      <point x="345" y="-14" type="curve" smooth="yes" name="hr00"/>
      <point x="166" y="-14"/>
      <point x="66" y="89"/>
      <point x="90" y="278" type="curve" smooth="yes"/>
      <point x="145" y="727" type="line"/>
      <point x="286" y="727" type="line"/>
      <point x="229" y="263" type="line" smooth="yes"/>
      <point x="215" y="154"/>
      <point x="271" y="89"/>
      <point x="357" y="89" type="curve" smooth="yes"/>
      <point x="442" y="89"/>
      <point x="515" y="154"/>
      <point x="529" y="263" type="curve" smooth="yes"/>
      <point x="586" y="727" type="line"/>
      <point x="726" y="727" type="line"/>
      <point x="671" y="278" type="line" smooth="yes"/>
      <point x="649" y="101"/>
      <point x="524" y="-14"/>
    </contour>
    <contour>
      <point x="507" y="890" type="line"/>
      <point x="600" y="774" type="line"/>
      <point x="516" y="756" type="line"/>
      <point x="445" y="812" type="line"/>
      <point x="362" y="756" type="line"/>
      <point x="285" y="774" type="line"/>
      <point x="404" y="890" type="line"/>
    </contour>
  </outline>
</glyph>
<glyph name="Udieresis" format="1">
  <advance width="694"/>
  <unicode hex="00DC"/>
  <outline>
    <contour>
      <point x="344" y="-14" type="curve" smooth="yes" name="hr00"/>
      <point x="165" y="-14"/>
      <point x="65" y="89"/>
      <point x="89" y="278" type="curve" smooth="yes"/>
      <point x="144" y="727" type="line"/>
      <point x="285" y="727" type="line"/>
      <point x="228" y="263" type="line" smooth="yes"/>
      <point x="214" y="154"/>
      <point x="270" y="89"/>
      <point x="356" y="89" type="curve" smooth="yes"/>
      <point x="441" y="89"/>
      <point x="514" y="154"/>
      <point x="528" y="263" type="curve" smooth="yes"/>
      <point x="585" y="727" type="line"/>
      <point x="725" y="727" type="line"/>
      <point x="670" y="278" type="line" smooth="yes"/>
      <point x="648" y="101"/>
      <point x="523" y="-14"/>
    </contour>
    <contour>
      <point x="290" y="840" type="curve" smooth="yes"/>
      <point x="294" y="875"/>
      <point x="326" y="903"/>
      <point x="360" y="903" type="curve" smooth="yes"/>
      <point x="395" y="903"/>
      <point x="421" y="875"/>
      <point x="417" y="840" type="curve" smooth="yes"/>
      <point x="412" y="805"/>
      <point x="380" y="777"/>
      <point x="345" y="777" type="curve" smooth="yes"/>
      <point x="311" y="777"/>
      <point x="285" y="805"/>
    </contour>
    <contour>
      <point x="485" y="840" type="curve" smooth="yes"/>
      <point x="489" y="875"/>
      <point x="521" y="903"/>
      <point x="555" y="903" type="curve" smooth="yes"/>
      <point x="590" y="903"/>
      <point x="616" y="875"/>
      <point x="612" y="840" type="curve" smooth="yes"/>
      <point x="607" y="805"/>
      <point x="575" y="777"/>
      <point x="540" y="777" type="curve" smooth="yes"/>
      <point x="506" y="777"/>
      <point x="480" y="805"/>
    </contour>
  </outline>
</glyph>
<glyph name="Yacute" format="1">
  <advance width="660"/>
  <unicode hex="00DD"/>
  <outline>
    <contour>
      <point x="435" y="339" type="line" name="hr00"/>
      <point x="394" y="0" type="line"/>
      <point x="256" y="0" type="line"/>
      <point x="295" y="322" type="line"/>
      <point x="94" y="727" type="line"/>
      <point x="250" y="727" type="line"/>
    </contour>
    <contour>
      <point x="571" y="727" type="line"/>
      <point x="725" y="727" type="line"/>
      <point x="470" y="377" type="line"/>
      <point x="448" y="411"/>
      <point x="414" y="493"/>
      <point x="456" y="557" type="curve"/>
    </contour>
    <contour>
      <point x="532" y="808" type="line"/>
      <point x="486" y="763"/>
      <point x="412" y="756"/>
      <point x="379" y="765" type="curve"/>
      <point x="481" y="890" type="line"/>
      <point x="614" y="890" type="line"/>
    </contour>
  </outline>
</glyph>
<glyph name="Thorn" format="1">
  <advance width="609"/>
  <unicode hex="00DE"/>
  <outline>
    <contour>
      <point x="621" y="364" type="curve" smooth="yes" name="hr00"/>
      <point x="604" y="226"/>
      <point x="481" y="146"/>
      <point x="361" y="135" type="curve" smooth="yes"/>
      <point x="331" y="132"/>
      <point x="297" y="133"/>
      <point x="261" y="144" type="curve"/>
      <point x="281" y="182"/>
      <point x="313" y="231"/>
      <point x="358" y="235" type="curve" smooth="yes"/>
      <point x="414" y="240"/>
      <point x="466" y="294"/>
      <point x="474" y="364" type="curve" smooth="yes"/>
      <point x="483" y="438"/>
      <point x="434" y="494"/>
      <point x="351" y="494" type="curve" smooth="yes"/>
      <point x="315" y="494"/>
      <point x="303" y="492"/>
      <point x="266" y="488" type="curve"/>
      <point x="207" y="0" type="line"/>
      <point x="71" y="0" type="line"/>
      <point x="160" y="727" type="line"/>
      <point x="296" y="727" type="line"/>
      <point x="279" y="594" type="line"/>
      <point x="308" y="596"/>
      <point x="334" y="597"/>
      <point x="364" y="597" type="curve" smooth="yes"/>
      <point x="526" y="597"/>
      <point x="639" y="511"/>
    </contour>
  </outline>
</glyph>
<glyph name="germandbls" format="1">
  <advance width="567"/>
  <unicode hex="00DF"/>
  <outline>
    <contour>
      <point x="298" y="115" type="line" name="hr00"/>
      <point x="337" y="97"/>
      <point x="369" y="92"/>
      <point x="389" y="92" type="curve" smooth="yes"/>
      <point x="425" y="92"/>
      <point x="454" y="113"/>
      <point x="458" y="144" type="curve" smooth="yes"/>
      <point x="469" y="229"/>
      <point x="296" y="243"/>
      <point x="316" y="401" type="curve" smooth="yes"/>
      <point x="323" y="459"/>
      <point x="376" y="519"/>
      <point x="449" y="546" type="curve"/>
      <point x="454" y="561"/>
      <point x="456" y="573"/>
      <point x="458" y="588" type="curve" smooth="yes"/>
      <point x="463" y="631"/>
      <point x="433" y="663"/>
      <point x="382" y="663" type="curve" smooth="yes"/>
      <point x="324" y="663"/>
      <point x="277" y="623"/>
      <point x="269" y="555" type="curve" smooth="yes"/>
      <point x="201" y="0" type="line"/>
      <point x="67" y="-1" type="line"/>
      <point x="134" y="544" type="line" smooth="yes"/>
      <point x="153" y="693"/>
      <point x="265" y="763"/>
      <point x="387" y="763" type="curve" smooth="yes"/>
      <point x="511" y="763"/>
      <point x="580" y="693"/>
      <point x="567" y="588" type="curve" smooth="yes"/>
      <point x="562" y="553"/>
      <point x="545" y="516"/>
      <point x="515" y="476" type="curve"/>
      <point x="468" y="458"/>
      <point x="442" y="435"/>
      <point x="438" y="401" type="curve" smooth="yes"/>
      <point x="427" y="314"/>
      <point x="600" y="306"/>
      <point x="580" y="141" type="curve" smooth="yes"/>
      <point x="568" y="43"/>
      <point x="477" y="-12"/>
      <point x="392" y="-12" type="curve" smooth="yes"/>
      <point x="352" y="-12"/>
      <point x="311" y="-7"/>
      <point x="252" y="25" type="curve"/>
    </contour>
  </outline>
</glyph>
<glyph name="atilde" format="1">
  <advance width="613"/>
  <unicode hex="00E3"/>
  <outline>
    <contour>
      <point x="550" y="126" type="line"/>
      <point x="545" y="89"/>
      <point x="544" y="47"/>
      <point x="550" y="0" type="curve"/>
      <point x="443" y="0" type="line"/>
      <point x="427" y="9"/>
      <point x="406" y="56"/>
      <point x="412" y="105" type="curve" smooth="yes"/>
      <point x="450" y="418" type="line"/>
      <point x="424" y="424"/>
      <point x="400" y="426"/>
      <point x="386" y="426" type="curve" smooth="yes"/>
      <point x="295" y="426"/>
      <point x="237" y="350"/>
      <point x="224" y="240" type="curve" smooth="yes"/>
      <point x="216" y="176"/>
      <point x="221" y="92"/>
      <point x="289" y="97" type="curve" smooth="yes" name="hr01"/>
      <point x="328" y="100"/>
      <point x="345" y="69"/>
      <point x="366" y="32" type="curve"/>
      <point x="326" y="10"/>
      <point x="283" y="-7"/>
      <point x="249" y="-9" type="curve" smooth="yes"/>
      <point x="122" y="-16"/>
      <point x="60" y="121"/>
      <point x="75" y="240" type="curve" smooth="yes"/>
      <point x="94" y="399"/>
      <point x="214" y="529"/>
      <point x="393" y="529" type="curve" smooth="yes"/>
      <point x="449" y="529"/>
      <point x="499" y="524"/>
      <point x="596" y="499" type="curve"/>
    </contour>
    <contour>
      <point x="234" y="624" type="line"/>
      <point x="245" y="699"/>
      <point x="299" y="741"/>
      <point x="348" y="742" type="curve"/>
      <point x="407" y="742"/>
      <point x="429" y="689"/>
      <point x="459" y="689" type="curve" smooth="yes"/>
      <point x="476" y="689"/>
      <point x="489" y="707"/>
      <point x="496" y="734" type="curve"/>
      <point x="568" y="728" type="line"/>
      <point x="554" y="644"/>
      <point x="497" y="610"/>
      <point x="459" y="610" type="curve" smooth="yes"/>
      <point x="392" y="610"/>
      <point x="382" y="663"/>
      <point x="349" y="663" type="curve" smooth="yes"/>
      <point x="335" y="663"/>
      <point x="316" y="652"/>
      <point x="308" y="618" type="curve"/>
    </contour>
  </outline>
</glyph>
<glyph name="adieresis" format="1">
  <advance width="613"/>
  <unicode hex="00E4"/>
  <outline>
    <contour>
      <point x="550" y="126" type="line"/>
      <point x="545" y="89"/>
      <point x="544" y="47"/>
      <point x="550" y="0" type="curve"/>
      <point x="443" y="0" type="line"/>
      <point x="427" y="9"/>
      <point x="406" y="56"/>
      <point x="412" y="105" type="curve" smooth="yes"/>
      <point x="450" y="418" type="line"/>
      <point x="424" y="424"/>
      <point x="400" y="426"/>
      <point x="386" y="426" type="curve" smooth="yes"/>
      <point x="295" y="426"/>
      <point x="237" y="350"/>
      <point x="224" y="240" type="curve" smooth="yes"/>
      <point x="216" y="176"/>
      <point x="221" y="92"/>
      <point x="289" y="97" type="curve" smooth="yes" name="hr01"/>
      <point x="328" y="100"/>
      <point x="345" y="69"/>
      <point x="366" y="32" type="curve"/>
      <point x="326" y="10"/>
      <point x="283" y="-7"/>
      <point x="249" y="-9" type="curve" smooth="yes"/>
      <point x="122" y="-16"/>
      <point x="60" y="121"/>
      <point x="75" y="240" type="curve" smooth="yes"/>
      <point x="94" y="399"/>
      <point x="214" y="529"/>
      <point x="393" y="529" type="curve" smooth="yes"/>
      <point x="449" y="529"/>
      <point x="499" y="524"/>
      <point x="596" y="499" type="curve"/>
    </contour>
    <contour>
      <point x="243" y="670" type="curve" smooth="yes"/>
      <point x="247" y="705"/>
      <point x="280" y="733"/>
      <point x="314" y="733" type="curve" smooth="yes"/>
      <point x="349" y="733"/>
      <point x="374" y="705"/>
      <point x="370" y="670" type="curve" smooth="yes"/>
      <point x="365" y="635"/>
      <point x="333" y="607"/>
      <point x="298" y="607" type="curve" smooth="yes"/>
      <point x="264" y="607"/>
      <point x="238" y="635"/>
    </contour>
    <contour>
      <point x="438" y="670" type="curve" smooth="yes"/>
      <point x="442" y="705"/>
      <point x="475" y="733"/>
      <point x="509" y="733" type="curve" smooth="yes"/>
      <point x="544" y="733"/>
      <point x="569" y="705"/>
      <point x="565" y="670" type="curve" smooth="yes"/>
      <point x="560" y="635"/>
      <point x="528" y="607"/>
      <point x="493" y="607" type="curve" smooth="yes"/>
      <point x="459" y="607"/>
      <point x="433" y="635"/>
    </contour>
  </outline>
</glyph>
<glyph name="ae" format="1">
  <advance width="850"/>
  <unicode hex="00E6"/>
  <outline>
    <contour>
      <point x="718" y="317" type="line"/>
      <point x="734" y="378"/>
      <point x="706" y="433"/>
      <point x="645" y="433" type="curve" smooth="yes"/>
      <point x="590" y="433"/>
      <point x="522" y="386"/>
      <point x="508" y="272" type="curve" smooth="yes"/>
      <point x="494" y="157"/>
      <point x="543" y="90"/>
      <point x="627" y="90" type="curve" smooth="yes"/>
      <point x="673" y="90"/>
      <point x="716" y="101"/>
      <point x="777" y="127" type="curve"/>
      <point x="801" y="34" type="line"/>
      <point x="725" y="0"/>
      <point x="661" y="-13"/>
      <point x="599" y="-13" type="curve" smooth="yes"/>
      <point x="505" y="-13"/>
      <point x="435" y="57"/>
      <point x="421" y="121" type="curve"/>
      <point x="368" y="26"/>
      <point x="272" y="-13"/>
      <point x="205" y="-13" type="curve" smooth="yes"/>
      <point x="98" y="-13"/>
      <point x="32" y="44"/>
      <point x="43" y="138" type="curve"/>
      <point x="54" y="221"/>
      <point x="126" y="297"/>
      <point x="339" y="313" type="curve"/>
      <point x="326" y="266"/>
      <point x="302" y="228"/>
      <point x="260" y="220" type="curve"/>
      <point x="209" y="212"/>
      <point x="183" y="184"/>
      <point x="179" y="151" type="curve" smooth="yes"/>
      <point x="175" y="116"/>
      <point x="200" y="90"/>
      <point x="235" y="90" type="curve" smooth="yes"/>
      <point x="305" y="90"/>
      <point x="356" y="162"/>
      <point x="369" y="265" type="curve" smooth="yes"/>
      <point x="375" y="311" type="line" smooth="yes"/>
      <point x="383" y="380"/>
      <point x="349" y="425"/>
      <point x="279" y="425" type="curve" smooth="yes"/>
      <point x="246" y="425"/>
      <point x="208" y="419"/>
      <point x="159" y="402" type="curve"/>
      <point x="136" y="490" type="line"/>
      <point x="198" y="517"/>
      <point x="267" y="528"/>
      <point x="314" y="528" type="curve" smooth="yes" name="hr01"/>
      <point x="377" y="528"/>
      <point x="439" y="491"/>
      <point x="468" y="420" type="curve"/>
      <point x="514" y="487"/>
      <point x="595" y="530"/>
      <point x="664" y="530" type="curve" smooth="yes" name="hr02"/>
      <point x="812" y="530"/>
      <point x="901" y="407"/>
      <point x="821" y="235" type="curve"/>
      <point x="541" y="235" type="line"/>
      <point x="561" y="281"/>
      <point x="595" y="317"/>
      <point x="629" y="317" type="curve" smooth="yes"/>
    </contour>
  </outline>
</glyph>
<glyph name="ccedilla" format="1">
  <advance width="427"/>
  <unicode hex="00E7"/>
  <outline>
    <contour>
      <point x="350" y="530" type="curve" smooth="yes" name="hr00"/>
      <point x="386" y="530"/>
      <point x="430" y="523"/>
      <point x="468" y="508" type="curve"/>
      <point x="422" y="415" type="line"/>
      <point x="391" y="423"/>
      <point x="359" y="427"/>
      <point x="337" y="427" type="curve" smooth="yes"/>
      <point x="265" y="427"/>
      <point x="209" y="363"/>
      <point x="196" y="259" type="curve" smooth="yes"/>
      <point x="183" y="154"/>
      <point x="224" y="90"/>
      <point x="296" y="90" type="curve" smooth="yes"/>
      <point x="324" y="90"/>
      <point x="354" y="97"/>
      <point x="399" y="114" type="curve"/>
      <point x="422" y="22" type="line"/>
      <point x="368" y="-1"/>
      <point x="321" y="-12"/>
      <point x="285" y="-13" type="curve"/>
      <point x="274" y="-43" type="line"/>
      <point x="313" y="-52"/>
      <point x="351" y="-79"/>
      <point x="345" y="-123" type="curve" smooth="yes"/>
      <point x="338" y="-183"/>
      <point x="268" y="-213"/>
      <point x="207" y="-213" type="curve" smooth="yes"/>
      <point x="184" y="-213"/>
      <point x="159" y="-207"/>
      <point x="129" y="-193" type="curve"/>
      <point x="154" y="-138" type="line"/>
      <point x="177" y="-147"/>
      <point x="195" y="-150"/>
      <point x="215" y="-150" type="curve" smooth="yes"/>
      <point x="238" y="-150"/>
      <point x="256" y="-141"/>
      <point x="258" y="-126" type="curve" smooth="yes"/>
      <point x="260" y="-106"/>
      <point x="235" y="-96"/>
      <point x="188" y="-91" type="curve"/>
      <point x="221" y="-7" type="line"/>
      <point x="110" y="14"/>
      <point x="28" y="96"/>
      <point x="48" y="259" type="curve" smooth="yes"/>
      <point x="71" y="440"/>
      <point x="211" y="530"/>
    </contour>
  </outline>
</glyph>
<glyph name="egrave" format="1">
  <advance width="544"/>
  <unicode hex="00E8"/>
  <outline>
    <contour>
      <point x="415" y="317" type="line" name="hr00"/>
      <point x="431" y="378"/>
      <point x="403" y="433"/>
      <point x="342" y="433" type="curve" smooth="yes"/>
      <point x="287" y="433"/>
      <point x="219" y="386"/>
      <point x="205" y="272" type="curve" smooth="yes"/>
      <point x="191" y="157"/>
      <point x="240" y="90"/>
      <point x="324" y="90" type="curve" smooth="yes"/>
      <point x="370" y="90"/>
      <point x="413" y="101"/>
      <point x="474" y="127" type="curve"/>
      <point x="498" y="34" type="line"/>
      <point x="422" y="0"/>
      <point x="358" y="-13"/>
      <point x="296" y="-13" type="curve" smooth="yes"/>
      <point x="113" y="-13"/>
      <point x="50" y="132"/>
      <point x="66" y="267" type="curve" smooth="yes"/>
      <point x="87" y="432"/>
      <point x="216" y="530"/>
      <point x="361" y="530" type="curve" smooth="yes"/>
      <point x="509" y="530"/>
      <point x="598" y="407"/>
      <point x="518" y="235" type="curve"/>
      <point x="238" y="235" type="line"/>
      <point x="258" y="281"/>
      <point x="292" y="317"/>
      <point x="326" y="317" type="curve"/>
    </contour>
    <contour>
      <point x="223" y="740" type="line"/>
      <point x="357" y="740" type="line"/>
      <point x="413" y="602" type="line"/>
      <point x="378" y="594"/>
      <point x="310" y="601"/>
      <point x="276" y="649" type="curve"/>
    </contour>
  </outline>
</glyph>
<glyph name="eacute" format="1">
  <advance width="544"/>
  <unicode hex="00E9"/>
  <outline>
    <contour>
      <point x="414" y="317" type="line" name="hr00"/>
      <point x="430" y="378"/>
      <point x="402" y="433"/>
      <point x="341" y="433" type="curve" smooth="yes"/>
      <point x="286" y="433"/>
      <point x="218" y="386"/>
      <point x="204" y="272" type="curve" smooth="yes"/>
      <point x="190" y="157"/>
      <point x="239" y="90"/>
      <point x="323" y="90" type="curve" smooth="yes"/>
      <point x="369" y="90"/>
      <point x="412" y="101"/>
      <point x="473" y="127" type="curve"/>
      <point x="497" y="34" type="line"/>
      <point x="421" y="0"/>
      <point x="357" y="-13"/>
      <point x="295" y="-13" type="curve" smooth="yes"/>
      <point x="112" y="-13"/>
      <point x="49" y="132"/>
      <point x="65" y="267" type="curve" smooth="yes"/>
      <point x="86" y="432"/>
      <point x="215" y="530"/>
      <point x="360" y="530" type="curve" smooth="yes"/>
      <point x="508" y="530"/>
      <point x="597" y="407"/>
      <point x="517" y="235" type="curve"/>
      <point x="237" y="235" type="line"/>
      <point x="257" y="281"/>
      <point x="291" y="317"/>
      <point x="325" y="317" type="curve"/>
    </contour>
    <contour>
      <point x="451" y="645" type="line"/>
      <point x="406" y="597"/>
      <point x="332" y="593"/>
      <point x="299" y="602" type="curve"/>
      <point x="402" y="740" type="line"/>
      <point x="541" y="740" type="line"/>
    </contour>
  </outline>
</glyph>
<glyph name="ecircumflex" format="1">
  <advance width="544"/>
  <unicode hex="00EA"/>
  <outline>
    <contour>
      <point x="413" y="317" type="line" name="hr00"/>
      <point x="429" y="378"/>
      <point x="401" y="433"/>
      <point x="340" y="433" type="curve" smooth="yes"/>
      <point x="285" y="433"/>
      <point x="217" y="386"/>
      <point x="203" y="272" type="curve" smooth="yes"/>
      <point x="189" y="157"/>
      <point x="238" y="90"/>
      <point x="322" y="90" type="curve" smooth="yes"/>
      <point x="368" y="90"/>
      <point x="411" y="101"/>
      <point x="472" y="127" type="curve"/>
      <point x="496" y="34" type="line"/>
      <point x="420" y="0"/>
      <point x="356" y="-13"/>
      <point x="294" y="-13" type="curve" smooth="yes"/>
      <point x="111" y="-13"/>
      <point x="48" y="132"/>
      <point x="64" y="267" type="curve" smooth="yes"/>
      <point x="85" y="432"/>
      <point x="214" y="530"/>
      <point x="359" y="530" type="curve" smooth="yes"/>
      <point x="507" y="530"/>
      <point x="596" y="407"/>
      <point x="516" y="235" type="curve"/>
      <point x="236" y="235" type="line"/>
      <point x="256" y="281"/>
      <point x="290" y="317"/>
      <point x="324" y="317" type="curve"/>
    </contour>
    <contour>
      <point x="434" y="743" type="line"/>
      <point x="524" y="603" type="line"/>
      <point x="440" y="585" type="line"/>
      <point x="371" y="658" type="line"/>
      <point x="286" y="585" type="line"/>
      <point x="209" y="603" type="line"/>
      <point x="331" y="743" type="line"/>
    </contour>
  </outline>
</glyph>
<glyph name="edieresis" format="1">
  <advance width="544"/>
  <unicode hex="00EB"/>
  <outline>
    <contour>
      <point x="415" y="317" type="line" name="hr00"/>
      <point x="431" y="378"/>
      <point x="403" y="433"/>
      <point x="342" y="433" type="curve" smooth="yes"/>
      <point x="287" y="433"/>
      <point x="219" y="386"/>
      <point x="205" y="272" type="curve" smooth="yes"/>
      <point x="191" y="157"/>
      <point x="240" y="90"/>
      <point x="324" y="90" type="curve" smooth="yes"/>
      <point x="370" y="90"/>
      <point x="413" y="101"/>
      <point x="474" y="127" type="curve"/>
      <point x="498" y="34" type="line"/>
      <point x="422" y="0"/>
      <point x="358" y="-13"/>
      <point x="296" y="-13" type="curve" smooth="yes"/>
      <point x="113" y="-13"/>
      <point x="50" y="132"/>
      <point x="66" y="267" type="curve" smooth="yes"/>
      <point x="87" y="432"/>
      <point x="216" y="530"/>
      <point x="361" y="530" type="curve" smooth="yes"/>
      <point x="509" y="530"/>
      <point x="598" y="407"/>
      <point x="518" y="235" type="curve"/>
      <point x="238" y="235" type="line"/>
      <point x="258" y="281"/>
      <point x="292" y="317"/>
      <point x="326" y="317" type="curve"/>
    </contour>
    <contour>
      <point x="206" y="670" type="curve" smooth="yes"/>
      <point x="210" y="705"/>
      <point x="243" y="733"/>
      <point x="277" y="733" type="curve" smooth="yes"/>
      <point x="312" y="733"/>
      <point x="337" y="705"/>
      <point x="333" y="670" type="curve" smooth="yes"/>
      <point x="328" y="635"/>
      <point x="296" y="607"/>
      <point x="261" y="607" type="curve" smooth="yes"/>
      <point x="227" y="607"/>
      <point x="201" y="635"/>
    </contour>
    <contour>
      <point x="401" y="670" type="curve" smooth="yes"/>
      <point x="405" y="705"/>
      <point x="438" y="733"/>
      <point x="472" y="733" type="curve" smooth="yes"/>
      <point x="507" y="733"/>
      <point x="532" y="705"/>
      <point x="528" y="670" type="curve" smooth="yes"/>
      <point x="523" y="635"/>
      <point x="491" y="607"/>
      <point x="456" y="607" type="curve" smooth="yes"/>
      <point x="422" y="607"/>
      <point x="396" y="635"/>
    </contour>
  </outline>
</glyph>
<glyph name="iacute" format="1">
  <advance width="273"/>
  <unicode hex="00ED"/>
  <outline>
    <contour>
      <point x="48" y="0" type="line" name="hr00"/>
      <point x="111" y="517" type="line"/>
      <point x="251" y="517" type="line"/>
      <point x="188" y="0" type="line"/>
    </contour>
    <contour>
      <point x="280" y="645" type="line"/>
      <point x="235" y="597"/>
      <point x="161" y="593"/>
      <point x="128" y="602" type="curve"/>
      <point x="231" y="740" type="line"/>
      <point x="370" y="740" type="line"/>
    </contour>
  </outline>
</glyph>
<glyph name="icircumflex" format="1">
  <advance width="337"/>
  <unicode hex="00EE"/>
  <outline>
    <contour>
      <point x="97" y="0" type="line" name="hr00"/>
      <point x="160" y="517" type="line"/>
      <point x="300" y="517" type="line"/>
      <point x="237" y="0" type="line"/>
    </contour>
    <contour>
      <point x="310" y="743" type="line"/>
      <point x="400" y="603" type="line"/>
      <point x="316" y="585" type="line"/>
      <point x="247" y="658" type="line"/>
      <point x="162" y="585" type="line"/>
      <point x="85" y="603" type="line"/>
      <point x="207" y="743" type="line"/>
    </contour>
  </outline>
</glyph>
<glyph name="idieresis" format="1">
  <advance width="352"/>
  <unicode hex="00EF"/>
  <outline>
    <contour>
      <point x="106" y="0" type="line" name="hr00"/>
      <point x="169" y="517" type="line"/>
      <point x="309" y="517" type="line"/>
      <point x="246" y="0" type="line"/>
    </contour>
    <contour>
      <point x="96" y="670" type="curve" smooth="yes"/>
      <point x="100" y="705"/>
      <point x="133" y="733"/>
      <point x="167" y="733" type="curve" smooth="yes"/>
      <point x="202" y="733"/>
      <point x="227" y="705"/>
      <point x="223" y="670" type="curve" smooth="yes"/>
      <point x="218" y="635"/>
      <point x="186" y="607"/>
      <point x="151" y="607" type="curve" smooth="yes"/>
      <point x="117" y="607"/>
      <point x="91" y="635"/>
    </contour>
    <contour>
      <point x="291" y="670" type="curve" smooth="yes"/>
      <point x="295" y="705"/>
      <point x="328" y="733"/>
      <point x="362" y="733" type="curve" smooth="yes"/>
      <point x="397" y="733"/>
      <point x="422" y="705"/>
      <point x="418" y="670" type="curve" smooth="yes"/>
      <point x="413" y="635"/>
      <point x="381" y="607"/>
      <point x="346" y="607" type="curve" smooth="yes"/>
      <point x="312" y="607"/>
      <point x="286" y="635"/>
    </contour>
  </outline>
</glyph>
<glyph name="eth" format="1">
  <advance width="557"/>
  <unicode hex="00F0"/>
  <outline>
    <contour>
      <point x="581" y="259" type="curve" smooth="yes" name="hr00"/>
      <point x="562" y="105"/>
      <point x="429" y="-13"/>
      <point x="280" y="-13" type="curve" smooth="yes"/>
      <point x="130" y="-13"/>
      <point x="25" y="92"/>
      <point x="45" y="259" type="curve" smooth="yes"/>
      <point x="64" y="412"/>
      <point x="197" y="530"/>
      <point x="347" y="530" type="curve" smooth="yes"/>
      <point x="370" y="530"/>
      <point x="397" y="525"/>
      <point x="419" y="515" type="curve"/>
      <point x="398" y="546"/>
      <point x="371" y="575"/>
      <point x="340" y="600" type="curve"/>
      <point x="219" y="546" type="line"/>
      <point x="199" y="604" type="line"/>
      <point x="282" y="642" type="line"/>
      <point x="256" y="658"/>
      <point x="230" y="673"/>
      <point x="204" y="686" type="curve"/>
      <point x="256" y="762" type="line"/>
      <point x="302" y="742"/>
      <point x="346" y="718"/>
      <point x="385" y="688" type="curve"/>
      <point x="501" y="741" type="line"/>
      <point x="523" y="682" type="line"/>
      <point x="439" y="644" type="line"/>
      <point x="539" y="549"/>
      <point x="601" y="418"/>
    </contour>
    <contour>
      <point x="193" y="259" type="curve" smooth="yes"/>
      <point x="182" y="165"/>
      <point x="214" y="89"/>
      <point x="292" y="89" type="curve" smooth="yes"/>
      <point x="370" y="89"/>
      <point x="421" y="165"/>
      <point x="432" y="259" type="curve" smooth="yes"/>
      <point x="444" y="352"/>
      <point x="412" y="428"/>
      <point x="334" y="428" type="curve" smooth="yes"/>
      <point x="256" y="428"/>
      <point x="205" y="352"/>
    </contour>
  </outline>
</glyph>
<glyph name="ntilde" format="1">
  <advance width="596"/>
  <unicode hex="00F1"/>
  <outline>
    <contour>
      <point x="431" y="367" type="line"/>
      <point x="435" y="400"/>
      <point x="426" y="424"/>
      <point x="392" y="424" type="curve" smooth="yes"/>
      <point x="379" y="424"/>
      <point x="368" y="419"/>
      <point x="349" y="418" type="curve"/>
      <point x="317" y="416"/>
      <point x="301" y="452"/>
      <point x="286" y="484" type="curve"/>
      <point x="356" y="519"/>
      <point x="405" y="530"/>
      <point x="451" y="530" type="curve" smooth="yes"/>
      <point x="520" y="530"/>
      <point x="583" y="478"/>
      <point x="570" y="369" type="curve" smooth="yes"/>
      <point x="525" y="0" type="line"/>
      <point x="386" y="0" type="line"/>
    </contour>
    <contour>
      <point x="208" y="624" type="line"/>
      <point x="219" y="699"/>
      <point x="273" y="741"/>
      <point x="322" y="742" type="curve"/>
      <point x="381" y="742"/>
      <point x="403" y="689"/>
      <point x="433" y="689" type="curve" smooth="yes" name="hr01"/>
      <point x="450" y="689"/>
      <point x="463" y="707"/>
      <point x="470" y="734" type="curve"/>
      <point x="542" y="728" type="line"/>
      <point x="528" y="644"/>
      <point x="471" y="610"/>
      <point x="433" y="610" type="curve" smooth="yes"/>
      <point x="366" y="610"/>
      <point x="356" y="663"/>
      <point x="323" y="663" type="curve" smooth="yes" name="hr02"/>
      <point x="309" y="663"/>
      <point x="290" y="652"/>
      <point x="282" y="618" type="curve"/>
    </contour>
    <contour>
      <point x="226" y="517" type="line"/>
      <point x="254" y="481"/>
      <point x="257" y="447"/>
      <point x="252" y="407" type="curve" smooth="yes"/>
      <point x="203" y="0" type="line"/>
      <point x="63" y="0" type="line"/>
      <point x="110" y="386" type="line" smooth="yes"/>
      <point x="114" y="423"/>
      <point x="114" y="465"/>
      <point x="109" y="512" type="curve"/>
    </contour>
  </outline>
</glyph>
<glyph name="ograve" format="1">
  <advance width="566"/>
  <unicode hex="00F2"/>
  <outline>
    <contour>
      <point x="580" y="259" type="curve" smooth="yes" name="hr00"/>
      <point x="561" y="105"/>
      <point x="428" y="-13"/>
      <point x="279" y="-13" type="curve" smooth="yes"/>
      <point x="129" y="-13"/>
      <point x="24" y="92"/>
      <point x="44" y="259" type="curve" smooth="yes"/>
      <point x="63" y="412"/>
      <point x="196" y="530"/>
      <point x="346" y="530" type="curve" smooth="yes"/>
      <point x="495" y="530"/>
      <point x="601" y="424"/>
    </contour>
    <contour>
      <point x="192" y="259" type="curve"/>
      <point x="181" y="165"/>
      <point x="213" y="89"/>
      <point x="291" y="89" type="curve" smooth="yes"/>
      <point x="369" y="89"/>
      <point x="420" y="165"/>
      <point x="431" y="259" type="curve" smooth="yes"/>
      <point x="443" y="352"/>
      <point x="411" y="428"/>
      <point x="333" y="428" type="curve" smooth="yes"/>
      <point x="255" y="428"/>
      <point x="204" y="352"/>
    </contour>
    <contour>
      <point x="224" y="740" type="line"/>
      <point x="358" y="740" type="line"/>
      <point x="414" y="602" type="line"/>
      <point x="379" y="594"/>
      <point x="311" y="601"/>
      <point x="277" y="649" type="curve"/>
    </contour>
  </outline>
</glyph>
<glyph name="oacute" format="1">
  <advance width="566"/>
  <unicode hex="00F3"/>
  <outline>
    <contour>
      <point x="580" y="259" type="curve" smooth="yes" name="hr00"/>
      <point x="561" y="105"/>
      <point x="428" y="-13"/>
      <point x="279" y="-13" type="curve" smooth="yes"/>
      <point x="129" y="-13"/>
      <point x="24" y="92"/>
      <point x="44" y="259" type="curve" smooth="yes"/>
      <point x="63" y="412"/>
      <point x="196" y="530"/>
      <point x="346" y="530" type="curve" smooth="yes"/>
      <point x="495" y="530"/>
      <point x="601" y="424"/>
    </contour>
    <contour>
      <point x="192" y="259" type="curve"/>
      <point x="181" y="165"/>
      <point x="213" y="89"/>
      <point x="291" y="89" type="curve" smooth="yes"/>
      <point x="369" y="89"/>
      <point x="420" y="165"/>
      <point x="431" y="259" type="curve" smooth="yes"/>
      <point x="443" y="352"/>
      <point x="411" y="428"/>
      <point x="333" y="428" type="curve" smooth="yes"/>
      <point x="255" y="428"/>
      <point x="204" y="352"/>
    </contour>
    <contour>
      <point x="443" y="645" type="line"/>
      <point x="398" y="597"/>
      <point x="324" y="593"/>
      <point x="291" y="602" type="curve"/>
      <point x="394" y="740" type="line"/>
      <point x="533" y="740" type="line"/>
    </contour>
  </outline>
</glyph>
<glyph name="ocircumflex" format="1">
  <advance width="566"/>
  <unicode hex="00F4"/>
  <outline>
    <contour>
      <point x="580" y="259" type="curve" smooth="yes" name="hr00"/>
      <point x="561" y="105"/>
      <point x="428" y="-13"/>
      <point x="279" y="-13" type="curve" smooth="yes"/>
      <point x="129" y="-13"/>
      <point x="24" y="92"/>
      <point x="44" y="259" type="curve" smooth="yes"/>
      <point x="63" y="412"/>
      <point x="196" y="530"/>
      <point x="346" y="530" type="curve" smooth="yes"/>
      <point x="495" y="530"/>
      <point x="601" y="424"/>
    </contour>
    <contour>
      <point x="192" y="259" type="curve"/>
      <point x="181" y="165"/>
      <point x="213" y="89"/>
      <point x="291" y="89" type="curve" smooth="yes"/>
      <point x="369" y="89"/>
      <point x="420" y="165"/>
      <point x="431" y="259" type="curve" smooth="yes"/>
      <point x="443" y="352"/>
      <point x="411" y="428"/>
      <point x="333" y="428" type="curve" smooth="yes"/>
      <point x="255" y="428"/>
      <point x="204" y="352"/>
    </contour>
    <contour>
      <point x="423" y="743" type="line"/>
      <point x="513" y="603" type="line"/>
      <point x="429" y="585" type="line"/>
      <point x="360" y="658" type="line"/>
      <point x="275" y="585" type="line"/>
      <point x="198" y="603" type="line"/>
      <point x="320" y="743" type="line"/>
    </contour>
  </outline>
</glyph>
<glyph name="otilde" format="1">
  <advance width="566"/>
  <unicode hex="00F5"/>
  <outline>
    <contour>
      <point x="580" y="259" type="curve" smooth="yes"/>
      <point x="561" y="105"/>
      <point x="428" y="-13"/>
      <point x="279" y="-13" type="curve" smooth="yes"/>
      <point x="129" y="-13"/>
      <point x="24" y="92"/>
      <point x="44" y="259" type="curve" smooth="yes"/>
      <point x="63" y="412"/>
      <point x="196" y="530"/>
      <point x="346" y="530" type="curve" smooth="yes"/>
      <point x="495" y="530"/>
      <point x="601" y="424"/>
    </contour>
    <contour>
      <point x="192" y="259" type="curve"/>
      <point x="181" y="165"/>
      <point x="213" y="89"/>
      <point x="291" y="89" type="curve" smooth="yes"/>
      <point x="369" y="89"/>
      <point x="420" y="165"/>
      <point x="431" y="259" type="curve" smooth="yes"/>
      <point x="443" y="352"/>
      <point x="411" y="428"/>
      <point x="333" y="428" type="curve" smooth="yes"/>
      <point x="255" y="428"/>
      <point x="204" y="352"/>
    </contour>
    <contour>
      <point x="197" y="624" type="line"/>
      <point x="208" y="699"/>
      <point x="262" y="741"/>
      <point x="311" y="742" type="curve"/>
      <point x="370" y="742"/>
      <point x="392" y="689"/>
      <point x="422" y="689" type="curve" smooth="yes" name="hr01"/>
      <point x="439" y="689"/>
      <point x="452" y="707"/>
      <point x="459" y="734" type="curve"/>
      <point x="531" y="728" type="line"/>
      <point x="517" y="644"/>
      <point x="460" y="610"/>
      <point x="422" y="610" type="curve" smooth="yes"/>
      <point x="355" y="610"/>
      <point x="345" y="663"/>
      <point x="312" y="663" type="curve" smooth="yes" name="hr02"/>
      <point x="298" y="663"/>
      <point x="279" y="652"/>
      <point x="271" y="618" type="curve"/>
    </contour>
  </outline>
</glyph>
<glyph name="odieresis" format="1">
  <advance width="566"/>
  <unicode hex="00F6"/>
  <outline>
    <contour>
      <point x="579" y="259" type="curve" smooth="yes" name="hr00"/>
      <point x="560" y="105"/>
      <point x="427" y="-13"/>
      <point x="278" y="-13" type="curve" smooth="yes"/>
      <point x="128" y="-13"/>
      <point x="23" y="92"/>
      <point x="43" y="259" type="curve" smooth="yes"/>
      <point x="62" y="412"/>
      <point x="195" y="530"/>
      <point x="345" y="530" type="curve" smooth="yes"/>
      <point x="494" y="530"/>
      <point x="600" y="424"/>
    </contour>
    <contour>
      <point x="191" y="259" type="curve"/>
      <point x="180" y="165"/>
      <point x="212" y="89"/>
      <point x="290" y="89" type="curve" smooth="yes"/>
      <point x="368" y="89"/>
      <point x="419" y="165"/>
      <point x="430" y="259" type="curve" smooth="yes"/>
      <point x="442" y="352"/>
      <point x="410" y="428"/>
      <point x="332" y="428" type="curve" smooth="yes"/>
      <point x="254" y="428"/>
      <point x="203" y="352"/>
    </contour>
    <contour>
      <point x="202" y="670" type="curve" smooth="yes"/>
      <point x="206" y="705"/>
      <point x="239" y="733"/>
      <point x="273" y="733" type="curve" smooth="yes"/>
      <point x="308" y="733"/>
      <point x="333" y="705"/>
      <point x="329" y="670" type="curve" smooth="yes"/>
      <point x="324" y="635"/>
      <point x="292" y="607"/>
      <point x="257" y="607" type="curve" smooth="yes"/>
      <point x="223" y="607"/>
      <point x="197" y="635"/>
    </contour>
    <contour>
      <point x="397" y="670" type="curve" smooth="yes"/>
      <point x="401" y="705"/>
      <point x="434" y="733"/>
      <point x="468" y="733" type="curve" smooth="yes"/>
      <point x="503" y="733"/>
      <point x="528" y="705"/>
      <point x="524" y="670" type="curve" smooth="yes"/>
      <point x="519" y="635"/>
      <point x="487" y="607"/>
      <point x="452" y="607" type="curve" smooth="yes"/>
      <point x="418" y="607"/>
      <point x="392" y="635"/>
    </contour>
  </outline>
</glyph>
<glyph name="divide" format="1">
  <advance width="568"/>
  <unicode hex="00F7"/>
  <outline>
    <contour>
      <point x="232" y="112" type="curve" smooth="yes" name="hr00"/>
      <point x="237" y="149"/>
      <point x="265" y="175"/>
      <point x="301" y="175" type="curve" smooth="yes"/>
      <point x="338" y="175"/>
      <point x="361" y="149"/>
      <point x="356" y="112" type="curve" smooth="yes"/>
      <point x="352" y="76"/>
      <point x="323" y="51"/>
      <point x="286" y="51" type="curve" smooth="yes"/>
      <point x="250" y="51"/>
      <point x="228" y="76"/>
    </contour>
    <contour>
      <point x="90" y="353" type="line"/>
      <point x="558" y="353" type="line"/>
      <point x="546" y="257" type="line"/>
      <point x="78" y="257" type="line"/>
    </contour>
    <contour>
      <point x="280" y="494" type="curve" smooth="yes"/>
      <point x="285" y="530"/>
      <point x="313" y="556"/>
      <point x="348" y="556" type="curve" smooth="yes"/>
      <point x="384" y="556"/>
      <point x="407" y="530"/>
      <point x="402" y="494" type="curve" smooth="yes"/>
      <point x="398" y="459"/>
      <point x="369" y="434"/>
      <point x="333" y="434" type="curve" smooth="yes"/>
      <point x="298" y="434"/>
      <point x="276" y="459"/>
    </contour>
  </outline>
</glyph>
